G04*
G04 #@! TF.GenerationSoftware,Altium Limited,Altium Designer,20.0.2 (26)*
G04*
G04 Layer_Color=16711935*
%FSLAX25Y25*%
%MOIN*%
G70*
G01*
G75*
%ADD10C,0.04000*%
%ADD11C,0.01000*%
%ADD12C,0.00600*%
%ADD13C,0.00394*%
%ADD14C,0.00197*%
%ADD15C,0.00800*%
D10*
X258500Y425000D02*
G03*
X251500Y418000I0J-7000D01*
G01*
X620500Y418000D02*
G03*
X613500Y425000I-7000J0D01*
G01*
X251500Y119500D02*
G03*
X258500Y112500I7000J0D01*
G01*
X613500D02*
G03*
X620500Y119500I0J7000D01*
G01*
X251500Y119500D02*
Y418000D01*
X258500Y425000D02*
X613500D01*
X620500Y119500D02*
Y418000D01*
X258500Y112500D02*
X613500D01*
D11*
X658000Y118500D02*
X660000Y112500D01*
X662000Y118500D01*
X660000Y425000D02*
X662000Y419000D01*
X658000D02*
X660000Y425000D01*
Y112500D02*
Y246056D01*
Y288244D02*
Y425000D01*
X616500Y112500D02*
X661000D01*
X616500Y425000D02*
X661000D01*
X251500Y97000D02*
X257500Y99000D01*
X251500Y97000D02*
X257500Y95000D01*
X614500D02*
X620500Y97000D01*
X614500Y99000D02*
X620500Y97000D01*
X251500D02*
X413306D01*
X455494D02*
X620500D01*
X251500Y96000D02*
Y116500D01*
X620500Y96000D02*
Y116500D01*
D12*
X657601Y247656D02*
Y251655D01*
X658601D01*
X662599Y247656D01*
X663599D01*
X662599Y253654D02*
X663599Y254654D01*
Y256653D01*
X662599Y257653D01*
X658601D01*
X657601Y256653D01*
Y254654D01*
X658601Y253654D01*
X659600D01*
X660600Y254654D01*
Y257653D01*
X663599Y259652D02*
X662599D01*
Y260652D01*
X663599D01*
Y259652D01*
X658601Y264651D02*
X657601Y265651D01*
Y267650D01*
X658601Y268650D01*
X659600D01*
X660600Y267650D01*
Y266650D01*
Y267650D01*
X661600Y268650D01*
X662599D01*
X663599Y267650D01*
Y265651D01*
X662599Y264651D01*
X658601Y270649D02*
X657601Y271649D01*
Y273648D01*
X658601Y274648D01*
X659600D01*
X660600Y273648D01*
X661600Y274648D01*
X662599D01*
X663599Y273648D01*
Y271649D01*
X662599Y270649D01*
X661600D01*
X660600Y271649D01*
X659600Y270649D01*
X658601D01*
X660600Y271649D02*
Y273648D01*
X663599Y276647D02*
X659600D01*
Y277647D01*
X660600Y278646D01*
X663599D01*
X660600D01*
X659600Y279646D01*
X660600Y280646D01*
X663599D01*
Y282645D02*
X659600D01*
Y283645D01*
X660600Y284644D01*
X663599D01*
X660600D01*
X659600Y285644D01*
X660600Y286644D01*
X663599D01*
X414906Y94401D02*
X415906Y93401D01*
X417905D01*
X418905Y94401D01*
Y98399D01*
X417905Y99399D01*
X415906D01*
X414906Y98399D01*
Y97400D01*
X415906Y96400D01*
X418905D01*
X420904Y98399D02*
X421904Y99399D01*
X423903D01*
X424903Y98399D01*
Y97400D01*
X423903Y96400D01*
X422904D01*
X423903D01*
X424903Y95400D01*
Y94401D01*
X423903Y93401D01*
X421904D01*
X420904Y94401D01*
X426902Y93401D02*
Y94401D01*
X427902D01*
Y93401D01*
X426902D01*
X431901Y99399D02*
X435899D01*
Y98399D01*
X431901Y94401D01*
Y93401D01*
X437899Y98399D02*
X438899Y99399D01*
X440898D01*
X441898Y98399D01*
Y97400D01*
X440898Y96400D01*
X439898D01*
X440898D01*
X441898Y95400D01*
Y94401D01*
X440898Y93401D01*
X438899D01*
X437899Y94401D01*
X443897Y93401D02*
Y97400D01*
X444897D01*
X445896Y96400D01*
Y93401D01*
Y96400D01*
X446896Y97400D01*
X447896Y96400D01*
Y93401D01*
X449895D02*
Y97400D01*
X450895D01*
X451894Y96400D01*
Y93401D01*
Y96400D01*
X452894Y97400D01*
X453894Y96400D01*
Y93401D01*
D13*
X394083Y288437D02*
G03*
X394083Y288437I-1969J0D01*
G01*
X303583D02*
G03*
X303583Y288437I-1969J0D01*
G01*
X575083D02*
G03*
X575083Y288437I-1969J0D01*
G01*
X484583D02*
G03*
X484583Y288437I-1969J0D01*
G01*
X480854Y249563D02*
G03*
X480854Y249563I-1969J0D01*
G01*
X571354D02*
G03*
X571354Y249563I-1969J0D01*
G01*
X299854D02*
G03*
X299854Y249563I-1969J0D01*
G01*
X390354D02*
G03*
X390354Y249563I-1969J0D01*
G01*
X483213Y127256D02*
X484394Y128437D01*
X484000Y126862D02*
X485181Y128043D01*
X482425Y124500D02*
X485575D01*
X483213Y122925D02*
Y126075D01*
Y124500D02*
X484787Y122925D01*
X483213Y124500D02*
X484787Y126075D01*
Y122925D02*
Y126075D01*
X380146Y304303D02*
X395854D01*
X380146Y284697D02*
X395854D01*
X380146D02*
Y304303D01*
X395854Y284697D02*
Y304303D01*
X289646D02*
X305354D01*
X289646Y284697D02*
X305354D01*
X289646D02*
Y304303D01*
X305354Y284697D02*
Y304303D01*
X561146D02*
X576854D01*
X561146Y284697D02*
X576854D01*
X561146D02*
Y304303D01*
X576854Y284697D02*
Y304303D01*
X470646D02*
X486354D01*
X470646Y284697D02*
X486354D01*
X470646D02*
Y304303D01*
X486354Y284697D02*
Y304303D01*
X475146Y233697D02*
X490854D01*
X475146Y253303D02*
X490854D01*
Y233697D02*
Y253303D01*
X475146Y233697D02*
Y253303D01*
X565646Y233697D02*
X581354D01*
X565646Y253303D02*
X581354D01*
Y233697D02*
Y253303D01*
X565646Y233697D02*
Y253303D01*
X294146Y233697D02*
X309854D01*
X294146Y253303D02*
X309854D01*
Y233697D02*
Y253303D01*
X294146Y233697D02*
Y253303D01*
X384646Y233697D02*
X400354D01*
X384646Y253303D02*
X400354D01*
Y233697D02*
Y253303D01*
X384646Y233697D02*
Y253303D01*
X394083Y288437D02*
G03*
X394083Y288437I-1969J0D01*
G01*
X303583D02*
G03*
X303583Y288437I-1969J0D01*
G01*
X575083D02*
G03*
X575083Y288437I-1969J0D01*
G01*
X484583D02*
G03*
X484583Y288437I-1969J0D01*
G01*
X480854Y249563D02*
G03*
X480854Y249563I-1969J0D01*
G01*
X571354D02*
G03*
X571354Y249563I-1969J0D01*
G01*
X299854D02*
G03*
X299854Y249563I-1969J0D01*
G01*
X390354D02*
G03*
X390354Y249563I-1969J0D01*
G01*
X483213Y127256D02*
X484394Y128437D01*
X484000Y126862D02*
X485181Y128043D01*
X482425Y124500D02*
X485575D01*
X483213Y122925D02*
Y126075D01*
Y124500D02*
X484787Y122925D01*
X483213Y124500D02*
X484787Y126075D01*
Y122925D02*
Y126075D01*
X380146Y304303D02*
X395854D01*
X380146Y284697D02*
X395854D01*
X380146D02*
Y304303D01*
X395854Y284697D02*
Y304303D01*
X289646D02*
X305354D01*
X289646Y284697D02*
X305354D01*
X289646D02*
Y304303D01*
X305354Y284697D02*
Y304303D01*
X561146D02*
X576854D01*
X561146Y284697D02*
X576854D01*
X561146D02*
Y304303D01*
X576854Y284697D02*
Y304303D01*
X470646D02*
X486354D01*
X470646Y284697D02*
X486354D01*
X470646D02*
Y304303D01*
X486354Y284697D02*
Y304303D01*
X475146Y233697D02*
X490854D01*
X475146Y253303D02*
X490854D01*
Y233697D02*
Y253303D01*
X475146Y233697D02*
Y253303D01*
X565646Y233697D02*
X581354D01*
X565646Y253303D02*
X581354D01*
Y233697D02*
Y253303D01*
X565646Y233697D02*
Y253303D01*
X294146Y233697D02*
X309854D01*
X294146Y253303D02*
X309854D01*
Y233697D02*
Y253303D01*
X294146Y233697D02*
Y253303D01*
X384646Y233697D02*
X400354D01*
X384646Y253303D02*
X400354D01*
Y233697D02*
Y253303D01*
X384646Y233697D02*
Y253303D01*
X388000Y292531D02*
Y296468D01*
X386032Y294500D02*
X389968D01*
X374614Y304736D02*
X401386D01*
X374614Y284264D02*
X401386D01*
X374614D02*
Y304736D01*
X401386Y284264D02*
Y304736D01*
X297500Y292531D02*
Y296468D01*
X295532Y294500D02*
X299468D01*
X284114Y304736D02*
X310886D01*
X284114Y284264D02*
X310886D01*
X284114D02*
Y304736D01*
X310886Y284264D02*
Y304736D01*
X569000Y292531D02*
Y296468D01*
X567031Y294500D02*
X570968D01*
X555614Y304736D02*
X582386D01*
X555614Y284264D02*
X582386D01*
X555614D02*
Y304736D01*
X582386Y284264D02*
Y304736D01*
X478500Y292531D02*
Y296468D01*
X476532Y294500D02*
X480469D01*
X465114Y304736D02*
X491886D01*
X465114Y284264D02*
X491886D01*
X465114D02*
Y304736D01*
X491886Y284264D02*
Y304736D01*
X483000Y241531D02*
Y245468D01*
X481032Y243500D02*
X484969D01*
X469614Y233264D02*
X496386D01*
X469614Y253736D02*
X496386D01*
Y233264D02*
Y253736D01*
X469614Y233264D02*
Y253736D01*
X573500Y241531D02*
Y245468D01*
X571531Y243500D02*
X575468D01*
X560114Y233264D02*
X586886D01*
X560114Y253736D02*
X586886D01*
Y233264D02*
Y253736D01*
X560114Y233264D02*
Y253736D01*
X302000Y241531D02*
Y245468D01*
X300031Y243500D02*
X303969D01*
X288614Y233264D02*
X315386D01*
X288614Y253736D02*
X315386D01*
Y233264D02*
Y253736D01*
X288614Y233264D02*
Y253736D01*
X392500Y241531D02*
Y245468D01*
X390531Y243500D02*
X394468D01*
X379114Y233264D02*
X405886D01*
X379114Y253736D02*
X405886D01*
Y233264D02*
Y253736D01*
X379114Y233264D02*
Y253736D01*
D14*
X330114Y125000D02*
G03*
X330114Y125000I-1378J0D01*
G01*
X388878Y411500D02*
G03*
X388878Y411500I-1378J0D01*
G01*
X336878D02*
G03*
X336878Y411500I-1378J0D01*
G01*
X381378Y125000D02*
G03*
X381378Y125000I-1378J0D01*
G01*
X326768D02*
X330705D01*
X328736Y123031D02*
Y126969D01*
X385531Y411500D02*
X389469D01*
X387500Y409531D02*
Y413469D01*
X333531Y411500D02*
X337469D01*
X335500Y409531D02*
Y413469D01*
X378031Y125000D02*
X381968D01*
X380000Y123031D02*
Y126969D01*
D15*
X474157Y122531D02*
Y126469D01*
X493843Y122531D02*
Y126469D01*
X491874Y124500D02*
X495811D01*
M02*
