G04*
G04 #@! TF.GenerationSoftware,Altium Limited,Altium Designer,20.0.2 (26)*
G04*
G04 Layer_Color=2752767*
%FSLAX25Y25*%
%MOIN*%
G70*
G01*
G75*
%ADD10C,0.04000*%
%ADD11C,0.01000*%
%ADD12C,0.00600*%
%ADD13C,0.00394*%
%ADD14C,0.00197*%
%ADD15C,0.00800*%
%ADD16C,0.00200*%
%ADD17C,0.00267*%
D10*
X258500Y425000D02*
G03*
X251500Y418000I0J-7000D01*
G01*
X620500Y418000D02*
G03*
X613500Y425000I-7000J0D01*
G01*
X251500Y119500D02*
G03*
X258500Y112500I7000J0D01*
G01*
X613500D02*
G03*
X620500Y119500I0J7000D01*
G01*
X251500Y119500D02*
Y418000D01*
X258500Y425000D02*
X613500D01*
X620500Y119500D02*
Y418000D01*
X258500Y112500D02*
X613500D01*
D11*
X658000Y118500D02*
X660000Y112500D01*
X662000Y118500D01*
X660000Y425000D02*
X662000Y419000D01*
X658000D02*
X660000Y425000D01*
Y112500D02*
Y246056D01*
Y288244D02*
Y425000D01*
X616500Y112500D02*
X661000D01*
X616500Y425000D02*
X661000D01*
X251500Y97000D02*
X257500Y99000D01*
X251500Y97000D02*
X257500Y95000D01*
X614500D02*
X620500Y97000D01*
X614500Y99000D02*
X620500Y97000D01*
X251500D02*
X413306D01*
X455494D02*
X620500D01*
X251500Y96000D02*
Y116500D01*
X620500Y96000D02*
Y116500D01*
D12*
X657601Y247656D02*
Y251655D01*
X658601D01*
X662599Y247656D01*
X663599D01*
X662599Y253654D02*
X663599Y254654D01*
Y256653D01*
X662599Y257653D01*
X658601D01*
X657601Y256653D01*
Y254654D01*
X658601Y253654D01*
X659600D01*
X660600Y254654D01*
Y257653D01*
X663599Y259652D02*
X662599D01*
Y260652D01*
X663599D01*
Y259652D01*
X658601Y264651D02*
X657601Y265651D01*
Y267650D01*
X658601Y268650D01*
X659600D01*
X660600Y267650D01*
Y266650D01*
Y267650D01*
X661600Y268650D01*
X662599D01*
X663599Y267650D01*
Y265651D01*
X662599Y264651D01*
X658601Y270649D02*
X657601Y271649D01*
Y273648D01*
X658601Y274648D01*
X659600D01*
X660600Y273648D01*
X661600Y274648D01*
X662599D01*
X663599Y273648D01*
Y271649D01*
X662599Y270649D01*
X661600D01*
X660600Y271649D01*
X659600Y270649D01*
X658601D01*
X660600Y271649D02*
Y273648D01*
X663599Y276647D02*
X659600D01*
Y277647D01*
X660600Y278646D01*
X663599D01*
X660600D01*
X659600Y279646D01*
X660600Y280646D01*
X663599D01*
Y282645D02*
X659600D01*
Y283645D01*
X660600Y284644D01*
X663599D01*
X660600D01*
X659600Y285644D01*
X660600Y286644D01*
X663599D01*
X414906Y94401D02*
X415906Y93401D01*
X417905D01*
X418905Y94401D01*
Y98399D01*
X417905Y99399D01*
X415906D01*
X414906Y98399D01*
Y97400D01*
X415906Y96400D01*
X418905D01*
X420904Y98399D02*
X421904Y99399D01*
X423903D01*
X424903Y98399D01*
Y97400D01*
X423903Y96400D01*
X422904D01*
X423903D01*
X424903Y95400D01*
Y94401D01*
X423903Y93401D01*
X421904D01*
X420904Y94401D01*
X426902Y93401D02*
Y94401D01*
X427902D01*
Y93401D01*
X426902D01*
X431901Y99399D02*
X435899D01*
Y98399D01*
X431901Y94401D01*
Y93401D01*
X437899Y98399D02*
X438899Y99399D01*
X440898D01*
X441898Y98399D01*
Y97400D01*
X440898Y96400D01*
X439898D01*
X440898D01*
X441898Y95400D01*
Y94401D01*
X440898Y93401D01*
X438899D01*
X437899Y94401D01*
X443897Y93401D02*
Y97400D01*
X444897D01*
X445896Y96400D01*
Y93401D01*
Y96400D01*
X446896Y97400D01*
X447896Y96400D01*
Y93401D01*
X449895D02*
Y97400D01*
X450895D01*
X451894Y96400D01*
Y93401D01*
Y96400D01*
X452894Y97400D01*
X453894Y96400D01*
Y93401D01*
D13*
X394083Y288437D02*
G03*
X394083Y288437I-1969J0D01*
G01*
X303583D02*
G03*
X303583Y288437I-1969J0D01*
G01*
X575083D02*
G03*
X575083Y288437I-1969J0D01*
G01*
X484583D02*
G03*
X484583Y288437I-1969J0D01*
G01*
X480854Y249563D02*
G03*
X480854Y249563I-1969J0D01*
G01*
X571354D02*
G03*
X571354Y249563I-1969J0D01*
G01*
X299854D02*
G03*
X299854Y249563I-1969J0D01*
G01*
X390354D02*
G03*
X390354Y249563I-1969J0D01*
G01*
X483213Y127256D02*
X484394Y128437D01*
X484000Y126862D02*
X485181Y128043D01*
X482425Y124500D02*
X485575D01*
X483213Y122925D02*
Y126075D01*
Y124500D02*
X484787Y122925D01*
X483213Y124500D02*
X484787Y126075D01*
Y122925D02*
Y126075D01*
X380146Y304303D02*
X395854D01*
X380146Y284697D02*
X395854D01*
X380146D02*
Y304303D01*
X395854Y284697D02*
Y304303D01*
X289646D02*
X305354D01*
X289646Y284697D02*
X305354D01*
X289646D02*
Y304303D01*
X305354Y284697D02*
Y304303D01*
X561146D02*
X576854D01*
X561146Y284697D02*
X576854D01*
X561146D02*
Y304303D01*
X576854Y284697D02*
Y304303D01*
X470646D02*
X486354D01*
X470646Y284697D02*
X486354D01*
X470646D02*
Y304303D01*
X486354Y284697D02*
Y304303D01*
X475146Y233697D02*
X490854D01*
X475146Y253303D02*
X490854D01*
Y233697D02*
Y253303D01*
X475146Y233697D02*
Y253303D01*
X565646Y233697D02*
X581354D01*
X565646Y253303D02*
X581354D01*
Y233697D02*
Y253303D01*
X565646Y233697D02*
Y253303D01*
X294146Y233697D02*
X309854D01*
X294146Y253303D02*
X309854D01*
Y233697D02*
Y253303D01*
X294146Y233697D02*
Y253303D01*
X384646Y233697D02*
X400354D01*
X384646Y253303D02*
X400354D01*
Y233697D02*
Y253303D01*
X384646Y233697D02*
Y253303D01*
X388000Y292531D02*
Y296468D01*
X386032Y294500D02*
X389968D01*
X374614Y304736D02*
X401386D01*
X374614Y284264D02*
X401386D01*
X374614D02*
Y304736D01*
X401386Y284264D02*
Y304736D01*
X297500Y292531D02*
Y296468D01*
X295532Y294500D02*
X299468D01*
X284114Y304736D02*
X310886D01*
X284114Y284264D02*
X310886D01*
X284114D02*
Y304736D01*
X310886Y284264D02*
Y304736D01*
X569000Y292531D02*
Y296468D01*
X567031Y294500D02*
X570968D01*
X555614Y304736D02*
X582386D01*
X555614Y284264D02*
X582386D01*
X555614D02*
Y304736D01*
X582386Y284264D02*
Y304736D01*
X478500Y292531D02*
Y296468D01*
X476532Y294500D02*
X480469D01*
X465114Y304736D02*
X491886D01*
X465114Y284264D02*
X491886D01*
X465114D02*
Y304736D01*
X491886Y284264D02*
Y304736D01*
X483000Y241531D02*
Y245468D01*
X481032Y243500D02*
X484969D01*
X469614Y233264D02*
X496386D01*
X469614Y253736D02*
X496386D01*
Y233264D02*
Y253736D01*
X469614Y233264D02*
Y253736D01*
X573500Y241531D02*
Y245468D01*
X571531Y243500D02*
X575468D01*
X560114Y233264D02*
X586886D01*
X560114Y253736D02*
X586886D01*
Y233264D02*
Y253736D01*
X560114Y233264D02*
Y253736D01*
X302000Y241531D02*
Y245468D01*
X300031Y243500D02*
X303969D01*
X288614Y233264D02*
X315386D01*
X288614Y253736D02*
X315386D01*
Y233264D02*
Y253736D01*
X288614Y233264D02*
Y253736D01*
X392500Y241531D02*
Y245468D01*
X390531Y243500D02*
X394468D01*
X379114Y233264D02*
X405886D01*
X379114Y253736D02*
X405886D01*
Y233264D02*
Y253736D01*
X379114Y233264D02*
Y253736D01*
D14*
X330114Y125000D02*
G03*
X330114Y125000I-1378J0D01*
G01*
X388878Y411500D02*
G03*
X388878Y411500I-1378J0D01*
G01*
X336878D02*
G03*
X336878Y411500I-1378J0D01*
G01*
X381378Y125000D02*
G03*
X381378Y125000I-1378J0D01*
G01*
X326768D02*
X330705D01*
X328736Y123031D02*
Y126969D01*
X385531Y411500D02*
X389469D01*
X387500Y409531D02*
Y413469D01*
X333531Y411500D02*
X337469D01*
X335500Y409531D02*
Y413469D01*
X378031Y125000D02*
X381968D01*
X380000Y123031D02*
Y126969D01*
D15*
X474157Y122531D02*
Y126469D01*
X493843Y122531D02*
Y126469D01*
X491874Y124500D02*
X495811D01*
D16*
X437700Y125700D02*
Y127300D01*
X439300D01*
Y125700D01*
X437700D01*
X427700D02*
Y127300D01*
X429300D01*
Y125700D01*
X427700D01*
X454500Y389290D02*
X453700Y390891D01*
X455300D01*
X454500Y389290D01*
Y413700D02*
X453700Y415300D01*
X455300D01*
X454500Y413700D01*
X267000Y399200D02*
X267400Y399600D01*
X267800D01*
X267400Y400000D01*
X267800Y400400D01*
X267400D01*
X267000Y400800D01*
X266600Y400400D01*
X266200D01*
X266600Y400000D01*
X266200Y399600D01*
X266600D01*
X267000Y399200D01*
X287000D02*
X287400Y399600D01*
X287800D01*
X287400Y400000D01*
X287800Y400400D01*
X287400D01*
X287000Y400800D01*
X286600Y400400D01*
X286200D01*
X286600Y400000D01*
X286200Y399600D01*
X286600D01*
X287000Y399200D01*
X586500D02*
X586900Y399600D01*
X587300D01*
X586900Y400000D01*
X587300Y400400D01*
X586900D01*
X586500Y400800D01*
X586100Y400400D01*
X585700D01*
X586100Y400000D01*
X585700Y399600D01*
X586100D01*
X586500Y399200D01*
X606500D02*
X606900Y399600D01*
X607300D01*
X606900Y400000D01*
X607300Y400400D01*
X606900D01*
X606500Y400800D01*
X606100Y400400D01*
X605700D01*
X606100Y400000D01*
X605700Y399600D01*
X606100D01*
X606500Y399200D01*
X604000Y137200D02*
X604400Y137600D01*
X604800D01*
X604400Y138000D01*
X604800Y138400D01*
X604400D01*
X604000Y138800D01*
X603600Y138400D01*
X603200D01*
X603600Y138000D01*
X603200Y137600D01*
X603600D01*
X604000Y137200D01*
X584000D02*
X584400Y137600D01*
X584800D01*
X584400Y138000D01*
X584800Y138400D01*
X584400D01*
X584000Y138800D01*
X583600Y138400D01*
X583200D01*
X583600Y138000D01*
X583200Y137600D01*
X583600D01*
X584000Y137200D01*
X285000Y136700D02*
X285400Y137100D01*
X285800D01*
X285400Y137500D01*
X285800Y137900D01*
X285400D01*
X285000Y138300D01*
X284600Y137900D01*
X284200D01*
X284600Y137500D01*
X284200Y137100D01*
X284600D01*
X285000Y136700D01*
X265000D02*
X265400Y137100D01*
X265800D01*
X265400Y137500D01*
X265800Y137900D01*
X265400D01*
X265000Y138300D01*
X264600Y137900D01*
X264200D01*
X264600Y137500D01*
X264200Y137100D01*
X264600D01*
X265000Y136700D01*
X584291Y275200D02*
X584691Y276000D01*
X584291Y276800D01*
X585090Y276400D01*
X585890Y276800D01*
X585491Y276000D01*
X585890Y275200D01*
X585090Y275600D01*
X584291Y275200D01*
X543110D02*
X543509Y276000D01*
X543110Y276800D01*
X543910Y276400D01*
X544709Y276800D01*
X544310Y276000D01*
X544709Y275200D01*
X543910Y275600D01*
X543110Y275200D01*
X531700Y295724D02*
Y297324D01*
X533300D01*
Y295724D01*
X531700D01*
Y323676D02*
Y325276D01*
X533300D01*
Y323676D01*
X531700D01*
X606700D02*
Y325276D01*
X608300D01*
Y323676D01*
X606700D01*
Y295724D02*
Y297324D01*
X608300D01*
Y295724D01*
X606700D01*
X312790Y275200D02*
X313191Y276000D01*
X312790Y276800D01*
X313591Y276400D01*
X314390Y276800D01*
X313990Y276000D01*
X314390Y275200D01*
X313591Y275600D01*
X312790Y275200D01*
X271609D02*
X272009Y276000D01*
X271609Y276800D01*
X272410Y276400D01*
X273210Y276800D01*
X272810Y276000D01*
X273210Y275200D01*
X272410Y275600D01*
X271609Y275200D01*
X260200Y295724D02*
Y297324D01*
X261800D01*
Y295724D01*
X260200D01*
Y323676D02*
Y325276D01*
X261800D01*
Y323676D01*
X260200D01*
X335200D02*
Y325276D01*
X336800D01*
Y323676D01*
X335200D01*
Y295724D02*
Y297324D01*
X336800D01*
Y295724D01*
X335200D01*
X493790Y275200D02*
X494191Y276000D01*
X493790Y276800D01*
X494591Y276400D01*
X495391Y276800D01*
X494990Y276000D01*
X495391Y275200D01*
X494591Y275600D01*
X493790Y275200D01*
X452609D02*
X453010Y276000D01*
X452609Y276800D01*
X453409Y276400D01*
X454210Y276800D01*
X453809Y276000D01*
X454210Y275200D01*
X453409Y275600D01*
X452609Y275200D01*
X441200Y295724D02*
Y297324D01*
X442800D01*
Y295724D01*
X441200D01*
Y323676D02*
Y325276D01*
X442800D01*
Y323676D01*
X441200D01*
X516200D02*
Y325276D01*
X517800D01*
Y323676D01*
X516200D01*
Y295724D02*
Y297324D01*
X517800D01*
Y295724D01*
X516200D01*
X403291Y275200D02*
X403690Y276000D01*
X403291Y276800D01*
X404090Y276400D01*
X404890Y276800D01*
X404491Y276000D01*
X404890Y275200D01*
X404090Y275600D01*
X403291Y275200D01*
X362109D02*
X362509Y276000D01*
X362109Y276800D01*
X362910Y276400D01*
X363709Y276800D01*
X363310Y276000D01*
X363709Y275200D01*
X362910Y275600D01*
X362109Y275200D01*
X350700Y295724D02*
Y297324D01*
X352300D01*
Y295724D01*
X350700D01*
Y323676D02*
Y325276D01*
X352300D01*
Y323676D01*
X350700D01*
X425700D02*
Y325276D01*
X427300D01*
Y323676D01*
X425700D01*
Y295724D02*
Y297324D01*
X427300D01*
Y295724D01*
X425700D01*
X466110Y261200D02*
X466509Y262000D01*
X466110Y262800D01*
X466910Y262400D01*
X467709Y262800D01*
X467310Y262000D01*
X467709Y261200D01*
X466910Y261600D01*
X466110Y261200D01*
X507291D02*
X507690Y262000D01*
X507291Y262800D01*
X508090Y262400D01*
X508890Y262800D01*
X508491Y262000D01*
X508890Y261200D01*
X508090Y261600D01*
X507291Y261200D01*
X518700Y240676D02*
Y242276D01*
X520300D01*
Y240676D01*
X518700D01*
Y212724D02*
Y214324D01*
X520300D01*
Y212724D01*
X518700D01*
X443700D02*
Y214324D01*
X445300D01*
Y212724D01*
X443700D01*
Y240676D02*
Y242276D01*
X445300D01*
Y240676D01*
X443700D01*
X556609Y261200D02*
X557010Y262000D01*
X556609Y262800D01*
X557409Y262400D01*
X558210Y262800D01*
X557809Y262000D01*
X558210Y261200D01*
X557409Y261600D01*
X556609Y261200D01*
X597790D02*
X598190Y262000D01*
X597790Y262800D01*
X598591Y262400D01*
X599391Y262800D01*
X598990Y262000D01*
X599391Y261200D01*
X598591Y261600D01*
X597790Y261200D01*
X609200Y240676D02*
Y242276D01*
X610800D01*
Y240676D01*
X609200D01*
Y212724D02*
Y214324D01*
X610800D01*
Y212724D01*
X609200D01*
X534200D02*
Y214324D01*
X535800D01*
Y212724D01*
X534200D01*
Y240676D02*
Y242276D01*
X535800D01*
Y240676D01*
X534200D01*
X285109Y261200D02*
X285509Y262000D01*
X285109Y262800D01*
X285910Y262400D01*
X286709Y262800D01*
X286310Y262000D01*
X286709Y261200D01*
X285910Y261600D01*
X285109Y261200D01*
X326290D02*
X326691Y262000D01*
X326290Y262800D01*
X327091Y262400D01*
X327890Y262800D01*
X327490Y262000D01*
X327890Y261200D01*
X327091Y261600D01*
X326290Y261200D01*
X337700Y240676D02*
Y242276D01*
X339300D01*
Y240676D01*
X337700D01*
Y212724D02*
Y214324D01*
X339300D01*
Y212724D01*
X337700D01*
X262700D02*
Y214324D01*
X264300D01*
Y212724D01*
X262700D01*
Y240676D02*
Y242276D01*
X264300D01*
Y240676D01*
X262700D01*
X375609Y261200D02*
X376009Y262000D01*
X375609Y262800D01*
X376410Y262400D01*
X377209Y262800D01*
X376810Y262000D01*
X377209Y261200D01*
X376410Y261600D01*
X375609Y261200D01*
X416790D02*
X417191Y262000D01*
X416790Y262800D01*
X417591Y262400D01*
X418391Y262800D01*
X417990Y262000D01*
X418391Y261200D01*
X417591Y261600D01*
X416790Y261200D01*
X428200Y240676D02*
Y242276D01*
X429800D01*
Y240676D01*
X428200D01*
Y212724D02*
Y214324D01*
X429800D01*
Y212724D01*
X428200D01*
X353200D02*
Y214324D01*
X354800D01*
Y212724D01*
X353200D01*
Y240676D02*
Y242276D01*
X354800D01*
Y240676D01*
X353200D01*
X508200Y403200D02*
Y404800D01*
X509800D01*
Y403200D01*
X508200D01*
X482700Y402700D02*
Y404300D01*
X484300D01*
Y402700D01*
X482700D01*
X526580Y405116D02*
Y404716D01*
X527380D01*
Y405116D01*
X527780D01*
Y405916D01*
X527380D01*
Y406316D01*
X526580D01*
Y405916D01*
X526180D01*
Y405116D01*
X526580D01*
X529600Y399600D02*
Y399200D01*
X530400D01*
Y399600D01*
X530800D01*
Y400400D01*
X530400D01*
Y400800D01*
X529600D01*
Y400400D01*
X529200D01*
Y399600D01*
X529600D01*
X523100D02*
Y399200D01*
X523900D01*
Y399600D01*
X524300D01*
Y400400D01*
X523900D01*
Y400800D01*
X523100D01*
Y400400D01*
X522700D01*
Y399600D01*
X523100D01*
X521600Y386600D02*
Y386200D01*
X522400D01*
Y386600D01*
X522800D01*
Y387400D01*
X522400D01*
Y387800D01*
X521600D01*
Y387400D01*
X521200D01*
Y386600D01*
X521600D01*
X526600D02*
Y386200D01*
X527400D01*
Y386600D01*
X527800D01*
Y387400D01*
X527400D01*
Y387800D01*
X526600D01*
Y387400D01*
X526200D01*
Y386600D01*
X526600D01*
X531600D02*
Y386200D01*
X532400D01*
Y386600D01*
X532800D01*
Y387400D01*
X532400D01*
Y387800D01*
X531600D01*
Y387400D01*
X531200D01*
Y386600D01*
X531600D01*
X521600Y390100D02*
Y389700D01*
X522400D01*
Y390100D01*
X522800D01*
Y390900D01*
X522400D01*
Y391300D01*
X521600D01*
Y390900D01*
X521200D01*
Y390100D01*
X521600D01*
X526600D02*
Y389700D01*
X527400D01*
Y390100D01*
X527800D01*
Y390900D01*
X527400D01*
Y391300D01*
X526600D01*
Y390900D01*
X526200D01*
Y390100D01*
X526600D01*
X531600D02*
Y389700D01*
X532400D01*
Y390100D01*
X532800D01*
Y390900D01*
X532400D01*
Y391300D01*
X531600D01*
Y390900D01*
X531200D01*
Y390100D01*
X531600D01*
X552100Y396100D02*
Y395700D01*
X552900D01*
Y396100D01*
X553300D01*
Y396900D01*
X552900D01*
Y397300D01*
X552100D01*
Y396900D01*
X551700D01*
Y396100D01*
X552100D01*
X557100D02*
Y395700D01*
X557900D01*
Y396100D01*
X558300D01*
Y396900D01*
X557900D01*
Y397300D01*
X557100D01*
Y396900D01*
X556700D01*
Y396100D01*
X557100D01*
X562100D02*
Y395700D01*
X562900D01*
Y396100D01*
X563300D01*
Y396900D01*
X562900D01*
Y397300D01*
X562100D01*
Y396900D01*
X561700D01*
Y396100D01*
X562100D01*
X552100Y399600D02*
Y399200D01*
X552900D01*
Y399600D01*
X553300D01*
Y400400D01*
X552900D01*
Y400800D01*
X552100D01*
Y400400D01*
X551700D01*
Y399600D01*
X552100D01*
X557100D02*
Y399200D01*
X557900D01*
Y399600D01*
X558300D01*
Y400400D01*
X557900D01*
Y400800D01*
X557100D01*
Y400400D01*
X556700D01*
Y399600D01*
X557100D01*
X562100D02*
Y399200D01*
X562900D01*
Y399600D01*
X563300D01*
Y400400D01*
X562900D01*
Y400800D01*
X562100D01*
Y400400D01*
X561700D01*
Y399600D01*
X562100D01*
X552100Y392100D02*
Y391700D01*
X552900D01*
Y392100D01*
X553300D01*
Y392900D01*
X552900D01*
Y393300D01*
X552100D01*
Y392900D01*
X551700D01*
Y392100D01*
X552100D01*
X557100D02*
Y391700D01*
X557900D01*
Y392100D01*
X558300D01*
Y392900D01*
X557900D01*
Y393300D01*
X557100D01*
Y392900D01*
X556700D01*
Y392100D01*
X557100D01*
X562100D02*
Y391700D01*
X562900D01*
Y392100D01*
X563300D01*
Y392900D01*
X562900D01*
Y393300D01*
X562100D01*
Y392900D01*
X561700D01*
Y392100D01*
X562100D01*
X442600Y410600D02*
Y410200D01*
X443400D01*
Y410600D01*
X443800D01*
Y411400D01*
X443400D01*
Y411800D01*
X442600D01*
Y411400D01*
X442200D01*
Y410600D01*
X442600D01*
Y415600D02*
Y415200D01*
X443400D01*
Y415600D01*
X443800D01*
Y416400D01*
X443400D01*
Y416800D01*
X442600D01*
Y416400D01*
X442200D01*
Y415600D01*
X442600D01*
Y405600D02*
Y405200D01*
X443400D01*
Y405600D01*
X443800D01*
Y406400D01*
X443400D01*
Y406800D01*
X442600D01*
Y406400D01*
X442200D01*
Y405600D01*
X442600D01*
Y400600D02*
Y400200D01*
X443400D01*
Y400600D01*
X443800D01*
Y401400D01*
X443400D01*
Y401800D01*
X442600D01*
Y401400D01*
X442200D01*
Y400600D01*
X442600D01*
Y395600D02*
Y395200D01*
X443400D01*
Y395600D01*
X443800D01*
Y396400D01*
X443400D01*
Y396800D01*
X442600D01*
Y396400D01*
X442200D01*
Y395600D01*
X442600D01*
X452600Y420100D02*
Y419700D01*
X453400D01*
Y420100D01*
X453800D01*
Y420900D01*
X453400D01*
Y421300D01*
X452600D01*
Y420900D01*
X452200D01*
Y420100D01*
X452600D01*
X457600D02*
Y419700D01*
X458400D01*
Y420100D01*
X458800D01*
Y420900D01*
X458400D01*
Y421300D01*
X457600D01*
Y420900D01*
X457200D01*
Y420100D01*
X457600D01*
X447600D02*
Y419700D01*
X448400D01*
Y420100D01*
X448800D01*
Y420900D01*
X448400D01*
Y421300D01*
X447600D01*
Y420900D01*
X447200D01*
Y420100D01*
X447600D01*
X442600D02*
Y419700D01*
X443400D01*
Y420100D01*
X443800D01*
Y420900D01*
X443400D01*
Y421300D01*
X442600D01*
Y420900D01*
X442200D01*
Y420100D01*
X442600D01*
X437600D02*
Y419700D01*
X438400D01*
Y420100D01*
X438800D01*
Y420900D01*
X438400D01*
Y421300D01*
X437600D01*
Y420900D01*
X437200D01*
Y420100D01*
X437600D01*
X614600Y271600D02*
Y271200D01*
X615400D01*
Y271600D01*
X615800D01*
Y272400D01*
X615400D01*
Y272800D01*
X614600D01*
Y272400D01*
X614200D01*
Y271600D01*
X614600D01*
Y266600D02*
Y266200D01*
X615400D01*
Y266600D01*
X615800D01*
Y267400D01*
X615400D01*
Y267800D01*
X614600D01*
Y267400D01*
X614200D01*
Y266600D01*
X614600D01*
Y276600D02*
Y276200D01*
X615400D01*
Y276600D01*
X615800D01*
Y277400D01*
X615400D01*
Y277800D01*
X614600D01*
Y277400D01*
X614200D01*
Y276600D01*
X614600D01*
Y281600D02*
Y281200D01*
X615400D01*
Y281600D01*
X615800D01*
Y282400D01*
X615400D01*
Y282800D01*
X614600D01*
Y282400D01*
X614200D01*
Y281600D01*
X614600D01*
Y261600D02*
Y261200D01*
X615400D01*
Y261600D01*
X615800D01*
Y262400D01*
X615400D01*
Y262800D01*
X614600D01*
Y262400D01*
X614200D01*
Y261600D01*
X614600D01*
Y256600D02*
Y256200D01*
X615400D01*
Y256600D01*
X615800D01*
Y257400D01*
X615400D01*
Y257800D01*
X614600D01*
Y257400D01*
X614200D01*
Y256600D01*
X614600D01*
Y246600D02*
Y246200D01*
X615400D01*
Y246600D01*
X615800D01*
Y247400D01*
X615400D01*
Y247800D01*
X614600D01*
Y247400D01*
X614200D01*
Y246600D01*
X614600D01*
Y251600D02*
Y251200D01*
X615400D01*
Y251600D01*
X615800D01*
Y252400D01*
X615400D01*
Y252800D01*
X614600D01*
Y252400D01*
X614200D01*
Y251600D01*
X614600D01*
Y286600D02*
Y286200D01*
X615400D01*
Y286600D01*
X615800D01*
Y287400D01*
X615400D01*
Y287800D01*
X614600D01*
Y287400D01*
X614200D01*
Y286600D01*
X614600D01*
Y291600D02*
Y291200D01*
X615400D01*
Y291600D01*
X615800D01*
Y292400D01*
X615400D01*
Y292800D01*
X614600D01*
Y292400D01*
X614200D01*
Y291600D01*
X614600D01*
X257100Y287100D02*
Y286700D01*
X257900D01*
Y287100D01*
X258300D01*
Y287900D01*
X257900D01*
Y288300D01*
X257100D01*
Y287900D01*
X256700D01*
Y287100D01*
X257100D01*
Y282100D02*
Y281700D01*
X257900D01*
Y282100D01*
X258300D01*
Y282900D01*
X257900D01*
Y283300D01*
X257100D01*
Y282900D01*
X256700D01*
Y282100D01*
X257100D01*
Y247100D02*
Y246700D01*
X257900D01*
Y247100D01*
X258300D01*
Y247900D01*
X257900D01*
Y248300D01*
X257100D01*
Y247900D01*
X256700D01*
Y247100D01*
X257100D01*
Y242100D02*
Y241700D01*
X257900D01*
Y242100D01*
X258300D01*
Y242900D01*
X257900D01*
Y243300D01*
X257100D01*
Y242900D01*
X256700D01*
Y242100D01*
X257100D01*
Y252100D02*
Y251700D01*
X257900D01*
Y252100D01*
X258300D01*
Y252900D01*
X257900D01*
Y253300D01*
X257100D01*
Y252900D01*
X256700D01*
Y252100D01*
X257100D01*
Y257100D02*
Y256700D01*
X257900D01*
Y257100D01*
X258300D01*
Y257900D01*
X257900D01*
Y258300D01*
X257100D01*
Y257900D01*
X256700D01*
Y257100D01*
X257100D01*
Y277100D02*
Y276700D01*
X257900D01*
Y277100D01*
X258300D01*
Y277900D01*
X257900D01*
Y278300D01*
X257100D01*
Y277900D01*
X256700D01*
Y277100D01*
X257100D01*
Y272100D02*
Y271700D01*
X257900D01*
Y272100D01*
X258300D01*
Y272900D01*
X257900D01*
Y273300D01*
X257100D01*
Y272900D01*
X256700D01*
Y272100D01*
X257100D01*
Y262100D02*
Y261700D01*
X257900D01*
Y262100D01*
X258300D01*
Y262900D01*
X257900D01*
Y263300D01*
X257100D01*
Y262900D01*
X256700D01*
Y262100D01*
X257100D01*
Y267100D02*
Y266700D01*
X257900D01*
Y267100D01*
X258300D01*
Y267900D01*
X257900D01*
Y268300D01*
X257100D01*
Y267900D01*
X256700D01*
Y267100D01*
X257100D01*
X349600Y264600D02*
Y264200D01*
X350400D01*
Y264600D01*
X350800D01*
Y265400D01*
X350400D01*
Y265800D01*
X349600D01*
Y265400D01*
X349200D01*
Y264600D01*
X349600D01*
X344600D02*
Y264200D01*
X345400D01*
Y264600D01*
X345800D01*
Y265400D01*
X345400D01*
Y265800D01*
X344600D01*
Y265400D01*
X344200D01*
Y264600D01*
X344600D01*
X339600D02*
Y264200D01*
X340400D01*
Y264600D01*
X340800D01*
Y265400D01*
X340400D01*
Y265800D01*
X339600D01*
Y265400D01*
X339200D01*
Y264600D01*
X339600D01*
X349600Y272100D02*
Y271700D01*
X350400D01*
Y272100D01*
X350800D01*
Y272900D01*
X350400D01*
Y273300D01*
X349600D01*
Y272900D01*
X349200D01*
Y272100D01*
X349600D01*
X344600D02*
Y271700D01*
X345400D01*
Y272100D01*
X345800D01*
Y272900D01*
X345400D01*
Y273300D01*
X344600D01*
Y272900D01*
X344200D01*
Y272100D01*
X344600D01*
X339600D02*
Y271700D01*
X340400D01*
Y272100D01*
X340800D01*
Y272900D01*
X340400D01*
Y273300D01*
X339600D01*
Y272900D01*
X339200D01*
Y272100D01*
X339600D01*
X349600Y268600D02*
Y268200D01*
X350400D01*
Y268600D01*
X350800D01*
Y269400D01*
X350400D01*
Y269800D01*
X349600D01*
Y269400D01*
X349200D01*
Y268600D01*
X349600D01*
X344600D02*
Y268200D01*
X345400D01*
Y268600D01*
X345800D01*
Y269400D01*
X345400D01*
Y269800D01*
X344600D01*
Y269400D01*
X344200D01*
Y268600D01*
X344600D01*
X339600D02*
Y268200D01*
X340400D01*
Y268600D01*
X340800D01*
Y269400D01*
X340400D01*
Y269800D01*
X339600D01*
Y269400D01*
X339200D01*
Y268600D01*
X339600D01*
X530600Y264600D02*
Y264200D01*
X531400D01*
Y264600D01*
X531800D01*
Y265400D01*
X531400D01*
Y265800D01*
X530600D01*
Y265400D01*
X530200D01*
Y264600D01*
X530600D01*
X525600D02*
Y264200D01*
X526400D01*
Y264600D01*
X526800D01*
Y265400D01*
X526400D01*
Y265800D01*
X525600D01*
Y265400D01*
X525200D01*
Y264600D01*
X525600D01*
X520600D02*
Y264200D01*
X521400D01*
Y264600D01*
X521800D01*
Y265400D01*
X521400D01*
Y265800D01*
X520600D01*
Y265400D01*
X520200D01*
Y264600D01*
X520600D01*
X530600Y272100D02*
Y271700D01*
X531400D01*
Y272100D01*
X531800D01*
Y272900D01*
X531400D01*
Y273300D01*
X530600D01*
Y272900D01*
X530200D01*
Y272100D01*
X530600D01*
X525600D02*
Y271700D01*
X526400D01*
Y272100D01*
X526800D01*
Y272900D01*
X526400D01*
Y273300D01*
X525600D01*
Y272900D01*
X525200D01*
Y272100D01*
X525600D01*
X520600D02*
Y271700D01*
X521400D01*
Y272100D01*
X521800D01*
Y272900D01*
X521400D01*
Y273300D01*
X520600D01*
Y272900D01*
X520200D01*
Y272100D01*
X520600D01*
X439600D02*
Y271700D01*
X440400D01*
Y272100D01*
X440800D01*
Y272900D01*
X440400D01*
Y273300D01*
X439600D01*
Y272900D01*
X439200D01*
Y272100D01*
X439600D01*
X434600D02*
Y271700D01*
X435400D01*
Y272100D01*
X435800D01*
Y272900D01*
X435400D01*
Y273300D01*
X434600D01*
Y272900D01*
X434200D01*
Y272100D01*
X434600D01*
X429600D02*
Y271700D01*
X430400D01*
Y272100D01*
X430800D01*
Y272900D01*
X430400D01*
Y273300D01*
X429600D01*
Y272900D01*
X429200D01*
Y272100D01*
X429600D01*
X439600Y264600D02*
Y264200D01*
X440400D01*
Y264600D01*
X440800D01*
Y265400D01*
X440400D01*
Y265800D01*
X439600D01*
Y265400D01*
X439200D01*
Y264600D01*
X439600D01*
X434600D02*
Y264200D01*
X435400D01*
Y264600D01*
X435800D01*
Y265400D01*
X435400D01*
Y265800D01*
X434600D01*
Y265400D01*
X434200D01*
Y264600D01*
X434600D01*
X429600D02*
Y264200D01*
X430400D01*
Y264600D01*
X430800D01*
Y265400D01*
X430400D01*
Y265800D01*
X429600D01*
Y265400D01*
X429200D01*
Y264600D01*
X429600D01*
X439600Y268600D02*
Y268200D01*
X440400D01*
Y268600D01*
X440800D01*
Y269400D01*
X440400D01*
Y269800D01*
X439600D01*
Y269400D01*
X439200D01*
Y268600D01*
X439600D01*
X434600D02*
Y268200D01*
X435400D01*
Y268600D01*
X435800D01*
Y269400D01*
X435400D01*
Y269800D01*
X434600D01*
Y269400D01*
X434200D01*
Y268600D01*
X434600D01*
X429600D02*
Y268200D01*
X430400D01*
Y268600D01*
X430800D01*
Y269400D01*
X430400D01*
Y269800D01*
X429600D01*
Y269400D01*
X429200D01*
Y268600D01*
X429600D01*
X530600D02*
Y268200D01*
X531400D01*
Y268600D01*
X531800D01*
Y269400D01*
X531400D01*
Y269800D01*
X530600D01*
Y269400D01*
X530200D01*
Y268600D01*
X530600D01*
X525600D02*
Y268200D01*
X526400D01*
Y268600D01*
X526800D01*
Y269400D01*
X526400D01*
Y269800D01*
X525600D01*
Y269400D01*
X525200D01*
Y268600D01*
X525600D01*
X520600D02*
Y268200D01*
X521400D01*
Y268600D01*
X521800D01*
Y269400D01*
X521400D01*
Y269800D01*
X520600D01*
Y269400D01*
X520200D01*
Y268600D01*
X520600D01*
X544600Y417100D02*
Y416700D01*
X545400D01*
Y417100D01*
X545800D01*
Y417900D01*
X545400D01*
Y418300D01*
X544600D01*
Y417900D01*
X544200D01*
Y417100D01*
X544600D01*
X539600D02*
Y416700D01*
X540400D01*
Y417100D01*
X540800D01*
Y417900D01*
X540400D01*
Y418300D01*
X539600D01*
Y417900D01*
X539200D01*
Y417100D01*
X539600D01*
X534600D02*
Y416700D01*
X535400D01*
Y417100D01*
X535800D01*
Y417900D01*
X535400D01*
Y418300D01*
X534600D01*
Y417900D01*
X534200D01*
Y417100D01*
X534600D01*
X544600Y412100D02*
Y411700D01*
X545400D01*
Y412100D01*
X545800D01*
Y412900D01*
X545400D01*
Y413300D01*
X544600D01*
Y412900D01*
X544200D01*
Y412100D01*
X544600D01*
X539600D02*
Y411700D01*
X540400D01*
Y412100D01*
X540800D01*
Y412900D01*
X540400D01*
Y413300D01*
X539600D01*
Y412900D01*
X539200D01*
Y412100D01*
X539600D01*
X534600D02*
Y411700D01*
X535400D01*
Y412100D01*
X535800D01*
Y412900D01*
X535400D01*
Y413300D01*
X534600D01*
Y412900D01*
X534200D01*
Y412100D01*
X534600D01*
X519600D02*
Y411700D01*
X520400D01*
Y412100D01*
X520800D01*
Y412900D01*
X520400D01*
Y413300D01*
X519600D01*
Y412900D01*
X519200D01*
Y412100D01*
X519600D01*
X524600D02*
Y411700D01*
X525400D01*
Y412100D01*
X525800D01*
Y412900D01*
X525400D01*
Y413300D01*
X524600D01*
Y412900D01*
X524200D01*
Y412100D01*
X524600D01*
X529600D02*
Y411700D01*
X530400D01*
Y412100D01*
X530800D01*
Y412900D01*
X530400D01*
Y413300D01*
X529600D01*
Y412900D01*
X529200D01*
Y412100D01*
X529600D01*
X519600Y417100D02*
Y416700D01*
X520400D01*
Y417100D01*
X520800D01*
Y417900D01*
X520400D01*
Y418300D01*
X519600D01*
Y417900D01*
X519200D01*
Y417100D01*
X519600D01*
X524600D02*
Y416700D01*
X525400D01*
Y417100D01*
X525800D01*
Y417900D01*
X525400D01*
Y418300D01*
X524600D01*
Y417900D01*
X524200D01*
Y417100D01*
X524600D01*
X529600D02*
Y416700D01*
X530400D01*
Y417100D01*
X530800D01*
Y417900D01*
X530400D01*
Y418300D01*
X529600D01*
Y417900D01*
X529200D01*
Y417100D01*
X529600D01*
X504600Y412100D02*
Y411700D01*
X505400D01*
Y412100D01*
X505800D01*
Y412900D01*
X505400D01*
Y413300D01*
X504600D01*
Y412900D01*
X504200D01*
Y412100D01*
X504600D01*
X509600D02*
Y411700D01*
X510400D01*
Y412100D01*
X510800D01*
Y412900D01*
X510400D01*
Y413300D01*
X509600D01*
Y412900D01*
X509200D01*
Y412100D01*
X509600D01*
X514600D02*
Y411700D01*
X515400D01*
Y412100D01*
X515800D01*
Y412900D01*
X515400D01*
Y413300D01*
X514600D01*
Y412900D01*
X514200D01*
Y412100D01*
X514600D01*
Y417100D02*
Y416700D01*
X515400D01*
Y417100D01*
X515800D01*
Y417900D01*
X515400D01*
Y418300D01*
X514600D01*
Y417900D01*
X514200D01*
Y417100D01*
X514600D01*
X509600D02*
Y416700D01*
X510400D01*
Y417100D01*
X510800D01*
Y417900D01*
X510400D01*
Y418300D01*
X509600D01*
Y417900D01*
X509200D01*
Y417100D01*
X509600D01*
X504600D02*
Y416700D01*
X505400D01*
Y417100D01*
X505800D01*
Y417900D01*
X505400D01*
Y418300D01*
X504600D01*
Y417900D01*
X504200D01*
Y417100D01*
X504600D01*
X556600Y119600D02*
Y119200D01*
X557400D01*
Y119600D01*
X557800D01*
Y120400D01*
X557400D01*
Y120800D01*
X556600D01*
Y120400D01*
X556200D01*
Y119600D01*
X556600D01*
X523600Y125600D02*
Y125200D01*
X524400D01*
Y125600D01*
X524800D01*
Y126400D01*
X524400D01*
Y126800D01*
X523600D01*
Y126400D01*
X523200D01*
Y125600D01*
X523600D01*
X528600D02*
Y125200D01*
X529400D01*
Y125600D01*
X529800D01*
Y126400D01*
X529400D01*
Y126800D01*
X528600D01*
Y126400D01*
X528200D01*
Y125600D01*
X528600D01*
X533600D02*
Y125200D01*
X534400D01*
Y125600D01*
X534800D01*
Y126400D01*
X534400D01*
Y126800D01*
X533600D01*
Y126400D01*
X533200D01*
Y125600D01*
X533600D01*
X549100Y175100D02*
Y174700D01*
X549900D01*
Y175100D01*
X550300D01*
Y175900D01*
X549900D01*
Y176300D01*
X549100D01*
Y175900D01*
X548700D01*
Y175100D01*
X549100D01*
X544600Y170100D02*
Y169700D01*
X545400D01*
Y170100D01*
X545800D01*
Y170900D01*
X545400D01*
Y171300D01*
X544600D01*
Y170900D01*
X544200D01*
Y170100D01*
X544600D01*
X549600D02*
Y169700D01*
X550400D01*
Y170100D01*
X550800D01*
Y170900D01*
X550400D01*
Y171300D01*
X549600D01*
Y170900D01*
X549200D01*
Y170100D01*
X549600D01*
X372382Y142042D02*
Y141642D01*
X373182D01*
Y142042D01*
X373582D01*
Y142842D01*
X373182D01*
Y143242D01*
X372382D01*
Y142842D01*
X371982D01*
Y142042D01*
X372382D01*
X382100Y142100D02*
Y141700D01*
X382900D01*
Y142100D01*
X383300D01*
Y142900D01*
X382900D01*
Y143300D01*
X382100D01*
Y142900D01*
X381700D01*
Y142100D01*
X382100D01*
X335600D02*
Y141700D01*
X336400D01*
Y142100D01*
X336800D01*
Y142900D01*
X336400D01*
Y143300D01*
X335600D01*
Y142900D01*
X335200D01*
Y142100D01*
X335600D01*
X321100D02*
Y141700D01*
X321900D01*
Y142100D01*
X322300D01*
Y142900D01*
X321900D01*
Y143300D01*
X321100D01*
Y142900D01*
X320700D01*
Y142100D01*
X321100D01*
X326100D02*
Y141700D01*
X326900D01*
Y142100D01*
X327300D01*
Y142900D01*
X326900D01*
Y143300D01*
X326100D01*
Y142900D01*
X325700D01*
Y142100D01*
X326100D01*
X331100D02*
Y141700D01*
X331900D01*
Y142100D01*
X332300D01*
Y142900D01*
X331900D01*
Y143300D01*
X331100D01*
Y142900D01*
X330700D01*
Y142100D01*
X331100D01*
X384600Y394100D02*
Y393700D01*
X385400D01*
Y394100D01*
X385800D01*
Y394900D01*
X385400D01*
Y395300D01*
X384600D01*
Y394900D01*
X384200D01*
Y394100D01*
X384600D01*
X332600Y393100D02*
Y392700D01*
X333400D01*
Y393100D01*
X333800D01*
Y393900D01*
X333400D01*
Y394300D01*
X332600D01*
Y393900D01*
X332200D01*
Y393100D01*
X332600D01*
X327600D02*
Y392700D01*
X328400D01*
Y393100D01*
X328800D01*
Y393900D01*
X328400D01*
Y394300D01*
X327600D01*
Y393900D01*
X327200D01*
Y393100D01*
X327600D01*
X392600Y332100D02*
Y331700D01*
X393400D01*
Y332100D01*
X393800D01*
Y332900D01*
X393400D01*
Y333300D01*
X392600D01*
Y332900D01*
X392200D01*
Y332100D01*
X392600D01*
X320600Y357100D02*
Y356700D01*
X321400D01*
Y357100D01*
X321800D01*
Y357900D01*
X321400D01*
Y358300D01*
X320600D01*
Y357900D01*
X320200D01*
Y357100D01*
X320600D01*
Y362100D02*
Y361700D01*
X321400D01*
Y362100D01*
X321800D01*
Y362900D01*
X321400D01*
Y363300D01*
X320600D01*
Y362900D01*
X320200D01*
Y362100D01*
X320600D01*
X325600D02*
Y361700D01*
X326400D01*
Y362100D01*
X326800D01*
Y362900D01*
X326400D01*
Y363300D01*
X325600D01*
Y362900D01*
X325200D01*
Y362100D01*
X325600D01*
Y367100D02*
Y366700D01*
X326400D01*
Y367100D01*
X326800D01*
Y367900D01*
X326400D01*
Y368300D01*
X325600D01*
Y367900D01*
X325200D01*
Y367100D01*
X325600D01*
X320600D02*
Y366700D01*
X321400D01*
Y367100D01*
X321800D01*
Y367900D01*
X321400D01*
Y368300D01*
X320600D01*
Y367900D01*
X320200D01*
Y367100D01*
X320600D01*
X307100Y329600D02*
Y329200D01*
X307900D01*
Y329600D01*
X308300D01*
Y330400D01*
X307900D01*
Y330800D01*
X307100D01*
Y330400D01*
X306700D01*
Y329600D01*
X307100D01*
X302100D02*
Y329200D01*
X302900D01*
Y329600D01*
X303300D01*
Y330400D01*
X302900D01*
Y330800D01*
X302100D01*
Y330400D01*
X301700D01*
Y329600D01*
X302100D01*
X544600Y180100D02*
Y179700D01*
X545400D01*
Y180100D01*
X545800D01*
Y180900D01*
X545400D01*
Y181300D01*
X544600D01*
Y180900D01*
X544200D01*
Y180100D01*
X544600D01*
X539600Y175100D02*
Y174700D01*
X540400D01*
Y175100D01*
X540800D01*
Y175900D01*
X540400D01*
Y176300D01*
X539600D01*
Y175900D01*
X539200D01*
Y175100D01*
X539600D01*
X454100Y170100D02*
Y169700D01*
X454900D01*
Y170100D01*
X455300D01*
Y170900D01*
X454900D01*
Y171300D01*
X454100D01*
Y170900D01*
X453700D01*
Y170100D01*
X454100D01*
X449100Y175100D02*
Y174700D01*
X449900D01*
Y175100D01*
X450300D01*
Y175900D01*
X449900D01*
Y176300D01*
X449100D01*
Y175900D01*
X448700D01*
Y175100D01*
X449100D01*
X454100Y179600D02*
Y179200D01*
X454900D01*
Y179600D01*
X455300D01*
Y180400D01*
X454900D01*
Y180800D01*
X454100D01*
Y180400D01*
X453700D01*
Y179600D01*
X454100D01*
X459100Y175100D02*
Y174700D01*
X459900D01*
Y175100D01*
X460300D01*
Y175900D01*
X459900D01*
Y176300D01*
X459100D01*
Y175900D01*
X458700D01*
Y175100D01*
X459100D01*
X394600Y394100D02*
Y393700D01*
X395400D01*
Y394100D01*
X395800D01*
Y394900D01*
X395400D01*
Y395300D01*
X394600D01*
Y394900D01*
X394200D01*
Y394100D01*
X394600D01*
X562100Y119600D02*
Y119200D01*
X562900D01*
Y119600D01*
X563300D01*
Y120400D01*
X562900D01*
Y120800D01*
X562100D01*
Y120400D01*
X561700D01*
Y119600D01*
X562100D01*
X595100Y175100D02*
Y174700D01*
X595900D01*
Y175100D01*
X596300D01*
Y175900D01*
X595900D01*
Y176300D01*
X595100D01*
Y175900D01*
X594700D01*
Y175100D01*
X595100D01*
X387100Y142100D02*
Y141700D01*
X387900D01*
Y142100D01*
X388300D01*
Y142900D01*
X387900D01*
Y143300D01*
X387100D01*
Y142900D01*
X386700D01*
Y142100D01*
X387100D01*
X471600Y124100D02*
Y123700D01*
X472400D01*
Y124100D01*
X472800D01*
Y124900D01*
X472400D01*
Y125300D01*
X471600D01*
Y124900D01*
X471200D01*
Y124100D01*
X471600D01*
X377100Y142100D02*
Y141700D01*
X377900D01*
Y142100D01*
X378300D01*
Y142900D01*
X377900D01*
Y143300D01*
X377100D01*
Y142900D01*
X376700D01*
Y142100D01*
X377100D01*
X389600Y394100D02*
Y393700D01*
X390400D01*
Y394100D01*
X390800D01*
Y394900D01*
X390400D01*
Y395300D01*
X389600D01*
Y394900D01*
X389200D01*
Y394100D01*
X389600D01*
X379600D02*
Y393700D01*
X380400D01*
Y394100D01*
X380800D01*
Y394900D01*
X380400D01*
Y395300D01*
X379600D01*
Y394900D01*
X379200D01*
Y394100D01*
X379600D01*
X342600Y393100D02*
Y392700D01*
X343400D01*
Y393100D01*
X343800D01*
Y393900D01*
X343400D01*
Y394300D01*
X342600D01*
Y393900D01*
X342200D01*
Y393100D01*
X342600D01*
X338100D02*
Y392700D01*
X338900D01*
Y393100D01*
X339300D01*
Y393900D01*
X338900D01*
Y394300D01*
X338100D01*
Y393900D01*
X337700D01*
Y393100D01*
X338100D01*
X456100Y362100D02*
Y361700D01*
X456900D01*
Y362100D01*
X457300D01*
Y362900D01*
X456900D01*
Y363300D01*
X456100D01*
Y362900D01*
X455700D01*
Y362100D01*
X456100D01*
Y357100D02*
Y356700D01*
X456900D01*
Y357100D01*
X457300D01*
Y357900D01*
X456900D01*
Y358300D01*
X456100D01*
Y357900D01*
X455700D01*
Y357100D01*
X456100D01*
Y367100D02*
Y366700D01*
X456900D01*
Y367100D01*
X457300D01*
Y367900D01*
X456900D01*
Y368300D01*
X456100D01*
Y367900D01*
X455700D01*
Y367100D01*
X456100D01*
X446100Y362100D02*
Y361700D01*
X446900D01*
Y362100D01*
X447300D01*
Y362900D01*
X446900D01*
Y363300D01*
X446100D01*
Y362900D01*
X445700D01*
Y362100D01*
X446100D01*
Y357100D02*
Y356700D01*
X446900D01*
Y357100D01*
X447300D01*
Y357900D01*
X446900D01*
Y358300D01*
X446100D01*
Y357900D01*
X445700D01*
Y357100D01*
X446100D01*
Y367100D02*
Y366700D01*
X446900D01*
Y367100D01*
X447300D01*
Y367900D01*
X446900D01*
Y368300D01*
X446100D01*
Y367900D01*
X445700D01*
Y367100D01*
X446100D01*
X451100D02*
Y366700D01*
X451900D01*
Y367100D01*
X452300D01*
Y367900D01*
X451900D01*
Y368300D01*
X451100D01*
Y367900D01*
X450700D01*
Y367100D01*
X451100D01*
Y362100D02*
Y361700D01*
X451900D01*
Y362100D01*
X452300D01*
Y362900D01*
X451900D01*
Y363300D01*
X451100D01*
Y362900D01*
X450700D01*
Y362100D01*
X451100D01*
X574600Y332100D02*
Y331700D01*
X575400D01*
Y332100D01*
X575800D01*
Y332900D01*
X575400D01*
Y333300D01*
X574600D01*
Y332900D01*
X574200D01*
Y332100D01*
X574600D01*
X483100D02*
Y331700D01*
X483900D01*
Y332100D01*
X484300D01*
Y332900D01*
X483900D01*
Y333300D01*
X483100D01*
Y332900D01*
X482700D01*
Y332100D01*
X483100D01*
X568100Y205100D02*
Y204700D01*
X568900D01*
Y205100D01*
X569300D01*
Y205900D01*
X568900D01*
Y206300D01*
X568100D01*
Y205900D01*
X567700D01*
Y205100D01*
X568100D01*
X477600D02*
Y204700D01*
X478400D01*
Y205100D01*
X478800D01*
Y205900D01*
X478400D01*
Y206300D01*
X477600D01*
Y205900D01*
X477200D01*
Y205100D01*
X477600D01*
X387100D02*
Y204700D01*
X387900D01*
Y205100D01*
X388300D01*
Y205900D01*
X387900D01*
Y206300D01*
X387100D01*
Y205900D01*
X386700D01*
Y205100D01*
X387100D01*
X296600D02*
Y204700D01*
X297400D01*
Y205100D01*
X297800D01*
Y205900D01*
X297400D01*
Y206300D01*
X296600D01*
Y205900D01*
X296200D01*
Y205100D01*
X296600D01*
X292100D02*
Y204700D01*
X292900D01*
Y205100D01*
X293300D01*
Y205900D01*
X292900D01*
Y206300D01*
X292100D01*
Y205900D01*
X291700D01*
Y205100D01*
X292100D01*
X397100Y332100D02*
Y331700D01*
X397900D01*
Y332100D01*
X398300D01*
Y332900D01*
X397900D01*
Y333300D01*
X397100D01*
Y332900D01*
X396700D01*
Y332100D01*
X397100D01*
X487600D02*
Y331700D01*
X488400D01*
Y332100D01*
X488800D01*
Y332900D01*
X488400D01*
Y333300D01*
X487600D01*
Y332900D01*
X487200D01*
Y332100D01*
X487600D01*
X579600D02*
Y331700D01*
X580400D01*
Y332100D01*
X580800D01*
Y332900D01*
X580400D01*
Y333300D01*
X579600D01*
Y332900D01*
X579200D01*
Y332100D01*
X579600D01*
X563600Y205100D02*
Y204700D01*
X564400D01*
Y205100D01*
X564800D01*
Y205900D01*
X564400D01*
Y206300D01*
X563600D01*
Y205900D01*
X563200D01*
Y205100D01*
X563600D01*
X473100D02*
Y204700D01*
X473900D01*
Y205100D01*
X474300D01*
Y205900D01*
X473900D01*
Y206300D01*
X473100D01*
Y205900D01*
X472700D01*
Y205100D01*
X473100D01*
X382600D02*
Y204700D01*
X383400D01*
Y205100D01*
X383800D01*
Y205900D01*
X383400D01*
Y206300D01*
X382600D01*
Y205900D01*
X382200D01*
Y205100D01*
X382600D01*
X579600Y306100D02*
Y305700D01*
X580400D01*
Y306100D01*
X580800D01*
Y306900D01*
X580400D01*
Y307300D01*
X579600D01*
Y306900D01*
X579200D01*
Y306100D01*
X579600D01*
X550100Y291600D02*
Y291200D01*
X550900D01*
Y291600D01*
X551300D01*
Y292400D01*
X550900D01*
Y292800D01*
X550100D01*
Y292400D01*
X549700D01*
Y291600D01*
X550100D01*
X557600Y305600D02*
Y305200D01*
X558400D01*
Y305600D01*
X558800D01*
Y306400D01*
X558400D01*
Y306800D01*
X557600D01*
Y306400D01*
X557200D01*
Y305600D01*
X557600D01*
X592100Y357100D02*
Y356700D01*
X592900D01*
Y357100D01*
X593300D01*
Y357900D01*
X592900D01*
Y358300D01*
X592100D01*
Y357900D01*
X591700D01*
Y357100D01*
X592100D01*
Y362100D02*
Y361700D01*
X592900D01*
Y362100D01*
X593300D01*
Y362900D01*
X592900D01*
Y363300D01*
X592100D01*
Y362900D01*
X591700D01*
Y362100D01*
X592100D01*
X597100Y357100D02*
Y356700D01*
X597900D01*
Y357100D01*
X598300D01*
Y357900D01*
X597900D01*
Y358300D01*
X597100D01*
Y357900D01*
X596700D01*
Y357100D01*
X597100D01*
X602100D02*
Y356700D01*
X602900D01*
Y357100D01*
X603300D01*
Y357900D01*
X602900D01*
Y358300D01*
X602100D01*
Y357900D01*
X601700D01*
Y357100D01*
X602100D01*
X597100Y362100D02*
Y361700D01*
X597900D01*
Y362100D01*
X598300D01*
Y362900D01*
X597900D01*
Y363300D01*
X597100D01*
Y362900D01*
X596700D01*
Y362100D01*
X597100D01*
X602100D02*
Y361700D01*
X602900D01*
Y362100D01*
X603300D01*
Y362900D01*
X602900D01*
Y363300D01*
X602100D01*
Y362900D01*
X601700D01*
Y362100D01*
X602100D01*
X592100Y367100D02*
Y366700D01*
X592900D01*
Y367100D01*
X593300D01*
Y367900D01*
X592900D01*
Y368300D01*
X592100D01*
Y367900D01*
X591700D01*
Y367100D01*
X592100D01*
X597100D02*
Y366700D01*
X597900D01*
Y367100D01*
X598300D01*
Y367900D01*
X597900D01*
Y368300D01*
X597100D01*
Y367900D01*
X596700D01*
Y367100D01*
X597100D01*
X602100D02*
Y366700D01*
X602900D01*
Y367100D01*
X603300D01*
Y367900D01*
X602900D01*
Y368300D01*
X602100D01*
Y367900D01*
X601700D01*
Y367100D01*
X602100D01*
X613600Y334600D02*
Y334200D01*
X614400D01*
Y334600D01*
X614800D01*
Y335400D01*
X614400D01*
Y335800D01*
X613600D01*
Y335400D01*
X613200D01*
Y334600D01*
X613600D01*
X536600Y362100D02*
Y361700D01*
X537400D01*
Y362100D01*
X537800D01*
Y362900D01*
X537400D01*
Y363300D01*
X536600D01*
Y362900D01*
X536200D01*
Y362100D01*
X536600D01*
Y367100D02*
Y366700D01*
X537400D01*
Y367100D01*
X537800D01*
Y367900D01*
X537400D01*
Y368300D01*
X536600D01*
Y367900D01*
X536200D01*
Y367100D01*
X536600D01*
X541600Y357100D02*
Y356700D01*
X542400D01*
Y357100D01*
X542800D01*
Y357900D01*
X542400D01*
Y358300D01*
X541600D01*
Y357900D01*
X541200D01*
Y357100D01*
X541600D01*
X536600D02*
Y356700D01*
X537400D01*
Y357100D01*
X537800D01*
Y357900D01*
X537400D01*
Y358300D01*
X536600D01*
Y357900D01*
X536200D01*
Y357100D01*
X536600D01*
X541600Y362100D02*
Y361700D01*
X542400D01*
Y362100D01*
X542800D01*
Y362900D01*
X542400D01*
Y363300D01*
X541600D01*
Y362900D01*
X541200D01*
Y362100D01*
X541600D01*
Y367100D02*
Y366700D01*
X542400D01*
Y367100D01*
X542800D01*
Y367900D01*
X542400D01*
Y368300D01*
X541600D01*
Y367900D01*
X541200D01*
Y367100D01*
X541600D01*
X546600D02*
Y366700D01*
X547400D01*
Y367100D01*
X547800D01*
Y367900D01*
X547400D01*
Y368300D01*
X546600D01*
Y367900D01*
X546200D01*
Y367100D01*
X546600D01*
Y362100D02*
Y361700D01*
X547400D01*
Y362100D01*
X547800D01*
Y362900D01*
X547400D01*
Y363300D01*
X546600D01*
Y362900D01*
X546200D01*
Y362100D01*
X546600D01*
Y357100D02*
Y356700D01*
X547400D01*
Y357100D01*
X547800D01*
Y357900D01*
X547400D01*
Y358300D01*
X546600D01*
Y357900D01*
X546200D01*
Y357100D01*
X546600D01*
X308100Y306100D02*
Y305700D01*
X308900D01*
Y306100D01*
X309300D01*
Y306900D01*
X308900D01*
Y307300D01*
X308100D01*
Y306900D01*
X307700D01*
Y306100D01*
X308100D01*
X278600Y291600D02*
Y291200D01*
X279400D01*
Y291600D01*
X279800D01*
Y292400D01*
X279400D01*
Y292800D01*
X278600D01*
Y292400D01*
X278200D01*
Y291600D01*
X278600D01*
X286100Y305600D02*
Y305200D01*
X286900D01*
Y305600D01*
X287300D01*
Y306400D01*
X286900D01*
Y306800D01*
X286100D01*
Y306400D01*
X285700D01*
Y305600D01*
X286100D01*
X325600Y357100D02*
Y356700D01*
X326400D01*
Y357100D01*
X326800D01*
Y357900D01*
X326400D01*
Y358300D01*
X325600D01*
Y357900D01*
X325200D01*
Y357100D01*
X325600D01*
X330600D02*
Y356700D01*
X331400D01*
Y357100D01*
X331800D01*
Y357900D01*
X331400D01*
Y358300D01*
X330600D01*
Y357900D01*
X330200D01*
Y357100D01*
X330600D01*
Y362100D02*
Y361700D01*
X331400D01*
Y362100D01*
X331800D01*
Y362900D01*
X331400D01*
Y363300D01*
X330600D01*
Y362900D01*
X330200D01*
Y362100D01*
X330600D01*
Y367100D02*
Y366700D01*
X331400D01*
Y367100D01*
X331800D01*
Y367900D01*
X331400D01*
Y368300D01*
X330600D01*
Y367900D01*
X330200D01*
Y367100D01*
X330600D01*
X342100Y334600D02*
Y334200D01*
X342900D01*
Y334600D01*
X343300D01*
Y335400D01*
X342900D01*
Y335800D01*
X342100D01*
Y335400D01*
X341700D01*
Y334600D01*
X342100D01*
X265100Y357100D02*
Y356700D01*
X265900D01*
Y357100D01*
X266300D01*
Y357900D01*
X265900D01*
Y358300D01*
X265100D01*
Y357900D01*
X264700D01*
Y357100D01*
X265100D01*
Y362100D02*
Y361700D01*
X265900D01*
Y362100D01*
X266300D01*
Y362900D01*
X265900D01*
Y363300D01*
X265100D01*
Y362900D01*
X264700D01*
Y362100D01*
X265100D01*
X270100Y357100D02*
Y356700D01*
X270900D01*
Y357100D01*
X271300D01*
Y357900D01*
X270900D01*
Y358300D01*
X270100D01*
Y357900D01*
X269700D01*
Y357100D01*
X270100D01*
X265100Y367100D02*
Y366700D01*
X265900D01*
Y367100D01*
X266300D01*
Y367900D01*
X265900D01*
Y368300D01*
X265100D01*
Y367900D01*
X264700D01*
Y367100D01*
X265100D01*
X270100Y362100D02*
Y361700D01*
X270900D01*
Y362100D01*
X271300D01*
Y362900D01*
X270900D01*
Y363300D01*
X270100D01*
Y362900D01*
X269700D01*
Y362100D01*
X270100D01*
Y367100D02*
Y366700D01*
X270900D01*
Y367100D01*
X271300D01*
Y367900D01*
X270900D01*
Y368300D01*
X270100D01*
Y367900D01*
X269700D01*
Y367100D01*
X270100D01*
X275100Y357100D02*
Y356700D01*
X275900D01*
Y357100D01*
X276300D01*
Y357900D01*
X275900D01*
Y358300D01*
X275100D01*
Y357900D01*
X274700D01*
Y357100D01*
X275100D01*
Y367100D02*
Y366700D01*
X275900D01*
Y367100D01*
X276300D01*
Y367900D01*
X275900D01*
Y368300D01*
X275100D01*
Y367900D01*
X274700D01*
Y367100D01*
X275100D01*
Y362100D02*
Y361700D01*
X275900D01*
Y362100D01*
X276300D01*
Y362900D01*
X275900D01*
Y363300D01*
X275100D01*
Y362900D01*
X274700D01*
Y362100D01*
X275100D01*
X489100Y306100D02*
Y305700D01*
X489900D01*
Y306100D01*
X490300D01*
Y306900D01*
X489900D01*
Y307300D01*
X489100D01*
Y306900D01*
X488700D01*
Y306100D01*
X489100D01*
X459600Y291600D02*
Y291200D01*
X460400D01*
Y291600D01*
X460800D01*
Y292400D01*
X460400D01*
Y292800D01*
X459600D01*
Y292400D01*
X459200D01*
Y291600D01*
X459600D01*
X467100Y305600D02*
Y305200D01*
X467900D01*
Y305600D01*
X468300D01*
Y306400D01*
X467900D01*
Y306800D01*
X467100D01*
Y306400D01*
X466700D01*
Y305600D01*
X467100D01*
X501600Y357100D02*
Y356700D01*
X502400D01*
Y357100D01*
X502800D01*
Y357900D01*
X502400D01*
Y358300D01*
X501600D01*
Y357900D01*
X501200D01*
Y357100D01*
X501600D01*
Y362100D02*
Y361700D01*
X502400D01*
Y362100D01*
X502800D01*
Y362900D01*
X502400D01*
Y363300D01*
X501600D01*
Y362900D01*
X501200D01*
Y362100D01*
X501600D01*
X506600Y357100D02*
Y356700D01*
X507400D01*
Y357100D01*
X507800D01*
Y357900D01*
X507400D01*
Y358300D01*
X506600D01*
Y357900D01*
X506200D01*
Y357100D01*
X506600D01*
X511600D02*
Y356700D01*
X512400D01*
Y357100D01*
X512800D01*
Y357900D01*
X512400D01*
Y358300D01*
X511600D01*
Y357900D01*
X511200D01*
Y357100D01*
X511600D01*
X506600Y362100D02*
Y361700D01*
X507400D01*
Y362100D01*
X507800D01*
Y362900D01*
X507400D01*
Y363300D01*
X506600D01*
Y362900D01*
X506200D01*
Y362100D01*
X506600D01*
X511600D02*
Y361700D01*
X512400D01*
Y362100D01*
X512800D01*
Y362900D01*
X512400D01*
Y363300D01*
X511600D01*
Y362900D01*
X511200D01*
Y362100D01*
X511600D01*
X501600Y367100D02*
Y366700D01*
X502400D01*
Y367100D01*
X502800D01*
Y367900D01*
X502400D01*
Y368300D01*
X501600D01*
Y367900D01*
X501200D01*
Y367100D01*
X501600D01*
X506600D02*
Y366700D01*
X507400D01*
Y367100D01*
X507800D01*
Y367900D01*
X507400D01*
Y368300D01*
X506600D01*
Y367900D01*
X506200D01*
Y367100D01*
X506600D01*
X511600D02*
Y366700D01*
X512400D01*
Y367100D01*
X512800D01*
Y367900D01*
X512400D01*
Y368300D01*
X511600D01*
Y367900D01*
X511200D01*
Y367100D01*
X511600D01*
X523100Y334600D02*
Y334200D01*
X523900D01*
Y334600D01*
X524300D01*
Y335400D01*
X523900D01*
Y335800D01*
X523100D01*
Y335400D01*
X522700D01*
Y334600D01*
X523100D01*
X451100Y357100D02*
Y356700D01*
X451900D01*
Y357100D01*
X452300D01*
Y357900D01*
X451900D01*
Y358300D01*
X451100D01*
Y357900D01*
X450700D01*
Y357100D01*
X451100D01*
X398600Y306100D02*
Y305700D01*
X399400D01*
Y306100D01*
X399800D01*
Y306900D01*
X399400D01*
Y307300D01*
X398600D01*
Y306900D01*
X398200D01*
Y306100D01*
X398600D01*
X369100Y291600D02*
Y291200D01*
X369900D01*
Y291600D01*
X370300D01*
Y292400D01*
X369900D01*
Y292800D01*
X369100D01*
Y292400D01*
X368700D01*
Y291600D01*
X369100D01*
X376600Y305600D02*
Y305200D01*
X377400D01*
Y305600D01*
X377800D01*
Y306400D01*
X377400D01*
Y306800D01*
X376600D01*
Y306400D01*
X376200D01*
Y305600D01*
X376600D01*
X411100Y357100D02*
Y356700D01*
X411900D01*
Y357100D01*
X412300D01*
Y357900D01*
X411900D01*
Y358300D01*
X411100D01*
Y357900D01*
X410700D01*
Y357100D01*
X411100D01*
Y362100D02*
Y361700D01*
X411900D01*
Y362100D01*
X412300D01*
Y362900D01*
X411900D01*
Y363300D01*
X411100D01*
Y362900D01*
X410700D01*
Y362100D01*
X411100D01*
X416100Y357100D02*
Y356700D01*
X416900D01*
Y357100D01*
X417300D01*
Y357900D01*
X416900D01*
Y358300D01*
X416100D01*
Y357900D01*
X415700D01*
Y357100D01*
X416100D01*
X421100D02*
Y356700D01*
X421900D01*
Y357100D01*
X422300D01*
Y357900D01*
X421900D01*
Y358300D01*
X421100D01*
Y357900D01*
X420700D01*
Y357100D01*
X421100D01*
X416100Y362100D02*
Y361700D01*
X416900D01*
Y362100D01*
X417300D01*
Y362900D01*
X416900D01*
Y363300D01*
X416100D01*
Y362900D01*
X415700D01*
Y362100D01*
X416100D01*
X421100D02*
Y361700D01*
X421900D01*
Y362100D01*
X422300D01*
Y362900D01*
X421900D01*
Y363300D01*
X421100D01*
Y362900D01*
X420700D01*
Y362100D01*
X421100D01*
X411100Y367100D02*
Y366700D01*
X411900D01*
Y367100D01*
X412300D01*
Y367900D01*
X411900D01*
Y368300D01*
X411100D01*
Y367900D01*
X410700D01*
Y367100D01*
X411100D01*
X416100D02*
Y366700D01*
X416900D01*
Y367100D01*
X417300D01*
Y367900D01*
X416900D01*
Y368300D01*
X416100D01*
Y367900D01*
X415700D01*
Y367100D01*
X416100D01*
X421100D02*
Y366700D01*
X421900D01*
Y367100D01*
X422300D01*
Y367900D01*
X421900D01*
Y368300D01*
X421100D01*
Y367900D01*
X420700D01*
Y367100D01*
X421100D01*
X432600Y334600D02*
Y334200D01*
X433400D01*
Y334600D01*
X433800D01*
Y335400D01*
X433400D01*
Y335800D01*
X432600D01*
Y335400D01*
X432200D01*
Y334600D01*
X432600D01*
X355600Y357100D02*
Y356700D01*
X356400D01*
Y357100D01*
X356800D01*
Y357900D01*
X356400D01*
Y358300D01*
X355600D01*
Y357900D01*
X355200D01*
Y357100D01*
X355600D01*
Y367100D02*
Y366700D01*
X356400D01*
Y367100D01*
X356800D01*
Y367900D01*
X356400D01*
Y368300D01*
X355600D01*
Y367900D01*
X355200D01*
Y367100D01*
X355600D01*
Y362100D02*
Y361700D01*
X356400D01*
Y362100D01*
X356800D01*
Y362900D01*
X356400D01*
Y363300D01*
X355600D01*
Y362900D01*
X355200D01*
Y362100D01*
X355600D01*
X360600Y367100D02*
Y366700D01*
X361400D01*
Y367100D01*
X361800D01*
Y367900D01*
X361400D01*
Y368300D01*
X360600D01*
Y367900D01*
X360200D01*
Y367100D01*
X360600D01*
Y357100D02*
Y356700D01*
X361400D01*
Y357100D01*
X361800D01*
Y357900D01*
X361400D01*
Y358300D01*
X360600D01*
Y357900D01*
X360200D01*
Y357100D01*
X360600D01*
X365600D02*
Y356700D01*
X366400D01*
Y357100D01*
X366800D01*
Y357900D01*
X366400D01*
Y358300D01*
X365600D01*
Y357900D01*
X365200D01*
Y357100D01*
X365600D01*
X360600Y362100D02*
Y361700D01*
X361400D01*
Y362100D01*
X361800D01*
Y362900D01*
X361400D01*
Y363300D01*
X360600D01*
Y362900D01*
X360200D01*
Y362100D01*
X360600D01*
X365600Y367100D02*
Y366700D01*
X366400D01*
Y367100D01*
X366800D01*
Y367900D01*
X366400D01*
Y368300D01*
X365600D01*
Y367900D01*
X365200D01*
Y367100D01*
X365600D01*
Y362100D02*
Y361700D01*
X366400D01*
Y362100D01*
X366800D01*
Y362900D01*
X366400D01*
Y363300D01*
X365600D01*
Y362900D01*
X365200D01*
Y362100D01*
X365600D01*
X471600Y231100D02*
Y230700D01*
X472400D01*
Y231100D01*
X472800D01*
Y231900D01*
X472400D01*
Y232300D01*
X471600D01*
Y231900D01*
X471200D01*
Y231100D01*
X471600D01*
X501100Y245600D02*
Y245200D01*
X501900D01*
Y245600D01*
X502300D01*
Y246400D01*
X501900D01*
Y246800D01*
X501100D01*
Y246400D01*
X500700D01*
Y245600D01*
X501100D01*
X493600Y231600D02*
Y231200D01*
X494400D01*
Y231600D01*
X494800D01*
Y232400D01*
X494400D01*
Y232800D01*
X493600D01*
Y232400D01*
X493200D01*
Y231600D01*
X493600D01*
X459100Y180100D02*
Y179700D01*
X459900D01*
Y180100D01*
X460300D01*
Y180900D01*
X459900D01*
Y181300D01*
X459100D01*
Y180900D01*
X458700D01*
Y180100D01*
X459100D01*
X449100D02*
Y179700D01*
X449900D01*
Y180100D01*
X450300D01*
Y180900D01*
X449900D01*
Y181300D01*
X449100D01*
Y180900D01*
X448700D01*
Y180100D01*
X449100D01*
X454100Y175100D02*
Y174700D01*
X454900D01*
Y175100D01*
X455300D01*
Y175900D01*
X454900D01*
Y176300D01*
X454100D01*
Y175900D01*
X453700D01*
Y175100D01*
X454100D01*
X459100Y170100D02*
Y169700D01*
X459900D01*
Y170100D01*
X460300D01*
Y170900D01*
X459900D01*
Y171300D01*
X459100D01*
Y170900D01*
X458700D01*
Y170100D01*
X459100D01*
X449100D02*
Y169700D01*
X449900D01*
Y170100D01*
X450300D01*
Y170900D01*
X449900D01*
Y171300D01*
X449100D01*
Y170900D01*
X448700D01*
Y170100D01*
X449100D01*
X437600Y202600D02*
Y202200D01*
X438400D01*
Y202600D01*
X438800D01*
Y203400D01*
X438400D01*
Y203800D01*
X437600D01*
Y203400D01*
X437200D01*
Y202600D01*
X437600D01*
X514600Y180100D02*
Y179700D01*
X515400D01*
Y180100D01*
X515800D01*
Y180900D01*
X515400D01*
Y181300D01*
X514600D01*
Y180900D01*
X514200D01*
Y180100D01*
X514600D01*
X509600D02*
Y179700D01*
X510400D01*
Y180100D01*
X510800D01*
Y180900D01*
X510400D01*
Y181300D01*
X509600D01*
Y180900D01*
X509200D01*
Y180100D01*
X509600D01*
X514600Y175100D02*
Y174700D01*
X515400D01*
Y175100D01*
X515800D01*
Y175900D01*
X515400D01*
Y176300D01*
X514600D01*
Y175900D01*
X514200D01*
Y175100D01*
X514600D01*
X509600D02*
Y174700D01*
X510400D01*
Y175100D01*
X510800D01*
Y175900D01*
X510400D01*
Y176300D01*
X509600D01*
Y175900D01*
X509200D01*
Y175100D01*
X509600D01*
X514600Y170100D02*
Y169700D01*
X515400D01*
Y170100D01*
X515800D01*
Y170900D01*
X515400D01*
Y171300D01*
X514600D01*
Y170900D01*
X514200D01*
Y170100D01*
X514600D01*
X509600D02*
Y169700D01*
X510400D01*
Y170100D01*
X510800D01*
Y170900D01*
X510400D01*
Y171300D01*
X509600D01*
Y170900D01*
X509200D01*
Y170100D01*
X509600D01*
X504600Y175100D02*
Y174700D01*
X505400D01*
Y175100D01*
X505800D01*
Y175900D01*
X505400D01*
Y176300D01*
X504600D01*
Y175900D01*
X504200D01*
Y175100D01*
X504600D01*
Y180100D02*
Y179700D01*
X505400D01*
Y180100D01*
X505800D01*
Y180900D01*
X505400D01*
Y181300D01*
X504600D01*
Y180900D01*
X504200D01*
Y180100D01*
X504600D01*
Y170100D02*
Y169700D01*
X505400D01*
Y170100D01*
X505800D01*
Y170900D01*
X505400D01*
Y171300D01*
X504600D01*
Y170900D01*
X504200D01*
Y170100D01*
X504600D01*
X562100Y231100D02*
Y230700D01*
X562900D01*
Y231100D01*
X563300D01*
Y231900D01*
X562900D01*
Y232300D01*
X562100D01*
Y231900D01*
X561700D01*
Y231100D01*
X562100D01*
X591600Y245600D02*
Y245200D01*
X592400D01*
Y245600D01*
X592800D01*
Y246400D01*
X592400D01*
Y246800D01*
X591600D01*
Y246400D01*
X591200D01*
Y245600D01*
X591600D01*
X584100Y231600D02*
Y231200D01*
X584900D01*
Y231600D01*
X585300D01*
Y232400D01*
X584900D01*
Y232800D01*
X584100D01*
Y232400D01*
X583700D01*
Y231600D01*
X584100D01*
X549600Y180100D02*
Y179700D01*
X550400D01*
Y180100D01*
X550800D01*
Y180900D01*
X550400D01*
Y181300D01*
X549600D01*
Y180900D01*
X549200D01*
Y180100D01*
X549600D01*
X539600D02*
Y179700D01*
X540400D01*
Y180100D01*
X540800D01*
Y180900D01*
X540400D01*
Y181300D01*
X539600D01*
Y180900D01*
X539200D01*
Y180100D01*
X539600D01*
X544600Y175100D02*
Y174700D01*
X545400D01*
Y175100D01*
X545800D01*
Y175900D01*
X545400D01*
Y176300D01*
X544600D01*
Y175900D01*
X544200D01*
Y175100D01*
X544600D01*
X539600Y170100D02*
Y169700D01*
X540400D01*
Y170100D01*
X540800D01*
Y170900D01*
X540400D01*
Y171300D01*
X539600D01*
Y170900D01*
X539200D01*
Y170100D01*
X539600D01*
X528100Y202600D02*
Y202200D01*
X528900D01*
Y202600D01*
X529300D01*
Y203400D01*
X528900D01*
Y203800D01*
X528100D01*
Y203400D01*
X527700D01*
Y202600D01*
X528100D01*
X605100Y180100D02*
Y179700D01*
X605900D01*
Y180100D01*
X606300D01*
Y180900D01*
X605900D01*
Y181300D01*
X605100D01*
Y180900D01*
X604700D01*
Y180100D01*
X605100D01*
Y175100D02*
Y174700D01*
X605900D01*
Y175100D01*
X606300D01*
Y175900D01*
X605900D01*
Y176300D01*
X605100D01*
Y175900D01*
X604700D01*
Y175100D01*
X605100D01*
X600100Y180100D02*
Y179700D01*
X600900D01*
Y180100D01*
X601300D01*
Y180900D01*
X600900D01*
Y181300D01*
X600100D01*
Y180900D01*
X599700D01*
Y180100D01*
X600100D01*
X595100D02*
Y179700D01*
X595900D01*
Y180100D01*
X596300D01*
Y180900D01*
X595900D01*
Y181300D01*
X595100D01*
Y180900D01*
X594700D01*
Y180100D01*
X595100D01*
X600100Y170100D02*
Y169700D01*
X600900D01*
Y170100D01*
X601300D01*
Y170900D01*
X600900D01*
Y171300D01*
X600100D01*
Y170900D01*
X599700D01*
Y170100D01*
X600100D01*
Y175100D02*
Y174700D01*
X600900D01*
Y175100D01*
X601300D01*
Y175900D01*
X600900D01*
Y176300D01*
X600100D01*
Y175900D01*
X599700D01*
Y175100D01*
X600100D01*
X605100Y170100D02*
Y169700D01*
X605900D01*
Y170100D01*
X606300D01*
Y170900D01*
X605900D01*
Y171300D01*
X605100D01*
Y170900D01*
X604700D01*
Y170100D01*
X605100D01*
X595100D02*
Y169700D01*
X595900D01*
Y170100D01*
X596300D01*
Y170900D01*
X595900D01*
Y171300D01*
X595100D01*
Y170900D01*
X594700D01*
Y170100D01*
X595100D01*
X290600Y231100D02*
Y230700D01*
X291400D01*
Y231100D01*
X291800D01*
Y231900D01*
X291400D01*
Y232300D01*
X290600D01*
Y231900D01*
X290200D01*
Y231100D01*
X290600D01*
X320100Y245600D02*
Y245200D01*
X320900D01*
Y245600D01*
X321300D01*
Y246400D01*
X320900D01*
Y246800D01*
X320100D01*
Y246400D01*
X319700D01*
Y245600D01*
X320100D01*
X312600Y231600D02*
Y231200D01*
X313400D01*
Y231600D01*
X313800D01*
Y232400D01*
X313400D01*
Y232800D01*
X312600D01*
Y232400D01*
X312200D01*
Y231600D01*
X312600D01*
X278100Y180100D02*
Y179700D01*
X278900D01*
Y180100D01*
X279300D01*
Y180900D01*
X278900D01*
Y181300D01*
X278100D01*
Y180900D01*
X277700D01*
Y180100D01*
X278100D01*
Y175100D02*
Y174700D01*
X278900D01*
Y175100D01*
X279300D01*
Y175900D01*
X278900D01*
Y176300D01*
X278100D01*
Y175900D01*
X277700D01*
Y175100D01*
X278100D01*
X273100Y180100D02*
Y179700D01*
X273900D01*
Y180100D01*
X274300D01*
Y180900D01*
X273900D01*
Y181300D01*
X273100D01*
Y180900D01*
X272700D01*
Y180100D01*
X273100D01*
X268100D02*
Y179700D01*
X268900D01*
Y180100D01*
X269300D01*
Y180900D01*
X268900D01*
Y181300D01*
X268100D01*
Y180900D01*
X267700D01*
Y180100D01*
X268100D01*
X273100Y175100D02*
Y174700D01*
X273900D01*
Y175100D01*
X274300D01*
Y175900D01*
X273900D01*
Y176300D01*
X273100D01*
Y175900D01*
X272700D01*
Y175100D01*
X273100D01*
X268100D02*
Y174700D01*
X268900D01*
Y175100D01*
X269300D01*
Y175900D01*
X268900D01*
Y176300D01*
X268100D01*
Y175900D01*
X267700D01*
Y175100D01*
X268100D01*
X278100Y170100D02*
Y169700D01*
X278900D01*
Y170100D01*
X279300D01*
Y170900D01*
X278900D01*
Y171300D01*
X278100D01*
Y170900D01*
X277700D01*
Y170100D01*
X278100D01*
X273100D02*
Y169700D01*
X273900D01*
Y170100D01*
X274300D01*
Y170900D01*
X273900D01*
Y171300D01*
X273100D01*
Y170900D01*
X272700D01*
Y170100D01*
X273100D01*
X268100D02*
Y169700D01*
X268900D01*
Y170100D01*
X269300D01*
Y170900D01*
X268900D01*
Y171300D01*
X268100D01*
Y170900D01*
X267700D01*
Y170100D01*
X268100D01*
X256600Y202600D02*
Y202200D01*
X257400D01*
Y202600D01*
X257800D01*
Y203400D01*
X257400D01*
Y203800D01*
X256600D01*
Y203400D01*
X256200D01*
Y202600D01*
X256600D01*
X333600Y180100D02*
Y179700D01*
X334400D01*
Y180100D01*
X334800D01*
Y180900D01*
X334400D01*
Y181300D01*
X333600D01*
Y180900D01*
X333200D01*
Y180100D01*
X333600D01*
X328600D02*
Y179700D01*
X329400D01*
Y180100D01*
X329800D01*
Y180900D01*
X329400D01*
Y181300D01*
X328600D01*
Y180900D01*
X328200D01*
Y180100D01*
X328600D01*
X333600Y175100D02*
Y174700D01*
X334400D01*
Y175100D01*
X334800D01*
Y175900D01*
X334400D01*
Y176300D01*
X333600D01*
Y175900D01*
X333200D01*
Y175100D01*
X333600D01*
X323600Y180100D02*
Y179700D01*
X324400D01*
Y180100D01*
X324800D01*
Y180900D01*
X324400D01*
Y181300D01*
X323600D01*
Y180900D01*
X323200D01*
Y180100D01*
X323600D01*
X333600Y170100D02*
Y169700D01*
X334400D01*
Y170100D01*
X334800D01*
Y170900D01*
X334400D01*
Y171300D01*
X333600D01*
Y170900D01*
X333200D01*
Y170100D01*
X333600D01*
X328600Y175100D02*
Y174700D01*
X329400D01*
Y175100D01*
X329800D01*
Y175900D01*
X329400D01*
Y176300D01*
X328600D01*
Y175900D01*
X328200D01*
Y175100D01*
X328600D01*
Y170100D02*
Y169700D01*
X329400D01*
Y170100D01*
X329800D01*
Y170900D01*
X329400D01*
Y171300D01*
X328600D01*
Y170900D01*
X328200D01*
Y170100D01*
X328600D01*
X323600Y175100D02*
Y174700D01*
X324400D01*
Y175100D01*
X324800D01*
Y175900D01*
X324400D01*
Y176300D01*
X323600D01*
Y175900D01*
X323200D01*
Y175100D01*
X323600D01*
Y170100D02*
Y169700D01*
X324400D01*
Y170100D01*
X324800D01*
Y170900D01*
X324400D01*
Y171300D01*
X323600D01*
Y170900D01*
X323200D01*
Y170100D01*
X323600D01*
X414100Y180100D02*
Y179700D01*
X414900D01*
Y180100D01*
X415300D01*
Y180900D01*
X414900D01*
Y181300D01*
X414100D01*
Y180900D01*
X413700D01*
Y180100D01*
X414100D01*
X419100D02*
Y179700D01*
X419900D01*
Y180100D01*
X420300D01*
Y180900D01*
X419900D01*
Y181300D01*
X419100D01*
Y180900D01*
X418700D01*
Y180100D01*
X419100D01*
Y175100D02*
Y174700D01*
X419900D01*
Y175100D01*
X420300D01*
Y175900D01*
X419900D01*
Y176300D01*
X419100D01*
Y175900D01*
X418700D01*
Y175100D01*
X419100D01*
X414100D02*
Y174700D01*
X414900D01*
Y175100D01*
X415300D01*
Y175900D01*
X414900D01*
Y176300D01*
X414100D01*
Y175900D01*
X413700D01*
Y175100D01*
X414100D01*
Y170100D02*
Y169700D01*
X414900D01*
Y170100D01*
X415300D01*
Y170900D01*
X414900D01*
Y171300D01*
X414100D01*
Y170900D01*
X413700D01*
Y170100D01*
X414100D01*
X419100D02*
Y169700D01*
X419900D01*
Y170100D01*
X420300D01*
Y170900D01*
X419900D01*
Y171300D01*
X419100D01*
Y170900D01*
X418700D01*
Y170100D01*
X419100D01*
X424100D02*
Y169700D01*
X424900D01*
Y170100D01*
X425300D01*
Y170900D01*
X424900D01*
Y171300D01*
X424100D01*
Y170900D01*
X423700D01*
Y170100D01*
X424100D01*
Y175100D02*
Y174700D01*
X424900D01*
Y175100D01*
X425300D01*
Y175900D01*
X424900D01*
Y176300D01*
X424100D01*
Y175900D01*
X423700D01*
Y175100D01*
X424100D01*
Y180100D02*
Y179700D01*
X424900D01*
Y180100D01*
X425300D01*
Y180900D01*
X424900D01*
Y181300D01*
X424100D01*
Y180900D01*
X423700D01*
Y180100D01*
X424100D01*
X358600D02*
Y179700D01*
X359400D01*
Y180100D01*
X359800D01*
Y180900D01*
X359400D01*
Y181300D01*
X358600D01*
Y180900D01*
X358200D01*
Y180100D01*
X358600D01*
X363600D02*
Y179700D01*
X364400D01*
Y180100D01*
X364800D01*
Y180900D01*
X364400D01*
Y181300D01*
X363600D01*
Y180900D01*
X363200D01*
Y180100D01*
X363600D01*
Y175100D02*
Y174700D01*
X364400D01*
Y175100D01*
X364800D01*
Y175900D01*
X364400D01*
Y176300D01*
X363600D01*
Y175900D01*
X363200D01*
Y175100D01*
X363600D01*
X358600D02*
Y174700D01*
X359400D01*
Y175100D01*
X359800D01*
Y175900D01*
X359400D01*
Y176300D01*
X358600D01*
Y175900D01*
X358200D01*
Y175100D01*
X358600D01*
Y170100D02*
Y169700D01*
X359400D01*
Y170100D01*
X359800D01*
Y170900D01*
X359400D01*
Y171300D01*
X358600D01*
Y170900D01*
X358200D01*
Y170100D01*
X358600D01*
X363600D02*
Y169700D01*
X364400D01*
Y170100D01*
X364800D01*
Y170900D01*
X364400D01*
Y171300D01*
X363600D01*
Y170900D01*
X363200D01*
Y170100D01*
X363600D01*
X368600D02*
Y169700D01*
X369400D01*
Y170100D01*
X369800D01*
Y170900D01*
X369400D01*
Y171300D01*
X368600D01*
Y170900D01*
X368200D01*
Y170100D01*
X368600D01*
Y175100D02*
Y174700D01*
X369400D01*
Y175100D01*
X369800D01*
Y175900D01*
X369400D01*
Y176300D01*
X368600D01*
Y175900D01*
X368200D01*
Y175100D01*
X368600D01*
Y180100D02*
Y179700D01*
X369400D01*
Y180100D01*
X369800D01*
Y180900D01*
X369400D01*
Y181300D01*
X368600D01*
Y180900D01*
X368200D01*
Y180100D01*
X368600D01*
X410600Y245600D02*
Y245200D01*
X411400D01*
Y245600D01*
X411800D01*
Y246400D01*
X411400D01*
Y246800D01*
X410600D01*
Y246400D01*
X410200D01*
Y245600D01*
X410600D01*
X403100Y231600D02*
Y231200D01*
X403900D01*
Y231600D01*
X404300D01*
Y232400D01*
X403900D01*
Y232800D01*
X403100D01*
Y232400D01*
X402700D01*
Y231600D01*
X403100D01*
X381100Y231100D02*
Y230700D01*
X381900D01*
Y231100D01*
X382300D01*
Y231900D01*
X381900D01*
Y232300D01*
X381100D01*
Y231900D01*
X380700D01*
Y231100D01*
X381100D01*
X347100Y202600D02*
Y202200D01*
X347900D01*
Y202600D01*
X348300D01*
Y203400D01*
X347900D01*
Y203800D01*
X347100D01*
Y203400D01*
X346700D01*
Y202600D01*
X347100D01*
D17*
X437190Y402689D02*
G03*
X437190Y402689I-800J0D01*
G01*
M02*
