G04*
G04 #@! TF.GenerationSoftware,Altium Limited,Altium Designer,20.0.2 (26)*
G04*
G04 Layer_Physical_Order=2*
G04 Layer_Color=36540*
%FSLAX25Y25*%
%MOIN*%
G70*
G01*
G75*
%ADD35C,0.02800*%
%ADD51C,0.05906*%
%ADD52R,0.05906X0.05906*%
%ADD53R,0.07874X0.14173*%
%ADD54R,0.14173X0.07874*%
%ADD55R,0.10236X0.10236*%
%ADD56C,0.10236*%
%ADD57C,0.07874*%
%ADD58R,0.07874X0.07874*%
%ADD59R,0.05906X0.05906*%
%ADD60R,0.11811X0.11811*%
G36*
X610000Y422500D02*
X610542Y422500D01*
X611604Y422289D01*
X612605Y421874D01*
X613506Y421272D01*
X614272Y420506D01*
X614874Y419605D01*
X615289Y418604D01*
X615500Y417542D01*
X615500Y417000D01*
X615500Y417000D01*
X615500Y417000D01*
X615500Y354270D01*
X615622Y353908D01*
X615691Y353150D01*
X615582Y352395D01*
X615301Y351687D01*
X614862Y351063D01*
X614291Y350558D01*
X613619Y350200D01*
X612986Y350035D01*
X612500Y350000D01*
X612500Y350000D01*
X612500Y350000D01*
X588000Y349500D01*
X587602D01*
X586867Y349804D01*
X586305Y350367D01*
X586000Y351102D01*
Y351500D01*
Y367500D01*
Y368189D01*
X586269Y369542D01*
X586797Y370816D01*
X587563Y371962D01*
X588538Y372937D01*
X589684Y373703D01*
X590958Y374231D01*
X592311Y374500D01*
X593000D01*
X593488Y374548D01*
X594389Y374921D01*
X595079Y375611D01*
X595452Y376512D01*
X595500Y377000D01*
Y418000D01*
X595500Y418443D01*
X595673Y419313D01*
X596012Y420131D01*
X596505Y420869D01*
X597131Y421495D01*
X597868Y421988D01*
X598687Y422327D01*
X599557Y422500D01*
X600000Y422500D01*
X600000Y422500D01*
X610000Y422500D01*
D02*
G37*
G36*
X418500D02*
X419485Y422500D01*
X421417Y422116D01*
X423237Y421362D01*
X424875Y420267D01*
X426267Y418875D01*
X427362Y417237D01*
X428116Y415417D01*
X428500Y413485D01*
X428500Y412500D01*
X428500Y412500D01*
X428500Y412500D01*
X428500Y352500D01*
X428500Y352003D01*
X428119Y351084D01*
X427416Y350380D01*
X426497Y350000D01*
X426000Y350000D01*
X426000Y350000D01*
Y350000D01*
X409500D01*
X409057Y350000D01*
X408187Y350173D01*
X407368Y350512D01*
X406631Y351005D01*
X406005Y351631D01*
X405512Y352368D01*
X405173Y353187D01*
X405000Y354057D01*
X405000Y354500D01*
X405000Y354500D01*
Y384000D01*
X404952Y384980D01*
X404569Y386903D01*
X403819Y388714D01*
X402730Y390344D01*
X401344Y391730D01*
X399714Y392819D01*
X397903Y393569D01*
X396698Y393809D01*
X396835Y394500D01*
X396696Y395202D01*
X396298Y395798D01*
X395702Y396196D01*
X395000Y396335D01*
X394298Y396196D01*
X393702Y395798D01*
X393304Y395202D01*
X393165Y394500D01*
X393187Y394387D01*
X392870Y394000D01*
X392130D01*
X391813Y394387D01*
X391835Y394500D01*
X391696Y395202D01*
X391298Y395798D01*
X390702Y396196D01*
X390000Y396335D01*
X389298Y396196D01*
X388702Y395798D01*
X388304Y395202D01*
X388165Y394500D01*
X388187Y394387D01*
X387870Y394000D01*
X387130D01*
X386813Y394387D01*
X386835Y394500D01*
X386696Y395202D01*
X386298Y395798D01*
X385702Y396196D01*
X385000Y396335D01*
X384298Y396196D01*
X383702Y395798D01*
X383304Y395202D01*
X383165Y394500D01*
X383187Y394387D01*
X382870Y394000D01*
X382130D01*
X381813Y394387D01*
X381835Y394500D01*
X381696Y395202D01*
X381298Y395798D01*
X380702Y396196D01*
X380000Y396335D01*
X379298Y396196D01*
X378702Y395798D01*
X378304Y395202D01*
X378165Y394500D01*
X378187Y394387D01*
X377870Y394000D01*
X344736D01*
X344696Y394202D01*
X344298Y394798D01*
X343702Y395196D01*
X343000Y395335D01*
X342298Y395196D01*
X341702Y394798D01*
X341304Y394202D01*
X341264Y394000D01*
X340236D01*
X340196Y394202D01*
X339798Y394798D01*
X339202Y395196D01*
X338500Y395335D01*
X337798Y395196D01*
X337202Y394798D01*
X336804Y394202D01*
X336764Y394000D01*
X334736D01*
X334696Y394202D01*
X334298Y394798D01*
X333702Y395196D01*
X333000Y395335D01*
X332298Y395196D01*
X331702Y394798D01*
X331304Y394202D01*
X331264Y394000D01*
X329736D01*
X329696Y394202D01*
X329298Y394798D01*
X328702Y395196D01*
X328000Y395335D01*
X327298Y395196D01*
X326702Y394798D01*
X326304Y394202D01*
X326264Y394000D01*
X287000D01*
X286064Y394000D01*
X284229Y394365D01*
X282500Y395081D01*
X280944Y396121D01*
X279621Y397444D01*
X278581Y399000D01*
X277865Y400729D01*
X277500Y402564D01*
X277500Y403500D01*
X277500Y403500D01*
Y418000D01*
Y418443D01*
X277673Y419313D01*
X278012Y420131D01*
X278505Y420868D01*
X279131Y421495D01*
X279868Y421988D01*
X280687Y422327D01*
X281557Y422500D01*
X282000Y422500D01*
X282000Y422500D01*
X418500Y422500D01*
D02*
G37*
G36*
X588591D02*
X589131Y422500D01*
X590190Y422289D01*
X591188Y421876D01*
X592086Y421276D01*
X592850Y420512D01*
X593450Y419614D01*
X593863Y418616D01*
X594074Y417557D01*
X594074Y417017D01*
X594074Y417017D01*
X594074Y417017D01*
Y377500D01*
X590423D01*
X589894Y377156D01*
X588849Y376738D01*
X587743Y376532D01*
X586618Y376546D01*
X585517Y376778D01*
X585000Y377000D01*
X529000D01*
X529000Y377000D01*
X528020Y376952D01*
X526097Y376569D01*
X524286Y375819D01*
X522656Y374730D01*
X521270Y373344D01*
X520181Y371714D01*
X519431Y369903D01*
X519048Y367980D01*
X519000Y367000D01*
Y353500D01*
X519000Y353500D01*
X519000Y353155D01*
X518865Y352479D01*
X518602Y351842D01*
X518219Y351269D01*
X517731Y350781D01*
X517158Y350398D01*
X516521Y350134D01*
X515845Y350000D01*
X515500Y350000D01*
X498000Y350000D01*
Y379500D01*
X573000Y379897D01*
Y417000D01*
Y417542D01*
X573211Y418604D01*
X573626Y419605D01*
X574228Y420506D01*
X574994Y421272D01*
X575895Y421874D01*
X576896Y422289D01*
X577958Y422500D01*
X578500Y422500D01*
X578500Y422500D01*
X588591Y422500D01*
D02*
G37*
G36*
X493008Y389000D02*
X493008Y388360D01*
X492758Y387104D01*
X492268Y385921D01*
X491557Y384856D01*
X490651Y383951D01*
X489586Y383240D01*
X488404Y382750D01*
X487148Y382500D01*
X486508Y382500D01*
X446000D01*
Y409000D01*
X447477D01*
X448138Y408646D01*
X449327Y408286D01*
X450563Y408164D01*
X458437D01*
X459673Y408286D01*
X460862Y408646D01*
X461523Y409000D01*
X493008D01*
Y389000D01*
D02*
G37*
G36*
X572505Y422321D02*
X573369Y420000D01*
X573266Y419846D01*
X573257Y419802D01*
X573226Y419771D01*
X572811Y418770D01*
Y418726D01*
X572787Y418689D01*
X572575Y417626D01*
X572584Y417583D01*
X572567Y417542D01*
Y417000D01*
Y380328D01*
X497998Y379933D01*
X497846Y379869D01*
X497694Y379806D01*
X497693Y379805D01*
X497692Y379804D01*
X497630Y379652D01*
X497567Y379500D01*
Y352388D01*
X497567Y350000D01*
X497567Y350000D01*
X497694Y349694D01*
X498000Y349567D01*
X498000Y349567D01*
X500388Y349567D01*
X515500Y349567D01*
X515845Y349567D01*
X515886Y349584D01*
X515929Y349575D01*
X516605Y349710D01*
X516642Y349734D01*
X516686D01*
X517323Y349998D01*
X517355Y350030D01*
X517398Y350038D01*
X517972Y350421D01*
X517996Y350458D01*
X518037Y350475D01*
X518525Y350963D01*
X518542Y351004D01*
X518578Y351028D01*
X518961Y351602D01*
X518970Y351645D01*
X519001Y351676D01*
X519265Y352313D01*
Y352358D01*
X519290Y352395D01*
X519424Y353071D01*
X519416Y353114D01*
X519433Y353155D01*
X519433Y353500D01*
X519433Y353500D01*
Y366989D01*
X519479Y367927D01*
X519847Y369777D01*
X520565Y371509D01*
X521606Y373068D01*
X522932Y374394D01*
X524491Y375435D01*
X526223Y376153D01*
X528073Y376521D01*
X529011Y376567D01*
X584911D01*
X585347Y376380D01*
X585391Y376380D01*
X585427Y376355D01*
X586528Y376122D01*
X587276Y375061D01*
X587203Y372203D01*
X586437Y371056D01*
X586428Y371013D01*
X586397Y370981D01*
X585869Y369707D01*
Y369663D01*
X585844Y369626D01*
X585575Y368274D01*
X585584Y368230D01*
X585567Y368189D01*
Y367500D01*
Y351500D01*
Y351102D01*
X585600Y351023D01*
Y350937D01*
X585905Y350201D01*
X585905Y350201D01*
X585965Y350141D01*
X585998Y350061D01*
X585998Y350061D01*
X586561Y349498D01*
X586641Y349465D01*
X586701Y349405D01*
X587436Y349100D01*
X587523D01*
X587602Y349067D01*
X588000D01*
X588000Y349067D01*
X588004Y349069D01*
X588009Y349067D01*
X612509Y349567D01*
X612520Y349572D01*
X612531Y349568D01*
X613017Y349603D01*
X613054Y349622D01*
X613095Y349616D01*
X613728Y349781D01*
X613770Y349813D01*
X613822Y349818D01*
X614495Y350176D01*
X614528Y350217D01*
X614578Y350234D01*
X615149Y350739D01*
X617192Y350010D01*
X617997Y349683D01*
X618500Y349320D01*
Y338046D01*
X617990Y337669D01*
X615298Y336298D01*
X615161Y336389D01*
X614702Y336696D01*
X614702Y336696D01*
X614000Y336835D01*
X614000Y336835D01*
X613686Y336773D01*
X613686Y336773D01*
X613298Y336696D01*
X613032Y336518D01*
X613032D01*
X612702Y336298D01*
X612525Y336032D01*
Y336032D01*
X612304Y335702D01*
X612165Y335000D01*
X612227Y334686D01*
Y334686D01*
X612304Y334298D01*
X612482Y334032D01*
X612702Y333702D01*
X612968Y333525D01*
X613298Y333304D01*
X614000Y333165D01*
X614000Y333165D01*
X614314Y333227D01*
X614314Y333227D01*
X614702Y333304D01*
X614702Y333304D01*
X614968Y333482D01*
X617120Y332774D01*
X617990Y332331D01*
X618500Y331954D01*
Y295160D01*
X618058Y294786D01*
X615812Y293746D01*
X615500Y293736D01*
X615000Y293835D01*
X615000Y293835D01*
X614686Y293773D01*
X614686Y293773D01*
X614298Y293696D01*
X614298Y293695D01*
X614032Y293518D01*
X613702Y293298D01*
X613525Y293032D01*
X613305Y292702D01*
X613304Y292702D01*
X613165Y292000D01*
X613165Y292000D01*
X613227Y291687D01*
X613227Y291686D01*
X613304Y291298D01*
X613616Y289500D01*
X613304Y287702D01*
X613242Y287389D01*
X613165Y287000D01*
X613227Y286686D01*
X613304Y286298D01*
X613616Y284500D01*
X613304Y282702D01*
X613242Y282389D01*
X613165Y282000D01*
X613227Y281686D01*
X613304Y281298D01*
X613616Y279500D01*
X613304Y277702D01*
X613242Y277389D01*
X613165Y277000D01*
X613227Y276686D01*
X613304Y276298D01*
X613616Y274500D01*
X613304Y272702D01*
X613242Y272389D01*
X613165Y272000D01*
X613227Y271686D01*
X613304Y271298D01*
X613616Y269500D01*
X613304Y267702D01*
X613242Y267389D01*
X613165Y267000D01*
X613227Y266686D01*
X613304Y266298D01*
X613616Y264500D01*
X613304Y262702D01*
X613242Y262389D01*
X613165Y262000D01*
X613227Y261686D01*
X613304Y261298D01*
X613616Y259500D01*
X613304Y257702D01*
X613242Y257389D01*
X613165Y257000D01*
X613227Y256686D01*
X613304Y256298D01*
X613616Y254500D01*
X613304Y252702D01*
X613242Y252389D01*
X613165Y252000D01*
X613227Y251686D01*
X613304Y251298D01*
X613616Y249500D01*
X613304Y247702D01*
X613165Y247000D01*
X611671Y245535D01*
X611671Y245535D01*
X611671Y245535D01*
Y245535D01*
X608964Y244829D01*
X606647D01*
Y238124D01*
X613353D01*
Y240903D01*
X614013Y243629D01*
X614519Y244416D01*
X615642Y245259D01*
X615812Y245254D01*
X618058Y244214D01*
X618500Y243840D01*
Y155913D01*
X616875Y155033D01*
X615500Y154840D01*
X614543Y155797D01*
X614502Y155814D01*
X614478Y155851D01*
X613004Y156836D01*
X612960Y156844D01*
X612929Y156876D01*
X611291Y157554D01*
X611247D01*
X611210Y157579D01*
X609471Y157925D01*
X609427Y157916D01*
X609386Y157933D01*
X566011D01*
X565073Y157979D01*
X563223Y158347D01*
X561491Y159064D01*
X559932Y160106D01*
X558606Y161432D01*
X557564Y162991D01*
X556847Y164723D01*
X556479Y166573D01*
X556433Y167511D01*
Y184845D01*
X556416Y184886D01*
X556425Y184929D01*
X556290Y185605D01*
X556265Y185642D01*
Y185687D01*
X556002Y186324D01*
X555970Y186355D01*
X555962Y186398D01*
X555579Y186972D01*
X555542Y186996D01*
X555525Y187037D01*
X555037Y187525D01*
X554996Y187542D01*
X554972Y187579D01*
X554398Y187962D01*
X554355Y187970D01*
X554324Y188002D01*
X553687Y188266D01*
X553642D01*
X553605Y188290D01*
X552929Y188425D01*
X552886Y188416D01*
X552845Y188433D01*
X534503D01*
X534423Y188400D01*
X534337D01*
X533418Y188019D01*
X533357Y187959D01*
X533278Y187926D01*
X532574Y187222D01*
X532542Y187143D01*
X532481Y187082D01*
X532100Y186163D01*
Y186077D01*
X532067Y185997D01*
Y184843D01*
X531834Y184747D01*
X531773Y184686D01*
X531694Y184653D01*
X531661Y184573D01*
X531600Y184512D01*
Y184426D01*
X531567Y184347D01*
Y155500D01*
Y154515D01*
X531584Y154474D01*
X531575Y154431D01*
X531960Y152499D01*
X531984Y152462D01*
Y152417D01*
X532738Y150598D01*
X532769Y150566D01*
X532778Y150523D01*
X533873Y148885D01*
X533909Y148860D01*
X533926Y148819D01*
X535319Y147426D01*
X535360Y147409D01*
X535385Y147372D01*
X536043Y146933D01*
X535133Y143933D01*
X476011Y143933D01*
X475073Y143979D01*
X473223Y144347D01*
X471491Y145064D01*
X469932Y146106D01*
X468606Y147432D01*
X467564Y148991D01*
X466847Y150723D01*
X466479Y152573D01*
X466433Y153511D01*
X466433Y182991D01*
X466454Y183472D01*
X466439Y183512D01*
X466450Y183553D01*
X466319Y184457D01*
X466296Y184495D01*
X466299Y184539D01*
X465986Y185423D01*
X465956Y185456D01*
X465950Y185500D01*
X465471Y186305D01*
X465436Y186332D01*
X465421Y186373D01*
X464794Y187070D01*
X464754Y187089D01*
X464731Y187127D01*
X463981Y187688D01*
X463938Y187699D01*
X463908Y187732D01*
X463062Y188135D01*
X463018Y188138D01*
X462983Y188164D01*
X462075Y188395D01*
X462031Y188389D01*
X461991Y188408D01*
X461523Y188432D01*
X461511Y188428D01*
X461500Y188433D01*
X446000Y188433D01*
X445963Y188418D01*
X445925Y188426D01*
X445506Y188353D01*
X445469Y188329D01*
X445424Y188330D01*
X444632Y188021D01*
X444600Y187991D01*
X444556Y187983D01*
X443840Y187526D01*
X443814Y187490D01*
X443773Y187474D01*
X443159Y186886D01*
X443141Y186845D01*
X443104Y186821D01*
X442616Y186125D01*
X442606Y186082D01*
X442574Y186051D01*
X442232Y185273D01*
X442231Y185228D01*
X442206Y185192D01*
X442022Y184362D01*
X442029Y184318D01*
X442012Y184278D01*
X441993Y183428D01*
X442009Y183387D01*
X442000Y183343D01*
X442067Y182962D01*
X442067Y142000D01*
X442067Y141009D01*
X442084Y140968D01*
X442075Y140924D01*
X442464Y138982D01*
X442489Y138944D01*
X442489Y138900D01*
X443251Y137071D01*
X443283Y137040D01*
X443292Y136996D01*
X444398Y135352D01*
X444435Y135328D01*
X444453Y135287D01*
X445860Y133892D01*
X445901Y133875D01*
X445926Y133838D01*
X447580Y132747D01*
X447624Y132738D01*
X447655Y132707D01*
X449491Y131961D01*
X449536Y131962D01*
X449573Y131937D01*
X451519Y131566D01*
X451563Y131575D01*
X451604Y131558D01*
X452593Y131567D01*
X562442Y131567D01*
X563179Y131366D01*
X564705Y130772D01*
X566128Y129978D01*
X567427Y128996D01*
X568580Y127843D01*
X569562Y126544D01*
X570356Y125121D01*
X570950Y123595D01*
X571151Y122858D01*
Y121377D01*
X571010Y120910D01*
X571015Y120864D01*
X570993Y120823D01*
X570894Y119724D01*
X570908Y119680D01*
X570895Y119635D01*
X571021Y118539D01*
X571043Y118499D01*
X571040Y118453D01*
X571189Y118000D01*
X570313Y116112D01*
X569296Y115000D01*
X372681D01*
X369963Y118000D01*
X369977Y118278D01*
X371615Y119372D01*
X371640Y119409D01*
X371681Y119426D01*
X373074Y120819D01*
X373091Y120860D01*
X373128Y120885D01*
X374222Y122523D01*
X374231Y122566D01*
X374262Y122598D01*
X375016Y124417D01*
Y124462D01*
X375040Y124499D01*
X375425Y126431D01*
X375416Y126474D01*
X375433Y126515D01*
X375433Y127500D01*
X375433Y138250D01*
X375606Y138574D01*
X376698Y139779D01*
X379202Y140978D01*
X380798D01*
X382500Y140665D01*
X384202Y140978D01*
X385798D01*
X387499Y140665D01*
X387500Y140665D01*
X387500Y140665D01*
X387814Y140727D01*
D01*
X388202Y140804D01*
X388202Y140804D01*
X388468Y140982D01*
X388468Y140982D01*
X388798Y141202D01*
X388798Y141202D01*
X388975Y141468D01*
D01*
X389196Y141798D01*
X389335Y142500D01*
X389273Y142814D01*
X389196Y143202D01*
X389018Y143468D01*
D01*
X388798Y143798D01*
X388798Y143798D01*
X388532Y143975D01*
X388532D01*
X388202Y144196D01*
X388202Y144196D01*
X387500Y144335D01*
X387500Y144335D01*
X387499Y144335D01*
X385798Y144022D01*
X384202D01*
X382500Y144335D01*
X380798Y144022D01*
X379202D01*
X376698Y145221D01*
X375606Y146426D01*
X375433Y146750D01*
X375433Y184500D01*
Y184845D01*
X375416Y184886D01*
X375425Y184929D01*
X375290Y185605D01*
X375266Y185642D01*
Y185687D01*
X375002Y186324D01*
X374970Y186355D01*
X374962Y186398D01*
X374579Y186972D01*
X374542Y186996D01*
X374525Y187037D01*
X374037Y187525D01*
X373996Y187542D01*
X373972Y187579D01*
X373398Y187962D01*
X373355Y187970D01*
X373324Y188002D01*
X372687Y188266D01*
X372642D01*
X372605Y188290D01*
X371929Y188425D01*
X371886Y188416D01*
X371845Y188433D01*
X355606D01*
X355565Y188416D01*
X355522Y188425D01*
X354749Y188271D01*
X354712Y188246D01*
X354668D01*
X353940Y187945D01*
X353908Y187913D01*
X353865Y187905D01*
X353210Y187467D01*
X353185Y187430D01*
X353144Y187413D01*
X352587Y186856D01*
X352570Y186815D01*
X352533Y186790D01*
X352095Y186135D01*
X352087Y186092D01*
X352055Y186060D01*
X351754Y185332D01*
Y185288D01*
X351729Y185251D01*
X351575Y184478D01*
X351584Y184435D01*
X351567Y184394D01*
Y184000D01*
X351567Y166011D01*
X351540Y165465D01*
X351325Y164384D01*
X350908Y163377D01*
X350302Y162470D01*
X349530Y161698D01*
X348623Y161092D01*
X347615Y160675D01*
X346535Y160460D01*
X345989Y160433D01*
X283500Y160433D01*
X283206Y161055D01*
X282888Y163843D01*
X283863Y164818D01*
X283880Y164859D01*
X283917Y164884D01*
X284683Y166030D01*
X284691Y166074D01*
X284723Y166105D01*
X285250Y167379D01*
Y167423D01*
X285275Y167460D01*
X285544Y168813D01*
X285535Y168856D01*
X285552Y168897D01*
Y169587D01*
X285552Y184587D01*
X285552Y184587D01*
Y184587D01*
X285546Y184602D01*
X285551Y184618D01*
X285517Y185083D01*
X285505Y185109D01*
X285510Y185137D01*
X285429Y185546D01*
X285404Y185583D01*
Y185627D01*
X285178Y186173D01*
X285147Y186205D01*
X285138Y186248D01*
X284810Y186740D01*
X284773Y186764D01*
X284756Y186805D01*
X284338Y187223D01*
X284297Y187240D01*
X284272Y187277D01*
X283781Y187605D01*
X283737Y187614D01*
X283706Y187645D01*
X283160Y187871D01*
X283116D01*
X283079Y187896D01*
X282499Y188011D01*
X282456Y188003D01*
X282415Y188020D01*
X282119Y188020D01*
X262619Y188020D01*
X262552Y188087D01*
X262426Y188393D01*
X262425Y188393D01*
X262119Y188520D01*
X262119Y188520D01*
X260620Y188520D01*
X260619Y188520D01*
X260619Y188520D01*
X260127Y188520D01*
X260127Y188520D01*
X260088Y188504D01*
X260043Y188511D01*
X259076Y188319D01*
X259040Y188294D01*
X258995D01*
X258085Y187917D01*
X258054Y187886D01*
X258011Y187878D01*
X257191Y187330D01*
X257167Y187294D01*
X257126Y187276D01*
X256611Y186761D01*
X255657Y186843D01*
X253612Y187779D01*
X253633Y199752D01*
X253787Y199897D01*
X255811Y201031D01*
X256635Y201237D01*
X257000Y201165D01*
X257000Y201165D01*
X257314Y201227D01*
D01*
X257702Y201304D01*
X257702Y201304D01*
X257968Y201482D01*
Y201482D01*
X258298Y201702D01*
X258298Y201702D01*
X258475Y201968D01*
D01*
X258696Y202298D01*
X258835Y203000D01*
X258773Y203313D01*
X258696Y203702D01*
X258518Y203968D01*
Y203968D01*
X258298Y204298D01*
X258298Y204298D01*
X258032Y204475D01*
X258032Y204475D01*
X257702Y204696D01*
X257702Y204696D01*
X257000Y204835D01*
X257000Y204835D01*
X256641Y204764D01*
X255777Y204992D01*
X253775Y206131D01*
X253644Y206256D01*
X253700Y239547D01*
X254845Y240304D01*
X256703Y240868D01*
X256798Y240804D01*
X257500Y240665D01*
X258863Y240409D01*
X259358Y240228D01*
X260591Y239613D01*
X260943Y239302D01*
X261109Y239085D01*
X261809Y238548D01*
X262625Y238210D01*
X263500Y238095D01*
X264375Y238210D01*
X265191Y238548D01*
X265891Y239085D01*
X266429Y239786D01*
X266766Y240601D01*
X266882Y241476D01*
X266766Y242352D01*
X266429Y243167D01*
X265891Y243868D01*
X265191Y244405D01*
X264375Y244743D01*
X263500Y244858D01*
X262625Y244743D01*
X261963Y244469D01*
X261717Y244439D01*
X259278Y246721D01*
X259245Y247044D01*
X259335Y247500D01*
X259273Y247814D01*
X259196Y248202D01*
X258884Y250000D01*
X259196Y251798D01*
X259258Y252111D01*
X259335Y252500D01*
X259273Y252814D01*
X259196Y253202D01*
X258884Y255000D01*
X259196Y256798D01*
X259258Y257111D01*
X259335Y257500D01*
X259273Y257814D01*
X259196Y258202D01*
X258884Y260000D01*
X259196Y261798D01*
X259258Y262111D01*
X259335Y262500D01*
X259273Y262814D01*
X259196Y263202D01*
X258884Y265000D01*
X259196Y266798D01*
X259258Y267111D01*
X259335Y267500D01*
X259273Y267814D01*
X259196Y268202D01*
X258884Y270000D01*
X259196Y271798D01*
X259258Y272111D01*
X259335Y272500D01*
X259273Y272814D01*
X259196Y273202D01*
X258884Y275000D01*
X259196Y276798D01*
X259258Y277111D01*
X259335Y277500D01*
X259273Y277814D01*
X259196Y278202D01*
X258884Y280000D01*
X259196Y281798D01*
X259258Y282111D01*
X259335Y282500D01*
X259273Y282814D01*
X259196Y283202D01*
X258884Y285000D01*
X259196Y286798D01*
X259335Y287500D01*
X259335Y287500D01*
X259273Y287814D01*
X259273Y287814D01*
X259196Y288202D01*
X259196Y288202D01*
X259018Y288468D01*
X259018D01*
X258798Y288798D01*
X258798Y288798D01*
X258532Y288975D01*
X258202Y289195D01*
X258202Y289196D01*
X257500Y289335D01*
X257500Y289335D01*
X257187Y289273D01*
Y289273D01*
X256798Y289196D01*
X256798D01*
X256785Y289187D01*
X254690Y289874D01*
X253787Y290517D01*
X253939Y379978D01*
X255293Y380906D01*
X256941Y381369D01*
X257996Y380664D01*
X258040Y380656D01*
X258071Y380624D01*
X259709Y379946D01*
X259753D01*
X259790Y379921D01*
X261529Y379575D01*
X261573Y379584D01*
X261614Y379567D01*
X304989D01*
X305927Y379521D01*
X307777Y379153D01*
X309509Y378435D01*
X311068Y377394D01*
X312394Y376068D01*
X313436Y374509D01*
X314153Y372777D01*
X314521Y370927D01*
X314567Y369989D01*
Y352655D01*
X314584Y352614D01*
X314575Y352571D01*
X314710Y351895D01*
X314735Y351858D01*
Y351813D01*
X314998Y351176D01*
X315030Y351145D01*
X315038Y351102D01*
X315421Y350528D01*
X315458Y350504D01*
X315475Y350463D01*
X315963Y349975D01*
X316004Y349958D01*
X316028Y349921D01*
X316602Y349538D01*
X316645Y349530D01*
X316676Y349498D01*
X317313Y349235D01*
X317358D01*
X317395Y349210D01*
X318071Y349075D01*
X318114Y349084D01*
X318155Y349067D01*
X336497D01*
X336577Y349100D01*
X336663D01*
X337582Y349481D01*
X337643Y349541D01*
X337722Y349574D01*
X338425Y350278D01*
X338458Y350357D01*
X338519Y350418D01*
X338900Y351337D01*
Y351423D01*
X338933Y351503D01*
Y352657D01*
X339166Y352753D01*
X339227Y352814D01*
X339306Y352847D01*
X339339Y352927D01*
X339400Y352988D01*
Y353074D01*
X339433Y353153D01*
Y382000D01*
Y382985D01*
X339416Y383026D01*
X339425Y383069D01*
X339040Y385001D01*
X339016Y385038D01*
Y385083D01*
X338262Y386902D01*
X338230Y386934D01*
X338222Y386977D01*
X337127Y388615D01*
X337915Y391302D01*
X338291Y391706D01*
X338500Y391665D01*
X339202Y391804D01*
X339202Y391805D01*
X340044Y392202D01*
X341456D01*
X342043Y391925D01*
X342298Y391804D01*
X342298Y391804D01*
X342298Y391804D01*
X343000Y391665D01*
X343000Y391665D01*
X343702Y391804D01*
X344298Y392202D01*
X344298Y392202D01*
X344695Y392798D01*
X344696Y392798D01*
X344835Y393500D01*
X344890Y393567D01*
X377870D01*
X377891Y393576D01*
X377913Y393569D01*
X378041Y393638D01*
X378176Y393694D01*
X378702Y393202D01*
X378702Y393202D01*
X379298Y392804D01*
X379298Y392804D01*
X380000Y392665D01*
X380702Y392804D01*
X380702Y392804D01*
X380702Y392804D01*
X381745Y393202D01*
X383255D01*
X384298Y392804D01*
X384298Y392804D01*
X384298Y392804D01*
X385000Y392665D01*
X385000Y392665D01*
X385702Y392804D01*
X385702D01*
X385702Y392804D01*
X386745Y393202D01*
X388255D01*
X389298Y392804D01*
X389298Y392804D01*
X389298Y392804D01*
X390000Y392665D01*
X390702Y392804D01*
X390702Y392804D01*
X390702Y392804D01*
X391745Y393202D01*
X393255D01*
X394298Y392805D01*
X394298Y392804D01*
X394298Y392804D01*
X395000Y392665D01*
X395702Y392804D01*
X395702Y392804D01*
X396298Y393202D01*
X396298Y393202D01*
X396390Y393340D01*
X396613Y393385D01*
X397777Y393153D01*
X399509Y392436D01*
X401068Y391394D01*
X402394Y390068D01*
X403436Y388509D01*
X404153Y386776D01*
X404521Y384927D01*
X404567Y383989D01*
Y354500D01*
X404567Y354500D01*
X404567Y354500D01*
X404567Y354057D01*
X404584Y354016D01*
X404575Y353972D01*
X404748Y353103D01*
X404773Y353066D01*
Y353022D01*
X405112Y352203D01*
X405143Y352171D01*
X405152Y352128D01*
X405645Y351391D01*
X405682Y351366D01*
X405698Y351325D01*
X406325Y350698D01*
X406366Y350681D01*
X406391Y350645D01*
X407128Y350152D01*
X407171Y350144D01*
X407203Y350112D01*
X408022Y349773D01*
X408066D01*
X408103Y349748D01*
X408972Y349575D01*
X409016Y349584D01*
X409057Y349567D01*
X409500Y349567D01*
X426000D01*
X426000Y349567D01*
X426497Y349567D01*
X426577Y349600D01*
X426663D01*
X427582Y349980D01*
X427643Y350041D01*
X427722Y350074D01*
X427722Y350074D01*
X428426Y350778D01*
X428458Y350857D01*
X428519Y350918D01*
X428900Y351837D01*
Y351923D01*
X428933Y352003D01*
X428933Y352500D01*
X428933Y352500D01*
X428933Y352500D01*
X428933Y393913D01*
X429352Y394481D01*
X432053Y395202D01*
Y395202D01*
X438497D01*
X440727Y395202D01*
X442298Y394304D01*
X442298Y394304D01*
X442298D01*
X442762Y393960D01*
X443896Y392382D01*
X444378Y391422D01*
X444349Y391327D01*
X444227Y390090D01*
X444349Y388854D01*
X444709Y387666D01*
X445295Y386570D01*
X445567Y386239D01*
Y382500D01*
X445694Y382194D01*
X446000Y382067D01*
X486508D01*
X487148Y382067D01*
X487189Y382084D01*
X487232Y382075D01*
X488488Y382325D01*
X488525Y382350D01*
X488569D01*
X489752Y382840D01*
X489783Y382871D01*
X489827Y382880D01*
X490892Y383591D01*
X490916Y383628D01*
X490957Y383645D01*
X491863Y384550D01*
X491880Y384591D01*
X491917Y384616D01*
X492628Y385681D01*
X492636Y385724D01*
X492668Y385755D01*
X493158Y386938D01*
Y386983D01*
X493182Y387019D01*
X493432Y388275D01*
X493424Y388319D01*
X493440Y388360D01*
X493440Y389000D01*
Y409000D01*
X493314Y409306D01*
X493008Y409433D01*
X489806D01*
Y409805D01*
X477194D01*
Y409433D01*
X466189D01*
X464964Y411138D01*
X464399Y412433D01*
X464651Y413264D01*
X464773Y414500D01*
X464651Y415736D01*
X464291Y416925D01*
X463705Y418020D01*
X462917Y418980D01*
X461957Y419768D01*
X461523Y420000D01*
X462271Y423000D01*
X571867D01*
X572505Y422321D01*
D02*
G37*
G36*
X270188Y422212D02*
X271553Y421646D01*
X272781Y420826D01*
X273826Y419781D01*
X274646Y418553D01*
X275212Y417188D01*
X275500Y415739D01*
Y415000D01*
Y402000D01*
X275548Y401020D01*
X275931Y399097D01*
X276681Y397286D01*
X277770Y395656D01*
X279156Y394270D01*
X280786Y393181D01*
X282597Y392431D01*
X284520Y392048D01*
X285500Y392000D01*
X327005D01*
X327298Y391804D01*
X328000Y391665D01*
X328702Y391804D01*
X328995Y392000D01*
X329985D01*
X331917Y391616D01*
X333737Y390862D01*
X335375Y389768D01*
X336768Y388375D01*
X337862Y386737D01*
X338616Y384917D01*
X339000Y382985D01*
Y382000D01*
Y353153D01*
X338538Y352962D01*
X338500Y353000D01*
Y351503D01*
X338119Y350584D01*
X337416Y349881D01*
X336497Y349500D01*
X318155D01*
X317479Y349635D01*
X316842Y349898D01*
X316269Y350281D01*
X315781Y350769D01*
X315398Y351342D01*
X315135Y351979D01*
X315000Y352655D01*
Y370000D01*
X314952Y370980D01*
X314569Y372903D01*
X313819Y374714D01*
X312730Y376344D01*
X311344Y377730D01*
X309714Y378819D01*
X307903Y379569D01*
X305980Y379952D01*
X305000Y380000D01*
X261614D01*
X259875Y380346D01*
X258237Y381024D01*
X256763Y382009D01*
X255509Y383263D01*
X254524Y384737D01*
X253846Y386375D01*
X253500Y388114D01*
Y389000D01*
Y414500D01*
Y415288D01*
X253807Y416833D01*
X254411Y418289D01*
X255286Y419600D01*
X256400Y420714D01*
X257711Y421590D01*
X259167Y422193D01*
X260712Y422500D01*
X268739D01*
X270188Y422212D01*
D02*
G37*
G36*
X262119Y187587D02*
X282119Y187587D01*
X282415Y187587D01*
X282995Y187471D01*
X283540Y187245D01*
X284032Y186917D01*
X284450Y186499D01*
X284778Y186008D01*
X285004Y185462D01*
X285086Y185052D01*
X285119Y184587D01*
Y184587D01*
X285119D01*
X285119Y184587D01*
X285119Y169587D01*
Y168897D01*
X284850Y167545D01*
X284323Y166271D01*
X283557Y165124D01*
X282582Y164149D01*
X281435Y163383D01*
X280161Y162856D01*
X278809Y162587D01*
X278119D01*
X277632Y162539D01*
X276730Y162165D01*
X276041Y161476D01*
X275667Y160574D01*
X275619Y160087D01*
X275619Y119087D01*
X275619Y118643D01*
X275447Y117774D01*
X275107Y116955D01*
X274615Y116218D01*
X273988Y115591D01*
X273251Y115099D01*
X272432Y114760D01*
X271563Y114587D01*
X271119Y114587D01*
X261119D01*
X260578Y114587D01*
X259515Y114798D01*
X258514Y115213D01*
X257613Y115814D01*
X256847Y116580D01*
X256245Y117481D01*
X255831Y118482D01*
X255619Y119545D01*
X255619Y120087D01*
Y183087D01*
X255619Y183579D01*
X255812Y184545D01*
X256189Y185455D01*
X256736Y186274D01*
X257432Y186970D01*
X258251Y187517D01*
X259161Y187894D01*
X260127Y188087D01*
X260619Y188087D01*
X260619Y188087D01*
X262119D01*
Y187587D01*
D02*
G37*
G36*
X553521Y187865D02*
X554158Y187602D01*
X554731Y187219D01*
X555219Y186731D01*
X555602Y186158D01*
X555865Y185521D01*
X556000Y184845D01*
Y167500D01*
X556048Y166520D01*
X556431Y164597D01*
X557181Y162786D01*
X558270Y161156D01*
X559656Y159770D01*
X561286Y158681D01*
X563097Y157931D01*
X565020Y157548D01*
X566000Y157500D01*
X609386D01*
X611125Y157154D01*
X612763Y156476D01*
X614237Y155491D01*
X615491Y154237D01*
X616476Y152763D01*
X617154Y151125D01*
X617500Y149386D01*
Y148500D01*
Y123000D01*
Y122212D01*
X617193Y120667D01*
X616589Y119211D01*
X615714Y117900D01*
X614600Y116786D01*
X613289Y115910D01*
X611833Y115307D01*
X610288Y115000D01*
X602261D01*
X600812Y115288D01*
X599447Y115854D01*
X598219Y116674D01*
X597174Y117719D01*
X596354Y118947D01*
X595788Y120312D01*
X595500Y121761D01*
Y122500D01*
Y135500D01*
X595452Y136480D01*
X595069Y138403D01*
X594319Y140214D01*
X593230Y141844D01*
X591844Y143230D01*
X590214Y144319D01*
X588403Y145069D01*
X586480Y145452D01*
X585500Y145500D01*
X541015D01*
X539083Y145884D01*
X537263Y146638D01*
X535625Y147732D01*
X534233Y149125D01*
X533138Y150763D01*
X532384Y152583D01*
X532000Y154515D01*
Y155500D01*
Y184347D01*
X532462Y184538D01*
X532500Y184500D01*
Y185997D01*
X532881Y186916D01*
X533584Y187619D01*
X534503Y188000D01*
X552845D01*
X553521Y187865D01*
D02*
G37*
G36*
X372521D02*
X373158Y187602D01*
X373731Y187219D01*
X374219Y186731D01*
X374602Y186158D01*
X374866Y185521D01*
X375000Y184845D01*
Y184500D01*
X375000Y143080D01*
X374500Y143031D01*
X374477Y143144D01*
X374080Y143739D01*
X373484Y144137D01*
X372782Y144277D01*
X372080Y144137D01*
X371484Y143739D01*
X371086Y143144D01*
X370947Y142442D01*
X371086Y141739D01*
X371484Y141144D01*
X372080Y140746D01*
X372782Y140606D01*
X373484Y140746D01*
X374080Y141144D01*
X374477Y141739D01*
X374500Y141852D01*
X375000Y141803D01*
X375000Y127500D01*
X375000Y126515D01*
X374616Y124583D01*
X373862Y122763D01*
X372767Y121125D01*
X371375Y119732D01*
X369737Y118638D01*
X367917Y117884D01*
X365985Y117500D01*
X365000Y117500D01*
X365000Y117500D01*
Y117500D01*
X279000D01*
Y158500D01*
X279484Y158863D01*
X280555Y159424D01*
X281702Y159806D01*
X282895Y160000D01*
X283500Y160000D01*
X283500Y160000D01*
X346000Y160000D01*
X346588Y160029D01*
X347742Y160258D01*
X348828Y160708D01*
X349806Y161362D01*
X350638Y162194D01*
X351291Y163172D01*
X351742Y164258D01*
X351971Y165412D01*
X352000Y166000D01*
X352000Y184000D01*
Y184394D01*
X352154Y185167D01*
X352455Y185895D01*
X352893Y186550D01*
X353450Y187107D01*
X354105Y187545D01*
X354833Y187846D01*
X355606Y188000D01*
X371845D01*
X372521Y187865D01*
D02*
G37*
G36*
X461500Y188000D02*
X461968Y187975D01*
X462876Y187745D01*
X463722Y187341D01*
X464472Y186780D01*
X465099Y186084D01*
X465578Y185278D01*
X465890Y184395D01*
X466021Y183491D01*
X466000Y183000D01*
X466000Y183000D01*
X466000Y183000D01*
X466000Y153500D01*
X466048Y152520D01*
X466431Y150597D01*
X467181Y148786D01*
X468270Y147156D01*
X469656Y145770D01*
X471286Y144681D01*
X473097Y143931D01*
X475020Y143548D01*
X476000Y143500D01*
X584000Y143500D01*
X584936Y143500D01*
X586771Y143135D01*
X588500Y142419D01*
X590056Y141379D01*
X591379Y140056D01*
X592419Y138500D01*
X593135Y136771D01*
X593500Y134936D01*
X593500Y134000D01*
X593500D01*
X593500Y134000D01*
X593500Y119500D01*
X593500Y119057D01*
X593327Y118187D01*
X592988Y117368D01*
X592495Y116631D01*
X591869Y116005D01*
X591132Y115512D01*
X590313Y115173D01*
X589496Y115010D01*
X589000Y115000D01*
X589000Y115000D01*
X575500Y114500D01*
X574963Y114628D01*
X573963Y115096D01*
X573079Y115756D01*
X572346Y116582D01*
X571796Y117539D01*
X571451Y118588D01*
X571325Y119685D01*
X571425Y120784D01*
X571584Y121312D01*
Y122916D01*
X571361Y123731D01*
X570749Y125306D01*
X569926Y126781D01*
X568907Y128129D01*
X567712Y129323D01*
X566365Y130342D01*
X564890Y131165D01*
X563315Y131777D01*
X562500Y132000D01*
X562500Y132000D01*
X562500Y132000D01*
X452591Y132000D01*
X451600Y131991D01*
X449654Y132362D01*
X447818Y133108D01*
X446165Y134200D01*
X444757Y135594D01*
X443651Y137238D01*
X442889Y139067D01*
X442500Y141009D01*
X442500Y142000D01*
X442500Y183000D01*
X442426Y183419D01*
X442445Y184268D01*
X442628Y185099D01*
X442971Y185877D01*
X443458Y186573D01*
X444072Y187161D01*
X444789Y187618D01*
X445581Y187926D01*
X446000Y188000D01*
X446000Y188000D01*
X461500Y188000D01*
D02*
G37*
%LPC*%
G36*
X562500Y401835D02*
X562186Y401773D01*
X561798Y401696D01*
X560000Y401384D01*
X558202Y401696D01*
X557889Y401758D01*
X557500Y401835D01*
X557186Y401773D01*
X556798Y401696D01*
X555000Y401384D01*
X553202Y401696D01*
X552500Y401835D01*
X552500Y401835D01*
X552186Y401773D01*
X551798Y401696D01*
X551798Y401695D01*
X551532Y401518D01*
X551202Y401298D01*
X551202Y401298D01*
X551025Y401032D01*
X550805Y400702D01*
X550804Y400702D01*
X550665Y400000D01*
X550665Y400000D01*
X550804Y399298D01*
Y399298D01*
X551202Y398702D01*
X551202Y397798D01*
X550804Y397202D01*
X550665Y396500D01*
X550804Y395775D01*
Y393225D01*
X550665Y392500D01*
X550665Y392500D01*
X550727Y392186D01*
D01*
X550804Y391798D01*
X550805Y391798D01*
X550982Y391532D01*
X551202Y391202D01*
X551468Y391025D01*
X551798Y390804D01*
X552500Y390665D01*
X552500Y390665D01*
X552813Y390727D01*
X553202Y390804D01*
X555000Y391116D01*
X556798Y390804D01*
X557111Y390742D01*
X557500Y390665D01*
X557814Y390727D01*
X558202Y390804D01*
X560000Y391116D01*
X561798Y390804D01*
X562500Y390665D01*
X562500Y390665D01*
X562814Y390727D01*
X563202Y390804D01*
X563468Y390982D01*
X563798Y391202D01*
X563975Y391468D01*
X564195Y391798D01*
X564196Y391798D01*
X564335Y392500D01*
X564335Y392500D01*
X564275Y392812D01*
X564196Y393225D01*
Y395775D01*
X564335Y396500D01*
X564196Y397202D01*
X563798Y397798D01*
X563798Y398702D01*
X564196Y399298D01*
Y399298D01*
X564335Y400000D01*
X564335Y400000D01*
X564196Y400702D01*
X564195Y400702D01*
X564018Y400968D01*
X563798Y401298D01*
X563798Y401298D01*
X563532Y401475D01*
X563202Y401695D01*
X563202Y401696D01*
X562889Y401758D01*
X562889D01*
X562500Y401835D01*
X562500Y401835D01*
D02*
G37*
G36*
X532000Y392335D02*
X531686Y392273D01*
X531298Y392196D01*
X529500Y391884D01*
X527702Y392196D01*
X527389Y392258D01*
X527000Y392335D01*
X526686Y392273D01*
X526298Y392196D01*
X524500Y391884D01*
X522702Y392196D01*
X522000Y392335D01*
X522000Y392335D01*
X521687Y392273D01*
X521298Y392196D01*
X521298Y392196D01*
X521032Y392018D01*
X520702Y391798D01*
X520702Y391798D01*
X520525Y391532D01*
X520304Y391202D01*
X520304Y391202D01*
X520165Y390500D01*
X520165Y390500D01*
X520304Y389798D01*
Y389798D01*
X520702Y389202D01*
X520702Y388298D01*
X520304Y387702D01*
Y387702D01*
X520165Y387000D01*
X520165Y387000D01*
X520304Y386298D01*
X520304Y386298D01*
X520482Y386032D01*
X520702Y385702D01*
X520702Y385702D01*
X520968Y385525D01*
X521298Y385304D01*
X521298Y385304D01*
X522000Y385165D01*
X522000Y385165D01*
X522313Y385227D01*
X522702Y385304D01*
X524500Y385616D01*
X526298Y385304D01*
X526611Y385242D01*
X527000Y385165D01*
X527314Y385227D01*
X527702Y385304D01*
X529500Y385616D01*
X531298Y385304D01*
X532000Y385165D01*
X532000Y385165D01*
X532313Y385227D01*
X532702Y385304D01*
X532702Y385304D01*
X532968Y385482D01*
X533298Y385702D01*
X533298Y385702D01*
X533475Y385968D01*
X533696Y386298D01*
X533696Y386298D01*
X533835Y387000D01*
X533835Y387000D01*
X533696Y387702D01*
Y387702D01*
X533298Y388298D01*
X533298Y389202D01*
X533696Y389798D01*
Y389798D01*
X533835Y390500D01*
X533835Y390500D01*
X533696Y391202D01*
X533696Y391202D01*
X533518Y391468D01*
X533298Y391798D01*
X533298Y391798D01*
X533032Y391975D01*
X532702Y392196D01*
X532702Y392196D01*
X532389Y392258D01*
X532389D01*
X532000Y392335D01*
X532000Y392335D01*
D02*
G37*
G36*
X397500Y334335D02*
X397219Y334279D01*
X397187Y334274D01*
X397187D01*
X396666Y334188D01*
X395250Y334109D01*
X393834Y334188D01*
X393281Y334279D01*
X393000Y334335D01*
X393000Y334335D01*
X392686Y334273D01*
D01*
X392298Y334196D01*
X392298Y334196D01*
X392032Y334018D01*
Y334018D01*
X391702Y333798D01*
X391702Y333798D01*
X391525Y333532D01*
D01*
X391304Y333202D01*
X391165Y332500D01*
X391227Y332187D01*
X391227Y332186D01*
X391304Y331798D01*
X391482Y331532D01*
Y331532D01*
X391702Y331202D01*
Y331202D01*
X391968Y331025D01*
X391968Y331025D01*
X392298Y330804D01*
X392298Y330804D01*
X393000Y330665D01*
X393000Y330665D01*
X395084Y330772D01*
X395356Y330779D01*
X397500Y330665D01*
X397814Y330727D01*
X397814D01*
X398202Y330804D01*
X398468Y330982D01*
X398468D01*
X398798Y331202D01*
X398975Y331468D01*
X398975Y331468D01*
X399196Y331798D01*
X399335Y332500D01*
X399273Y332814D01*
X399273Y332814D01*
X399196Y333202D01*
X399018Y333468D01*
Y333468D01*
X398798Y333798D01*
X398798Y333798D01*
X398532Y333975D01*
X398532Y333975D01*
X398202Y334196D01*
X398202Y334196D01*
X397889Y334258D01*
X397889Y334258D01*
X397500Y334335D01*
X397500Y334335D01*
D02*
G37*
G36*
X488000D02*
X487719Y334279D01*
X487687Y334274D01*
X487687D01*
X487166Y334188D01*
X485750Y334109D01*
X484334Y334188D01*
X483781Y334279D01*
X483500Y334335D01*
X483500Y334335D01*
X483186Y334273D01*
D01*
X482798Y334196D01*
X482798Y334195D01*
X482532Y334018D01*
X482202Y333798D01*
X482202Y333798D01*
X482025Y333532D01*
D01*
X481804Y333202D01*
X481665Y332500D01*
X481727Y332187D01*
X481727Y332186D01*
X481804Y331798D01*
X481982Y331532D01*
X482202Y331202D01*
X482292Y331142D01*
X482798Y330804D01*
X483500Y330665D01*
X485644Y330779D01*
X485916Y330772D01*
X488000Y330665D01*
X488000Y330665D01*
X488314Y330727D01*
X488702Y330804D01*
X488702Y330804D01*
X488968Y330982D01*
X489298Y331202D01*
X489298Y331202D01*
X489475Y331468D01*
D01*
X489696Y331798D01*
X489835Y332500D01*
X489773Y332814D01*
X489773Y332814D01*
X489696Y333202D01*
X489518Y333468D01*
Y333468D01*
X489298Y333798D01*
X489298Y333798D01*
X489032Y333975D01*
X489032Y333975D01*
X488702Y334196D01*
X488702Y334196D01*
X488389Y334258D01*
X488389Y334258D01*
X488000Y334335D01*
X488000Y334335D01*
D02*
G37*
G36*
X580000D02*
X579999Y334335D01*
X578298Y334022D01*
X576702D01*
X575001Y334335D01*
X575000Y334335D01*
X575000Y334335D01*
X574686Y334273D01*
D01*
X574298Y334196D01*
X574298Y334196D01*
X574032Y334018D01*
Y334018D01*
X573702Y333798D01*
X573702Y333798D01*
X573525Y333532D01*
D01*
X573304Y333202D01*
X573165Y332500D01*
X573227Y332187D01*
X573227Y332186D01*
X573304Y331798D01*
X573482Y331532D01*
Y331532D01*
X573702Y331202D01*
Y331202D01*
X573968Y331025D01*
X573968Y331025D01*
X574298Y330804D01*
X574298Y330804D01*
X575000Y330665D01*
X575000Y330665D01*
X575001Y330665D01*
X576702Y330978D01*
X578298D01*
X579999Y330665D01*
X580000Y330665D01*
X580000Y330665D01*
X580314Y330727D01*
D01*
X580702Y330804D01*
X580702Y330804D01*
X580968Y330982D01*
Y330982D01*
X581298Y331202D01*
X581298Y331202D01*
X581475Y331468D01*
D01*
X581696Y331798D01*
X581835Y332500D01*
X581773Y332814D01*
X581696Y333202D01*
X581518Y333468D01*
Y333468D01*
X581298Y333798D01*
X581298Y333798D01*
X581032Y333975D01*
X581032Y333975D01*
X580702Y334196D01*
X580702Y334196D01*
X580389Y334258D01*
X580389Y334258D01*
X580000Y334335D01*
X580000Y334335D01*
D02*
G37*
G36*
X523500Y336835D02*
X523186Y336773D01*
X523186Y336773D01*
X522798Y336696D01*
X522532Y336518D01*
X522202Y336298D01*
X522025Y336032D01*
X522025Y336032D01*
X521804Y335702D01*
X521665Y335000D01*
X521727Y334686D01*
Y334686D01*
X521804Y334298D01*
X521982Y334032D01*
X522202Y333702D01*
X522798Y333304D01*
X523500Y333165D01*
X523813Y333227D01*
X524202Y333304D01*
X524468Y333482D01*
X524798Y333702D01*
X524975Y333968D01*
X525196Y334298D01*
X525335Y335000D01*
X525273Y335314D01*
X525196Y335702D01*
X525042Y335931D01*
X524798Y336298D01*
X524532Y336475D01*
X524532Y336475D01*
X524202Y336696D01*
X523889Y336758D01*
X523500Y336835D01*
D02*
G37*
G36*
X433000D02*
X432686Y336773D01*
X432686Y336773D01*
X432298Y336696D01*
X432032Y336518D01*
X431702Y336298D01*
X431525Y336032D01*
X431525Y336032D01*
X431304Y335702D01*
X431165Y335000D01*
X431227Y334686D01*
Y334686D01*
X431304Y334298D01*
X431482Y334032D01*
X431702Y333702D01*
X432298Y333304D01*
X433000Y333165D01*
X433314Y333227D01*
X433702Y333304D01*
X433968Y333482D01*
X434298Y333702D01*
X434475Y333968D01*
X434696Y334298D01*
X434835Y335000D01*
X434773Y335314D01*
X434696Y335702D01*
X434543Y335931D01*
X434298Y336298D01*
X434032Y336475D01*
X434032Y336475D01*
X433702Y336696D01*
X433389Y336758D01*
X433000Y336835D01*
D02*
G37*
G36*
X342500D02*
X342186Y336773D01*
X342186Y336773D01*
X341798Y336696D01*
X341532Y336518D01*
X341202Y336298D01*
X341025Y336032D01*
X341025Y336032D01*
X340804Y335702D01*
X340665Y335000D01*
X340727Y334686D01*
Y334686D01*
X340804Y334298D01*
X340982Y334032D01*
X341202Y333702D01*
X341798Y333304D01*
X342500Y333165D01*
X342813Y333227D01*
X343202Y333304D01*
X343468Y333482D01*
X343798Y333702D01*
X343975Y333968D01*
X344196Y334298D01*
X344335Y335000D01*
X344273Y335314D01*
X344196Y335702D01*
X344042Y335931D01*
X343798Y336298D01*
X343532Y336475D01*
X343532Y336475D01*
X343202Y336696D01*
X342889Y336758D01*
X342500Y336835D01*
D02*
G37*
G36*
X307500Y331835D02*
X307499Y331835D01*
X305798Y331522D01*
X304202D01*
X302501Y331835D01*
X302500Y331835D01*
X302500Y331835D01*
X302186Y331773D01*
D01*
X301798Y331696D01*
X301798Y331696D01*
X301532Y331518D01*
Y331518D01*
X301202Y331298D01*
X301202Y331298D01*
X301025Y331032D01*
D01*
X300804Y330702D01*
X300665Y330000D01*
X300727Y329686D01*
X300727Y329686D01*
X300804Y329298D01*
X300982Y329032D01*
Y329032D01*
X301202Y328702D01*
Y328702D01*
X301468Y328525D01*
X301468Y328525D01*
X301798Y328304D01*
X301798Y328304D01*
X302500Y328165D01*
X302500Y328165D01*
X302501Y328165D01*
X304202Y328478D01*
X305798D01*
X307499Y328165D01*
X307500Y328165D01*
X307500Y328165D01*
X307814Y328227D01*
D01*
X308202Y328304D01*
X308202Y328304D01*
X308468Y328482D01*
Y328482D01*
X308798Y328702D01*
X308798Y328702D01*
X308975Y328968D01*
D01*
X309196Y329298D01*
X309335Y330000D01*
X309273Y330314D01*
X309196Y330702D01*
X309018Y330968D01*
Y330968D01*
X308798Y331298D01*
X308798Y331298D01*
X308532Y331475D01*
X308532Y331475D01*
X308202Y331696D01*
X308202Y331696D01*
X307889Y331758D01*
X307889Y331758D01*
X307500Y331835D01*
X307500Y331835D01*
D02*
G37*
G36*
X610853Y327829D02*
X604147D01*
Y321124D01*
X610853D01*
Y327829D01*
D02*
G37*
G36*
X520353D02*
X513647D01*
Y321124D01*
X520353D01*
Y327829D01*
D02*
G37*
G36*
X429853D02*
X423147D01*
Y321124D01*
X429853D01*
Y327829D01*
D02*
G37*
G36*
X339353D02*
X332647D01*
Y321124D01*
X339353D01*
Y327829D01*
D02*
G37*
G36*
X532500Y327858D02*
X531625Y327743D01*
X530809Y327405D01*
X530109Y326868D01*
X529571Y326167D01*
X529234Y325352D01*
X529118Y324476D01*
X529234Y323601D01*
X529571Y322785D01*
X530109Y322085D01*
X530809Y321548D01*
X531625Y321210D01*
X532500Y321095D01*
X533375Y321210D01*
X534191Y321548D01*
X534891Y322085D01*
X535429Y322785D01*
X535766Y323601D01*
X535882Y324476D01*
X535766Y325352D01*
X535429Y326167D01*
X534891Y326868D01*
X534191Y327405D01*
X533375Y327743D01*
X532500Y327858D01*
D02*
G37*
G36*
X442000D02*
X441125Y327743D01*
X440309Y327405D01*
X439609Y326868D01*
X439071Y326167D01*
X438734Y325352D01*
X438618Y324476D01*
X438734Y323601D01*
X439071Y322785D01*
X439609Y322085D01*
X440309Y321548D01*
X441125Y321210D01*
X442000Y321095D01*
X442875Y321210D01*
X443691Y321548D01*
X444391Y322085D01*
X444929Y322785D01*
X445266Y323601D01*
X445382Y324476D01*
X445266Y325352D01*
X444929Y326167D01*
X444391Y326868D01*
X443691Y327405D01*
X442875Y327743D01*
X442000Y327858D01*
D02*
G37*
G36*
X351500D02*
X350625Y327743D01*
X349809Y327405D01*
X349109Y326868D01*
X348571Y326167D01*
X348234Y325352D01*
X348118Y324476D01*
X348234Y323601D01*
X348571Y322785D01*
X349109Y322085D01*
X349809Y321548D01*
X350625Y321210D01*
X351500Y321095D01*
X352375Y321210D01*
X353191Y321548D01*
X353891Y322085D01*
X354429Y322785D01*
X354766Y323601D01*
X354882Y324476D01*
X354766Y325352D01*
X354429Y326167D01*
X353891Y326868D01*
X353191Y327405D01*
X352375Y327743D01*
X351500Y327858D01*
D02*
G37*
G36*
X261000D02*
X260125Y327743D01*
X259309Y327405D01*
X258609Y326868D01*
X258071Y326167D01*
X257734Y325352D01*
X257618Y324476D01*
X257734Y323601D01*
X258071Y322785D01*
X258609Y322085D01*
X259309Y321548D01*
X260125Y321210D01*
X261000Y321095D01*
X261875Y321210D01*
X262691Y321548D01*
X263391Y322085D01*
X263929Y322785D01*
X264266Y323601D01*
X264382Y324476D01*
X264266Y325352D01*
X263929Y326167D01*
X263391Y326868D01*
X262691Y327405D01*
X261875Y327743D01*
X261000Y327858D01*
D02*
G37*
G36*
X580000Y308335D02*
X579686Y308273D01*
X579686D01*
X579298Y308196D01*
X579032Y308018D01*
X578702Y307798D01*
X578525Y307532D01*
X578525Y307532D01*
X578304Y307202D01*
X578165Y306500D01*
X578227Y306187D01*
X578227Y306186D01*
X578304Y305798D01*
X578482Y305532D01*
Y305532D01*
X578702Y305202D01*
X578780Y305151D01*
X579298Y304804D01*
X580000Y304665D01*
X580313Y304727D01*
X580314D01*
X580702Y304804D01*
X580968Y304982D01*
Y304982D01*
X581298Y305202D01*
X581429Y305399D01*
X581696Y305798D01*
X581835Y306500D01*
X581773Y306814D01*
X581696Y307202D01*
X581518Y307468D01*
X581518D01*
X581298Y307798D01*
X581032Y307975D01*
X581032Y307975D01*
X580702Y308196D01*
X580389Y308258D01*
X580000Y308335D01*
D02*
G37*
G36*
X489500D02*
X489186Y308273D01*
X489186D01*
X488798Y308196D01*
X488532Y308018D01*
X488202Y307798D01*
X488025Y307532D01*
X488025Y307532D01*
X487804Y307202D01*
X487665Y306500D01*
X487727Y306187D01*
X487727Y306186D01*
X487804Y305798D01*
X487982Y305532D01*
Y305532D01*
X488202Y305202D01*
X488279Y305151D01*
X488798Y304804D01*
X489500Y304665D01*
X489814Y304727D01*
X489814D01*
X490202Y304804D01*
X490468Y304982D01*
Y304982D01*
X490798Y305202D01*
X490929Y305399D01*
X491196Y305798D01*
X491335Y306500D01*
X491273Y306814D01*
X491196Y307202D01*
X491018Y307468D01*
X491018D01*
X490798Y307798D01*
X490532Y307975D01*
X490532Y307975D01*
X490202Y308196D01*
X489889Y308258D01*
X489500Y308335D01*
D02*
G37*
G36*
X399000D02*
X398687Y308273D01*
X398686D01*
X398298Y308196D01*
X398032Y308018D01*
X397702Y307798D01*
X397525Y307532D01*
X397525Y307532D01*
X397304Y307202D01*
X397165Y306500D01*
X397227Y306187D01*
X397227Y306186D01*
X397304Y305798D01*
X397482Y305532D01*
Y305532D01*
X397702Y305202D01*
X397779Y305151D01*
X398298Y304804D01*
X399000Y304665D01*
X399313Y304727D01*
X399313D01*
X399702Y304804D01*
X399968Y304982D01*
Y304982D01*
X400298Y305202D01*
X400429Y305399D01*
X400696Y305798D01*
X400835Y306500D01*
X400773Y306814D01*
X400696Y307202D01*
X400518Y307468D01*
X400518D01*
X400298Y307798D01*
X400032Y307975D01*
X400032Y307975D01*
X399702Y308196D01*
X399389Y308258D01*
X399000Y308335D01*
D02*
G37*
G36*
X308500D02*
X308186Y308273D01*
X308186Y308273D01*
X307798Y308196D01*
X307532Y308018D01*
X307202Y307798D01*
X307025Y307532D01*
X306804Y307202D01*
X306665Y306500D01*
X306727Y306187D01*
X306727Y306186D01*
X306804Y305798D01*
X306982Y305532D01*
X307202Y305202D01*
X307468Y305025D01*
X307468Y305025D01*
X307798Y304804D01*
X308500Y304665D01*
X308814Y304727D01*
X309202Y304804D01*
X309468Y304982D01*
Y304982D01*
X309798Y305202D01*
X309975Y305468D01*
X310196Y305798D01*
X310335Y306500D01*
X310273Y306814D01*
X310273Y306814D01*
X310196Y307202D01*
X310043Y307431D01*
X309798Y307798D01*
X309532Y307975D01*
X309532D01*
X309202Y308196D01*
X308889Y308258D01*
X308500Y308335D01*
D02*
G37*
G36*
X558000Y307835D02*
X557686Y307773D01*
X557686D01*
X557298Y307696D01*
X557032Y307518D01*
Y307518D01*
X556702Y307298D01*
X556525Y307032D01*
X556525Y307032D01*
X556304Y306702D01*
X556165Y306000D01*
X556227Y305686D01*
X556227Y305686D01*
X556304Y305298D01*
X556482Y305032D01*
X556482Y305032D01*
X556702Y304702D01*
X556779Y304651D01*
X557298Y304304D01*
X558000Y304165D01*
X558314Y304227D01*
X558314D01*
X558702Y304304D01*
X558968Y304482D01*
X558968Y304482D01*
X559298Y304702D01*
X559475Y304968D01*
X559696Y305298D01*
X559835Y306000D01*
X559773Y306314D01*
X559696Y306702D01*
X559518Y306968D01*
X559298Y307298D01*
X559032Y307475D01*
X559032Y307475D01*
X558702Y307696D01*
X558389Y307758D01*
X558000Y307835D01*
D02*
G37*
G36*
X467500D02*
X467186Y307773D01*
X467186D01*
X466798Y307696D01*
X466532Y307518D01*
Y307518D01*
X466202Y307298D01*
X466025Y307032D01*
X466025Y307032D01*
X465804Y306702D01*
X465665Y306000D01*
X465727Y305686D01*
X465727Y305686D01*
X465804Y305298D01*
X465982Y305032D01*
X465982Y305032D01*
X466202Y304702D01*
X466280Y304651D01*
X466798Y304304D01*
X467500Y304165D01*
X467813Y304227D01*
X467814D01*
X468202Y304304D01*
X468468Y304482D01*
X468468Y304482D01*
X468798Y304702D01*
X468975Y304968D01*
X469196Y305298D01*
X469335Y306000D01*
X469273Y306314D01*
X469196Y306702D01*
X469018Y306968D01*
X468798Y307298D01*
X468532Y307475D01*
X468532Y307475D01*
X468202Y307696D01*
X467889Y307758D01*
X467500Y307835D01*
D02*
G37*
G36*
X377000D02*
X376687Y307773D01*
X376686D01*
X376298Y307696D01*
X376032Y307518D01*
Y307518D01*
X375702Y307298D01*
X375525Y307032D01*
X375525Y307032D01*
X375304Y306702D01*
X375165Y306000D01*
X375227Y305686D01*
X375227Y305686D01*
X375304Y305298D01*
X375482Y305032D01*
X375482Y305032D01*
X375702Y304702D01*
X375780Y304651D01*
X376298Y304304D01*
X377000Y304165D01*
X377313Y304227D01*
X377313D01*
X377702Y304304D01*
X377968Y304482D01*
X377968Y304482D01*
X378298Y304702D01*
X378475Y304968D01*
X378696Y305298D01*
X378835Y306000D01*
X378773Y306314D01*
X378696Y306702D01*
X378518Y306968D01*
X378298Y307298D01*
X378032Y307475D01*
X378032Y307475D01*
X377702Y307696D01*
X377389Y307758D01*
X377000Y307835D01*
D02*
G37*
G36*
X286500D02*
X286187Y307773D01*
X285798Y307696D01*
X285532Y307518D01*
X285202Y307298D01*
X285025Y307032D01*
X284804Y306702D01*
X284665Y306000D01*
X284727Y305686D01*
X284727Y305686D01*
X284804Y305298D01*
X284958Y305069D01*
X285202Y304702D01*
X285468Y304525D01*
X285468Y304525D01*
X285798Y304304D01*
X286500Y304165D01*
X286814Y304227D01*
X286814Y304227D01*
X287202Y304304D01*
X287468Y304482D01*
Y304482D01*
X287798Y304702D01*
X287975Y304968D01*
X288196Y305298D01*
X288335Y306000D01*
X288273Y306314D01*
X288273Y306314D01*
X288196Y306702D01*
X288018Y306968D01*
X287798Y307298D01*
X287532Y307475D01*
X287532D01*
X287202Y307696D01*
X286889Y307758D01*
X286500Y307835D01*
D02*
G37*
G36*
X535853Y299876D02*
X529147D01*
Y293171D01*
X535853D01*
Y299876D01*
D02*
G37*
G36*
X445353D02*
X438647D01*
Y293171D01*
X445353D01*
Y299876D01*
D02*
G37*
G36*
X354853D02*
X348147D01*
Y293171D01*
X354853D01*
Y299876D01*
D02*
G37*
G36*
X264353D02*
X257647D01*
Y293171D01*
X264353D01*
Y299876D01*
D02*
G37*
G36*
X607500Y299905D02*
X606625Y299790D01*
X605809Y299452D01*
X605109Y298915D01*
X604571Y298215D01*
X604234Y297399D01*
X604118Y296524D01*
X604234Y295648D01*
X604571Y294833D01*
X605109Y294132D01*
X605809Y293595D01*
X606625Y293257D01*
X607500Y293142D01*
X608375Y293257D01*
X609191Y293595D01*
X609891Y294132D01*
X610429Y294833D01*
X610766Y295648D01*
X610882Y296524D01*
X610766Y297399D01*
X610429Y298215D01*
X609891Y298915D01*
X609191Y299452D01*
X608375Y299790D01*
X607500Y299905D01*
D02*
G37*
G36*
X517000D02*
X516125Y299790D01*
X515309Y299452D01*
X514609Y298915D01*
X514071Y298215D01*
X513734Y297399D01*
X513618Y296524D01*
X513734Y295648D01*
X514071Y294833D01*
X514609Y294132D01*
X515309Y293595D01*
X516125Y293257D01*
X517000Y293142D01*
X517875Y293257D01*
X518691Y293595D01*
X519391Y294132D01*
X519929Y294833D01*
X520266Y295648D01*
X520382Y296524D01*
X520266Y297399D01*
X519929Y298215D01*
X519391Y298915D01*
X518691Y299452D01*
X517875Y299790D01*
X517000Y299905D01*
D02*
G37*
G36*
X426500D02*
X425625Y299790D01*
X424809Y299452D01*
X424109Y298915D01*
X423571Y298215D01*
X423234Y297399D01*
X423118Y296524D01*
X423234Y295648D01*
X423571Y294833D01*
X424109Y294132D01*
X424809Y293595D01*
X425625Y293257D01*
X426500Y293142D01*
X427375Y293257D01*
X428191Y293595D01*
X428891Y294132D01*
X429429Y294833D01*
X429766Y295648D01*
X429882Y296524D01*
X429766Y297399D01*
X429429Y298215D01*
X428891Y298915D01*
X428191Y299452D01*
X427375Y299790D01*
X426500Y299905D01*
D02*
G37*
G36*
X336000D02*
X335125Y299790D01*
X334309Y299452D01*
X333609Y298915D01*
X333071Y298215D01*
X332734Y297399D01*
X332618Y296524D01*
X332734Y295648D01*
X333071Y294833D01*
X333609Y294132D01*
X334309Y293595D01*
X335125Y293257D01*
X336000Y293142D01*
X336875Y293257D01*
X337691Y293595D01*
X338391Y294132D01*
X338929Y294833D01*
X339266Y295648D01*
X339382Y296524D01*
X339266Y297399D01*
X338929Y298215D01*
X338391Y298915D01*
X337691Y299452D01*
X336875Y299790D01*
X336000Y299905D01*
D02*
G37*
G36*
X550500Y293835D02*
X550186Y293773D01*
X550186Y293773D01*
X549798Y293696D01*
X549532Y293518D01*
X549202Y293298D01*
X549025Y293032D01*
X549025Y293032D01*
X548804Y292702D01*
X548665Y292000D01*
X548727Y291687D01*
X548727Y291686D01*
X548804Y291298D01*
X548982Y291032D01*
Y291032D01*
X549202Y290702D01*
X549798Y290304D01*
X550500Y290165D01*
X550814Y290227D01*
X551202Y290304D01*
X551468Y290482D01*
X551468Y290482D01*
X551798Y290702D01*
X551975Y290968D01*
X552196Y291298D01*
X552335Y292000D01*
X552273Y292314D01*
X552273Y292314D01*
X552196Y292702D01*
X552018Y292968D01*
X552018Y292968D01*
X551798Y293298D01*
X551532Y293475D01*
X551532Y293475D01*
X551202Y293696D01*
X550889Y293758D01*
X550500Y293835D01*
D02*
G37*
G36*
X460000D02*
X459686Y293773D01*
X459686Y293773D01*
X459298Y293696D01*
X459032Y293518D01*
X458702Y293298D01*
X458525Y293032D01*
X458525Y293032D01*
X458304Y292702D01*
X458165Y292000D01*
X458227Y291687D01*
X458227Y291686D01*
X458304Y291298D01*
X458482Y291032D01*
Y291032D01*
X458702Y290702D01*
X459298Y290304D01*
X460000Y290165D01*
X460314Y290227D01*
X460702Y290304D01*
X460968Y290482D01*
X460968Y290482D01*
X461298Y290702D01*
X461475Y290968D01*
X461696Y291298D01*
X461835Y292000D01*
X461773Y292314D01*
X461773Y292314D01*
X461696Y292702D01*
X461518Y292968D01*
X461518Y292968D01*
X461298Y293298D01*
X461032Y293475D01*
X461032Y293475D01*
X460702Y293696D01*
X460389Y293758D01*
X460000Y293835D01*
D02*
G37*
G36*
X369500D02*
X369186Y293773D01*
X369186Y293773D01*
X368798Y293696D01*
X368532Y293518D01*
X368202Y293298D01*
X368025Y293032D01*
X368025Y293032D01*
X367804Y292702D01*
X367665Y292000D01*
X367727Y291687D01*
X367727Y291686D01*
X367804Y291298D01*
X367982Y291032D01*
Y291032D01*
X368202Y290702D01*
X368798Y290304D01*
X369500Y290165D01*
X369814Y290227D01*
X370202Y290304D01*
X370468Y290482D01*
X370468Y290482D01*
X370798Y290702D01*
X370975Y290968D01*
X371196Y291298D01*
X371335Y292000D01*
X371273Y292314D01*
X371273Y292314D01*
X371196Y292702D01*
X371018Y292968D01*
X371018Y292968D01*
X370798Y293298D01*
X370532Y293475D01*
X370532Y293475D01*
X370202Y293696D01*
X369889Y293758D01*
X369500Y293835D01*
D02*
G37*
G36*
X279000D02*
X278686Y293773D01*
X278686Y293773D01*
X278298Y293696D01*
X278032Y293518D01*
X278032Y293518D01*
X277702Y293298D01*
X277525Y293032D01*
X277304Y292702D01*
X277165Y292000D01*
X277227Y291687D01*
X277227Y291686D01*
X277304Y291298D01*
X277482Y291032D01*
X277702Y290702D01*
X277968Y290525D01*
X277968Y290525D01*
X278298Y290304D01*
X279000Y290165D01*
X279314Y290227D01*
X279702Y290304D01*
X279968Y290482D01*
X280298Y290702D01*
X280475Y290968D01*
X280696Y291298D01*
X280835Y292000D01*
X280773Y292314D01*
X280773Y292314D01*
X280696Y292702D01*
X280518Y292968D01*
X280518Y292968D01*
X280298Y293298D01*
X280032Y293475D01*
X280032D01*
X279702Y293696D01*
X279389Y293758D01*
X279000Y293835D01*
D02*
G37*
G36*
X531000Y274335D02*
X530687Y274273D01*
X530298Y274196D01*
X528500Y273884D01*
X526702Y274196D01*
X526389Y274258D01*
X526000Y274335D01*
X525686Y274273D01*
X525298Y274196D01*
X523500Y273884D01*
X521702Y274196D01*
X521000Y274335D01*
X521000Y274335D01*
X520686Y274273D01*
X520298Y274196D01*
X520298Y274196D01*
X520032Y274018D01*
X519702Y273798D01*
X519702Y273798D01*
X519525Y273532D01*
X519305Y273202D01*
X519304Y273202D01*
X519165Y272500D01*
X519165Y272500D01*
X519304Y271798D01*
Y271798D01*
X519702Y271202D01*
X519702Y270298D01*
X519304Y269702D01*
X519165Y269000D01*
X519304Y268275D01*
Y265725D01*
X519165Y265000D01*
X519165Y265000D01*
X519227Y264686D01*
D01*
X519304Y264298D01*
X519305Y264298D01*
X519482Y264032D01*
X519702Y263702D01*
X519968Y263525D01*
X520298Y263304D01*
X521000Y263165D01*
X521000Y263165D01*
X521313Y263227D01*
X521702Y263304D01*
X523500Y263616D01*
X525298Y263304D01*
X525611Y263242D01*
X526000Y263165D01*
X526314Y263227D01*
X526702Y263304D01*
X528500Y263616D01*
X530298Y263304D01*
X531000Y263165D01*
X531000Y263165D01*
X531314Y263227D01*
X531702Y263304D01*
X531968Y263482D01*
X532298Y263702D01*
X532475Y263968D01*
X532695Y264298D01*
X532696Y264298D01*
X532835Y265000D01*
X532835Y265000D01*
X532775Y265312D01*
X532696Y265725D01*
Y268275D01*
X532835Y269000D01*
X532696Y269702D01*
X532298Y270298D01*
X532298Y271202D01*
X532696Y271798D01*
Y271798D01*
X532835Y272500D01*
X532835Y272500D01*
X532696Y273202D01*
X532695Y273202D01*
X532518Y273468D01*
X532298Y273798D01*
X532298Y273798D01*
X532032Y273975D01*
X531702Y274196D01*
X531702Y274196D01*
X531389Y274258D01*
X531389D01*
X531000Y274335D01*
X531000Y274335D01*
D02*
G37*
G36*
X440000D02*
X439686Y274273D01*
X439298Y274196D01*
X437500Y273884D01*
X435702Y274196D01*
X435389Y274258D01*
X435000Y274335D01*
X434686Y274273D01*
X434298Y274196D01*
X432500Y273884D01*
X430702Y274196D01*
X430000Y274335D01*
X430000Y274335D01*
X429686Y274273D01*
X429298Y274196D01*
X429298Y274196D01*
X429032Y274018D01*
X428702Y273798D01*
X428702Y273798D01*
X428525Y273532D01*
X428304Y273202D01*
X428304Y273202D01*
X428165Y272500D01*
X428165Y272500D01*
X428304Y271798D01*
Y271798D01*
X428702Y271202D01*
X428702Y270298D01*
X428304Y269702D01*
X428165Y269000D01*
X428304Y268275D01*
Y265725D01*
X428165Y265000D01*
X428165Y265000D01*
X428227Y264686D01*
D01*
X428304Y264298D01*
X428304Y264298D01*
X428482Y264032D01*
X428702Y263702D01*
X428968Y263525D01*
X429298Y263304D01*
X430000Y263165D01*
X430000Y263165D01*
X430313Y263227D01*
X430702Y263304D01*
X432500Y263616D01*
X434298Y263304D01*
X434611Y263242D01*
X435000Y263165D01*
X435314Y263227D01*
X435702Y263304D01*
X437500Y263616D01*
X439298Y263304D01*
X440000Y263165D01*
X440000Y263165D01*
X440314Y263227D01*
X440702Y263304D01*
X440968Y263482D01*
X441298Y263702D01*
X441475Y263968D01*
X441695Y264298D01*
X441696Y264298D01*
X441835Y265000D01*
X441835Y265000D01*
X441775Y265312D01*
X441696Y265725D01*
Y268275D01*
X441835Y269000D01*
X441696Y269702D01*
X441298Y270298D01*
X441298Y271202D01*
X441696Y271798D01*
Y271798D01*
X441835Y272500D01*
X441835Y272500D01*
X441696Y273202D01*
X441695Y273202D01*
X441518Y273468D01*
X441298Y273798D01*
X441298Y273798D01*
X441032Y273975D01*
X440702Y274196D01*
X440702Y274196D01*
X440389Y274258D01*
X440389D01*
X440000Y274335D01*
X440000Y274335D01*
D02*
G37*
G36*
X350000D02*
X349687Y274273D01*
X349298Y274196D01*
X347500Y273884D01*
X345702Y274196D01*
X345389Y274258D01*
X345000Y274335D01*
X344686Y274273D01*
X344298Y274196D01*
X342500Y273884D01*
X340702Y274196D01*
X340000Y274335D01*
X340000Y274335D01*
X339686Y274273D01*
X339298Y274196D01*
X339298Y274196D01*
X339032Y274018D01*
X338702Y273798D01*
X338702Y273798D01*
X338525Y273532D01*
X338304Y273202D01*
X338304Y273202D01*
X338165Y272500D01*
X338165Y272500D01*
X338304Y271798D01*
Y271798D01*
X338702Y271202D01*
X338702Y270298D01*
X338304Y269702D01*
X338165Y269000D01*
X338304Y268275D01*
Y265725D01*
X338165Y265000D01*
X338165Y265000D01*
X338227Y264686D01*
D01*
X338304Y264298D01*
X338304Y264298D01*
X338482Y264032D01*
X338702Y263702D01*
X338968Y263525D01*
X339298Y263304D01*
X340000Y263165D01*
X340000Y263165D01*
X340314Y263227D01*
X340702Y263304D01*
X342500Y263616D01*
X344298Y263304D01*
X344611Y263242D01*
X345000Y263165D01*
X345314Y263227D01*
X345702Y263304D01*
X347500Y263616D01*
X349298Y263304D01*
X350000Y263165D01*
X350000Y263165D01*
X350314Y263227D01*
X350702Y263304D01*
X350968Y263482D01*
X351298Y263702D01*
X351475Y263968D01*
X351695Y264298D01*
X351696Y264298D01*
X351835Y265000D01*
X351835Y265000D01*
X351775Y265312D01*
X351696Y265725D01*
Y268275D01*
X351835Y269000D01*
X351696Y269702D01*
X351298Y270298D01*
X351298Y271202D01*
X351696Y271798D01*
Y271798D01*
X351835Y272500D01*
X351835Y272500D01*
X351696Y273202D01*
X351695Y273202D01*
X351518Y273468D01*
X351298Y273798D01*
X351298Y273798D01*
X351032Y273975D01*
X350702Y274196D01*
X350702Y274196D01*
X350389Y274258D01*
X350389D01*
X350000Y274335D01*
X350000Y274335D01*
D02*
G37*
G36*
X548246Y280337D02*
X539572D01*
Y271663D01*
X548246D01*
Y280337D01*
D02*
G37*
G36*
X457747D02*
X449072D01*
Y271663D01*
X457747D01*
Y280337D01*
D02*
G37*
G36*
X367247D02*
X358572D01*
Y271663D01*
X367247D01*
Y280337D01*
D02*
G37*
G36*
X276747D02*
X268072D01*
Y271663D01*
X276747D01*
Y280337D01*
D02*
G37*
G36*
X585090Y280374D02*
X583958Y280225D01*
X582903Y279788D01*
X581997Y279093D01*
X581302Y278187D01*
X580865Y277132D01*
X580716Y276000D01*
X580865Y274868D01*
X581302Y273813D01*
X581997Y272907D01*
X582903Y272212D01*
X583958Y271775D01*
X585090Y271626D01*
X586223Y271775D01*
X587278Y272212D01*
X588184Y272907D01*
X588879Y273813D01*
X589316Y274868D01*
X589465Y276000D01*
X589316Y277132D01*
X588879Y278187D01*
X588184Y279093D01*
X587278Y279788D01*
X586223Y280225D01*
X585090Y280374D01*
D02*
G37*
G36*
X494591D02*
X493458Y280225D01*
X492403Y279788D01*
X491497Y279093D01*
X490802Y278187D01*
X490365Y277132D01*
X490216Y276000D01*
X490365Y274868D01*
X490802Y273813D01*
X491497Y272907D01*
X492403Y272212D01*
X493458Y271775D01*
X494591Y271626D01*
X495723Y271775D01*
X496778Y272212D01*
X497684Y272907D01*
X498379Y273813D01*
X498816Y274868D01*
X498965Y276000D01*
X498816Y277132D01*
X498379Y278187D01*
X497684Y279093D01*
X496778Y279788D01*
X495723Y280225D01*
X494591Y280374D01*
D02*
G37*
G36*
X404090D02*
X402958Y280225D01*
X401903Y279788D01*
X400997Y279093D01*
X400302Y278187D01*
X399865Y277132D01*
X399716Y276000D01*
X399865Y274868D01*
X400302Y273813D01*
X400997Y272907D01*
X401903Y272212D01*
X402958Y271775D01*
X404090Y271626D01*
X405223Y271775D01*
X406278Y272212D01*
X407184Y272907D01*
X407879Y273813D01*
X408316Y274868D01*
X408465Y276000D01*
X408316Y277132D01*
X407879Y278187D01*
X407184Y279093D01*
X406278Y279788D01*
X405223Y280225D01*
X404090Y280374D01*
D02*
G37*
G36*
X313591D02*
X312458Y280225D01*
X311403Y279788D01*
X310497Y279093D01*
X309802Y278187D01*
X309365Y277132D01*
X309216Y276000D01*
X309365Y274868D01*
X309802Y273813D01*
X310497Y272907D01*
X311403Y272212D01*
X312458Y271775D01*
X313591Y271626D01*
X314723Y271775D01*
X315778Y272212D01*
X316684Y272907D01*
X317379Y273813D01*
X317816Y274868D01*
X317965Y276000D01*
X317816Y277132D01*
X317379Y278187D01*
X316684Y279093D01*
X315778Y279788D01*
X314723Y280225D01*
X313591Y280374D01*
D02*
G37*
G36*
X602928Y266337D02*
X594253D01*
Y257663D01*
X602928D01*
Y266337D01*
D02*
G37*
G36*
X512428D02*
X503754D01*
Y257663D01*
X512428D01*
Y266337D01*
D02*
G37*
G36*
X421928D02*
X413253D01*
Y257663D01*
X421928D01*
Y266337D01*
D02*
G37*
G36*
X331428D02*
X322754D01*
Y257663D01*
X331428D01*
Y266337D01*
D02*
G37*
G36*
X557409Y266374D02*
X556277Y266225D01*
X555222Y265788D01*
X554316Y265093D01*
X553621Y264187D01*
X553184Y263132D01*
X553035Y262000D01*
X553184Y260868D01*
X553621Y259813D01*
X554316Y258907D01*
X555222Y258212D01*
X556277Y257775D01*
X557409Y257626D01*
X558542Y257775D01*
X559597Y258212D01*
X560503Y258907D01*
X561198Y259813D01*
X561635Y260868D01*
X561784Y262000D01*
X561635Y263132D01*
X561198Y264187D01*
X560503Y265093D01*
X559597Y265788D01*
X558542Y266225D01*
X557409Y266374D01*
D02*
G37*
G36*
X466910D02*
X465777Y266225D01*
X464722Y265788D01*
X463816Y265093D01*
X463121Y264187D01*
X462684Y263132D01*
X462535Y262000D01*
X462684Y260868D01*
X463121Y259813D01*
X463816Y258907D01*
X464722Y258212D01*
X465777Y257775D01*
X466910Y257626D01*
X468042Y257775D01*
X469097Y258212D01*
X470003Y258907D01*
X470698Y259813D01*
X471135Y260868D01*
X471284Y262000D01*
X471135Y263132D01*
X470698Y264187D01*
X470003Y265093D01*
X469097Y265788D01*
X468042Y266225D01*
X466910Y266374D01*
D02*
G37*
G36*
X376410D02*
X375277Y266225D01*
X374222Y265788D01*
X373316Y265093D01*
X372621Y264187D01*
X372184Y263132D01*
X372035Y262000D01*
X372184Y260868D01*
X372621Y259813D01*
X373316Y258907D01*
X374222Y258212D01*
X375277Y257775D01*
X376410Y257626D01*
X377542Y257775D01*
X378597Y258212D01*
X379503Y258907D01*
X380198Y259813D01*
X380635Y260868D01*
X380784Y262000D01*
X380635Y263132D01*
X380198Y264187D01*
X379503Y265093D01*
X378597Y265788D01*
X377542Y266225D01*
X376410Y266374D01*
D02*
G37*
G36*
X285910D02*
X284777Y266225D01*
X283722Y265788D01*
X282816Y265093D01*
X282121Y264187D01*
X281684Y263132D01*
X281535Y262000D01*
X281684Y260868D01*
X282121Y259813D01*
X282816Y258907D01*
X283722Y258212D01*
X284777Y257775D01*
X285910Y257626D01*
X287042Y257775D01*
X288097Y258212D01*
X289003Y258907D01*
X289698Y259813D01*
X290135Y260868D01*
X290284Y262000D01*
X290135Y263132D01*
X289698Y264187D01*
X289003Y265093D01*
X288097Y265788D01*
X287042Y266225D01*
X285910Y266374D01*
D02*
G37*
G36*
X592000Y247835D02*
X591686Y247773D01*
X591686D01*
X591298Y247696D01*
X591032Y247518D01*
X590702Y247298D01*
X590525Y247032D01*
X590525Y247032D01*
X590304Y246702D01*
X590165Y246000D01*
X590227Y245687D01*
X590227Y245686D01*
X590304Y245298D01*
X590482Y245032D01*
X590702Y244702D01*
X590779Y244651D01*
X591298Y244304D01*
X592000Y244165D01*
X592313Y244227D01*
X592314D01*
X592702Y244304D01*
X592968Y244482D01*
X593298Y244702D01*
X593475Y244968D01*
X593696Y245298D01*
X593835Y246000D01*
X593773Y246314D01*
X593696Y246702D01*
X593518Y246968D01*
X593298Y247298D01*
X593032Y247475D01*
X593032Y247475D01*
X592702Y247696D01*
X592389Y247758D01*
X592000Y247835D01*
D02*
G37*
G36*
X501500D02*
X501186Y247773D01*
X501186D01*
X500798Y247696D01*
X500532Y247518D01*
X500202Y247298D01*
X500025Y247032D01*
X500025Y247032D01*
X499804Y246702D01*
X499665Y246000D01*
X499727Y245687D01*
X499727Y245686D01*
X499804Y245298D01*
X499982Y245032D01*
X500202Y244702D01*
X500280Y244651D01*
X500798Y244304D01*
X501500Y244165D01*
X501814Y244227D01*
X501814D01*
X502202Y244304D01*
X502468Y244482D01*
X502798Y244702D01*
X502975Y244968D01*
X503196Y245298D01*
X503335Y246000D01*
X503273Y246314D01*
X503196Y246702D01*
X503018Y246968D01*
X502798Y247298D01*
X502532Y247475D01*
X502532Y247475D01*
X502202Y247696D01*
X501889Y247758D01*
X501500Y247835D01*
D02*
G37*
G36*
X411000D02*
X410686Y247773D01*
X410686D01*
X410298Y247696D01*
X410032Y247518D01*
X409702Y247298D01*
X409525Y247032D01*
X409525Y247032D01*
X409304Y246702D01*
X409165Y246000D01*
X409227Y245687D01*
X409227Y245686D01*
X409304Y245298D01*
X409482Y245032D01*
X409702Y244702D01*
X409780Y244651D01*
X410298Y244304D01*
X411000Y244165D01*
X411313Y244227D01*
X411314D01*
X411702Y244304D01*
X411968Y244482D01*
X412298Y244702D01*
X412475Y244968D01*
X412696Y245298D01*
X412835Y246000D01*
X412773Y246314D01*
X412696Y246702D01*
X412518Y246968D01*
X412298Y247298D01*
X412032Y247475D01*
X412032Y247475D01*
X411702Y247696D01*
X411389Y247758D01*
X411000Y247835D01*
D02*
G37*
G36*
X320500D02*
X320186Y247773D01*
X320186Y247773D01*
X319798Y247696D01*
X319532Y247518D01*
X319202Y247298D01*
X319025Y247032D01*
X318804Y246702D01*
X318665Y246000D01*
X318727Y245687D01*
X318727Y245686D01*
X318804Y245298D01*
X318982Y245032D01*
X319202Y244702D01*
X319468Y244525D01*
X319468Y244525D01*
X319798Y244304D01*
X320500Y244165D01*
X320814Y244227D01*
X321202Y244304D01*
X321468Y244482D01*
Y244482D01*
X321798Y244702D01*
X321975Y244968D01*
X322196Y245298D01*
X322335Y246000D01*
X322273Y246314D01*
X322273Y246314D01*
X322196Y246702D01*
X322042Y246931D01*
X321798Y247298D01*
X321532Y247475D01*
X321532D01*
X321202Y247696D01*
X320889Y247758D01*
X320500Y247835D01*
D02*
G37*
G36*
X522853Y244829D02*
X516147D01*
Y238124D01*
X522853D01*
Y244829D01*
D02*
G37*
G36*
X432353D02*
X425647D01*
Y238124D01*
X432353D01*
Y244829D01*
D02*
G37*
G36*
X341853D02*
X335147D01*
Y238124D01*
X341853D01*
Y244829D01*
D02*
G37*
G36*
X535000Y244858D02*
X534125Y244743D01*
X533309Y244405D01*
X532609Y243868D01*
X532071Y243167D01*
X531734Y242352D01*
X531618Y241476D01*
X531734Y240601D01*
X532071Y239786D01*
X532609Y239085D01*
X533309Y238548D01*
X534125Y238210D01*
X535000Y238095D01*
X535875Y238210D01*
X536691Y238548D01*
X537391Y239085D01*
X537929Y239786D01*
X538266Y240601D01*
X538382Y241476D01*
X538266Y242352D01*
X537929Y243167D01*
X537391Y243868D01*
X536691Y244405D01*
X535875Y244743D01*
X535000Y244858D01*
D02*
G37*
G36*
X444500D02*
X443625Y244743D01*
X442809Y244405D01*
X442109Y243868D01*
X441571Y243167D01*
X441234Y242352D01*
X441118Y241476D01*
X441234Y240601D01*
X441571Y239786D01*
X442109Y239085D01*
X442809Y238548D01*
X443625Y238210D01*
X444500Y238095D01*
X445375Y238210D01*
X446191Y238548D01*
X446891Y239085D01*
X447429Y239786D01*
X447766Y240601D01*
X447882Y241476D01*
X447766Y242352D01*
X447429Y243167D01*
X446891Y243868D01*
X446191Y244405D01*
X445375Y244743D01*
X444500Y244858D01*
D02*
G37*
G36*
X354000D02*
X353125Y244743D01*
X352309Y244405D01*
X351609Y243868D01*
X351071Y243167D01*
X350734Y242352D01*
X350618Y241476D01*
X350734Y240601D01*
X351071Y239786D01*
X351609Y239085D01*
X352309Y238548D01*
X353125Y238210D01*
X354000Y238095D01*
X354875Y238210D01*
X355691Y238548D01*
X356391Y239085D01*
X356929Y239786D01*
X357266Y240601D01*
X357382Y241476D01*
X357266Y242352D01*
X356929Y243167D01*
X356391Y243868D01*
X355691Y244405D01*
X354875Y244743D01*
X354000Y244858D01*
D02*
G37*
G36*
X584500Y233835D02*
X584186Y233773D01*
X584186D01*
X583798Y233696D01*
X583532Y233518D01*
X583532Y233518D01*
X583202Y233298D01*
X583025Y233032D01*
X583025Y233032D01*
X582804Y232702D01*
X582665Y232000D01*
X582727Y231686D01*
X582727Y231686D01*
X582804Y231298D01*
X582982Y231032D01*
X583202Y230702D01*
X583280Y230651D01*
X583798Y230304D01*
X584500Y230165D01*
X584813Y230227D01*
X584814D01*
X585202Y230304D01*
X585468Y230482D01*
X585468Y230482D01*
X585798Y230702D01*
X585929Y230899D01*
X586196Y231298D01*
X586335Y232000D01*
X586273Y232314D01*
X586196Y232702D01*
X586018Y232968D01*
X586018D01*
X585798Y233298D01*
X585532Y233475D01*
X585532Y233475D01*
X585202Y233696D01*
X584889Y233758D01*
X584500Y233835D01*
D02*
G37*
G36*
X494000D02*
X493686Y233773D01*
X493686D01*
X493298Y233696D01*
X493032Y233518D01*
X493032Y233518D01*
X492702Y233298D01*
X492525Y233032D01*
X492525Y233032D01*
X492304Y232702D01*
X492165Y232000D01*
X492227Y231686D01*
X492227Y231686D01*
X492304Y231298D01*
X492482Y231032D01*
X492702Y230702D01*
X492779Y230651D01*
X493298Y230304D01*
X494000Y230165D01*
X494313Y230227D01*
X494314D01*
X494702Y230304D01*
X494968Y230482D01*
X494968Y230482D01*
X495298Y230702D01*
X495429Y230899D01*
X495696Y231298D01*
X495835Y232000D01*
X495773Y232314D01*
X495696Y232702D01*
X495518Y232968D01*
X495518D01*
X495298Y233298D01*
X495032Y233475D01*
X495032Y233475D01*
X494702Y233696D01*
X494389Y233758D01*
X494000Y233835D01*
D02*
G37*
G36*
X403500D02*
X403187Y233773D01*
X403186D01*
X402798Y233696D01*
X402532Y233518D01*
X402532Y233518D01*
X402202Y233298D01*
X402025Y233032D01*
X402025Y233032D01*
X401804Y232702D01*
X401665Y232000D01*
X401727Y231686D01*
X401727Y231686D01*
X401804Y231298D01*
X401982Y231032D01*
X402202Y230702D01*
X402280Y230651D01*
X402798Y230304D01*
X403500Y230165D01*
X403814Y230227D01*
X403814D01*
X404202Y230304D01*
X404468Y230482D01*
X404468Y230482D01*
X404798Y230702D01*
X404929Y230899D01*
X405196Y231298D01*
X405335Y232000D01*
X405273Y232314D01*
X405196Y232702D01*
X405018Y232968D01*
X405018D01*
X404798Y233298D01*
X404532Y233475D01*
X404532Y233475D01*
X404202Y233696D01*
X403889Y233758D01*
X403500Y233835D01*
D02*
G37*
G36*
X313000D02*
X312686Y233773D01*
X312298Y233696D01*
X312032Y233518D01*
X311702Y233298D01*
X311525Y233032D01*
X311304Y232702D01*
X311165Y232000D01*
X311227Y231686D01*
X311227Y231686D01*
X311304Y231298D01*
X311457Y231069D01*
X311702Y230702D01*
X311968Y230525D01*
X311968Y230525D01*
X312298Y230304D01*
X313000Y230165D01*
X313314Y230227D01*
X313314Y230227D01*
X313702Y230304D01*
X313968Y230482D01*
Y230482D01*
X314298Y230702D01*
X314475Y230968D01*
X314696Y231298D01*
X314835Y232000D01*
X314773Y232314D01*
X314773Y232314D01*
X314696Y232702D01*
X314518Y232968D01*
X314298Y233298D01*
X314032Y233475D01*
X314032D01*
X313702Y233696D01*
X313389Y233758D01*
X313000Y233835D01*
D02*
G37*
G36*
X562500Y233335D02*
X562186Y233273D01*
X562186D01*
X561798Y233196D01*
X561532Y233018D01*
X561202Y232798D01*
X561025Y232532D01*
X561025Y232532D01*
X560804Y232202D01*
X560665Y231500D01*
X560727Y231187D01*
X560727Y231186D01*
X560804Y230798D01*
X560982Y230532D01*
X561202Y230202D01*
X561279Y230151D01*
X561798Y229804D01*
X562500Y229665D01*
X562814Y229727D01*
X562814D01*
X563202Y229804D01*
X563468Y229982D01*
X563798Y230202D01*
X563975Y230468D01*
X564196Y230798D01*
X564335Y231500D01*
X564273Y231814D01*
X564196Y232202D01*
X564018Y232468D01*
X563798Y232798D01*
X563532Y232975D01*
X563532Y232975D01*
X563202Y233196D01*
X562889Y233258D01*
X562500Y233335D01*
D02*
G37*
G36*
X472000D02*
X471686Y233273D01*
X471686D01*
X471298Y233196D01*
X471032Y233018D01*
X470702Y232798D01*
X470525Y232532D01*
X470525Y232532D01*
X470304Y232202D01*
X470165Y231500D01*
X470227Y231187D01*
X470227Y231186D01*
X470304Y230798D01*
X470482Y230532D01*
X470702Y230202D01*
X470780Y230151D01*
X471298Y229804D01*
X472000Y229665D01*
X472313Y229727D01*
X472314D01*
X472702Y229804D01*
X472968Y229982D01*
X473298Y230202D01*
X473475Y230468D01*
X473696Y230798D01*
X473835Y231500D01*
X473773Y231814D01*
X473696Y232202D01*
X473518Y232468D01*
X473298Y232798D01*
X473032Y232975D01*
X473032Y232975D01*
X472702Y233196D01*
X472389Y233258D01*
X472000Y233335D01*
D02*
G37*
G36*
X381500D02*
X381187Y233273D01*
X381186D01*
X380798Y233196D01*
X380532Y233018D01*
X380202Y232798D01*
X380025Y232532D01*
X380025Y232532D01*
X379804Y232202D01*
X379665Y231500D01*
X379727Y231187D01*
X379727Y231186D01*
X379804Y230798D01*
X379982Y230532D01*
X380202Y230202D01*
X380279Y230151D01*
X380798Y229804D01*
X381500Y229665D01*
X381814Y229727D01*
X381814D01*
X382202Y229804D01*
X382468Y229982D01*
X382798Y230202D01*
X382975Y230468D01*
X383196Y230798D01*
X383335Y231500D01*
X383273Y231814D01*
X383196Y232202D01*
X383018Y232468D01*
X382798Y232798D01*
X382532Y232975D01*
X382532Y232975D01*
X382202Y233196D01*
X381889Y233258D01*
X381500Y233335D01*
D02*
G37*
G36*
X291000D02*
X290686Y233273D01*
X290298Y233196D01*
X290032Y233018D01*
X289702Y232798D01*
X289525Y232532D01*
X289304Y232202D01*
X289165Y231500D01*
X289227Y231187D01*
X289227Y231186D01*
X289304Y230798D01*
X289482Y230532D01*
X289482Y230532D01*
X289702Y230202D01*
X289968Y230025D01*
X289968Y230025D01*
X290298Y229804D01*
X291000Y229665D01*
X291314Y229727D01*
X291702Y229804D01*
X291968Y229982D01*
X292298Y230202D01*
X292475Y230468D01*
X292696Y230798D01*
X292835Y231500D01*
X292773Y231814D01*
X292773Y231814D01*
X292696Y232202D01*
X292518Y232468D01*
X292518Y232468D01*
X292298Y232798D01*
X292032Y232975D01*
X292032D01*
X291702Y233196D01*
X291389Y233258D01*
X291000Y233335D01*
D02*
G37*
G36*
X538353Y216876D02*
X531647D01*
Y210171D01*
X538353D01*
Y216876D01*
D02*
G37*
G36*
X447853D02*
X441147D01*
Y210171D01*
X447853D01*
Y216876D01*
D02*
G37*
G36*
X357353D02*
X350647D01*
Y210171D01*
X357353D01*
Y216876D01*
D02*
G37*
G36*
X266853D02*
X260147D01*
Y210171D01*
X266853D01*
Y216876D01*
D02*
G37*
G36*
X610000Y216905D02*
X609125Y216790D01*
X608309Y216452D01*
X607609Y215915D01*
X607071Y215214D01*
X606734Y214399D01*
X606618Y213524D01*
X606734Y212648D01*
X607071Y211833D01*
X607609Y211132D01*
X608309Y210595D01*
X609125Y210257D01*
X610000Y210142D01*
X610875Y210257D01*
X611691Y210595D01*
X612391Y211132D01*
X612929Y211833D01*
X613266Y212648D01*
X613382Y213524D01*
X613266Y214399D01*
X612929Y215214D01*
X612391Y215915D01*
X611691Y216452D01*
X610875Y216790D01*
X610000Y216905D01*
D02*
G37*
G36*
X519500D02*
X518625Y216790D01*
X517809Y216452D01*
X517109Y215915D01*
X516571Y215214D01*
X516234Y214399D01*
X516118Y213524D01*
X516234Y212648D01*
X516571Y211833D01*
X517109Y211132D01*
X517809Y210595D01*
X518625Y210257D01*
X519500Y210142D01*
X520375Y210257D01*
X521191Y210595D01*
X521891Y211132D01*
X522429Y211833D01*
X522766Y212648D01*
X522882Y213524D01*
X522766Y214399D01*
X522429Y215214D01*
X521891Y215915D01*
X521191Y216452D01*
X520375Y216790D01*
X519500Y216905D01*
D02*
G37*
G36*
X429000D02*
X428125Y216790D01*
X427309Y216452D01*
X426609Y215915D01*
X426071Y215214D01*
X425734Y214399D01*
X425618Y213524D01*
X425734Y212648D01*
X426071Y211833D01*
X426609Y211132D01*
X427309Y210595D01*
X428125Y210257D01*
X429000Y210142D01*
X429875Y210257D01*
X430691Y210595D01*
X431391Y211132D01*
X431929Y211833D01*
X432266Y212648D01*
X432382Y213524D01*
X432266Y214399D01*
X431929Y215214D01*
X431391Y215915D01*
X430691Y216452D01*
X429875Y216790D01*
X429000Y216905D01*
D02*
G37*
G36*
X338500D02*
X337625Y216790D01*
X336809Y216452D01*
X336109Y215915D01*
X335571Y215214D01*
X335234Y214399D01*
X335118Y213524D01*
X335234Y212648D01*
X335571Y211833D01*
X336109Y211132D01*
X336809Y210595D01*
X337625Y210257D01*
X338500Y210142D01*
X339375Y210257D01*
X340191Y210595D01*
X340891Y211132D01*
X341429Y211833D01*
X341766Y212648D01*
X341882Y213524D01*
X341766Y214399D01*
X341429Y215214D01*
X340891Y215915D01*
X340191Y216452D01*
X339375Y216790D01*
X338500Y216905D01*
D02*
G37*
G36*
X478000Y207335D02*
X477719Y207279D01*
X477687Y207274D01*
X477687D01*
X477166Y207188D01*
X475750Y207109D01*
X474334Y207188D01*
X473781Y207279D01*
X473500Y207335D01*
X473500Y207335D01*
X473186Y207273D01*
D01*
X472798Y207196D01*
X472798Y207195D01*
X472532Y207018D01*
X472202Y206798D01*
X472202Y206798D01*
X472025Y206532D01*
D01*
X471804Y206202D01*
X471665Y205500D01*
X471727Y205187D01*
X471727Y205186D01*
X471804Y204798D01*
X471982Y204532D01*
X472202Y204202D01*
X472292Y204142D01*
X472798Y203804D01*
X473500Y203665D01*
X475644Y203779D01*
X475916Y203772D01*
X478000Y203665D01*
X478000Y203665D01*
X478314Y203727D01*
X478702Y203804D01*
X478968Y203982D01*
Y203982D01*
X479298Y204202D01*
X479298Y204202D01*
X479475Y204468D01*
D01*
X479696Y204798D01*
X479835Y205500D01*
X479773Y205814D01*
X479773Y205814D01*
X479696Y206202D01*
X479518Y206468D01*
D01*
X479298Y206798D01*
X479298Y206798D01*
X479032Y206975D01*
X479032D01*
X478702Y207196D01*
X478702Y207196D01*
X478389Y207258D01*
X478389Y207258D01*
X478000Y207335D01*
X478000Y207335D01*
D02*
G37*
G36*
X568500D02*
X566423Y207225D01*
X565725Y207247D01*
X564000Y207335D01*
X564000Y207335D01*
X563686Y207273D01*
X563298Y207196D01*
X563298Y207196D01*
X563032Y207018D01*
X563032D01*
X562702Y206798D01*
X562702Y206798D01*
X562525Y206532D01*
D01*
X562304Y206202D01*
X562304Y206202D01*
X562165Y205500D01*
X562227Y205187D01*
Y205186D01*
X562304Y204798D01*
X562482Y204532D01*
X562702Y204202D01*
X562792Y204142D01*
X563298Y203804D01*
X564000Y203665D01*
X566144Y203779D01*
X566416Y203772D01*
X568500Y203665D01*
X568500Y203665D01*
X568814Y203727D01*
X569202Y203804D01*
X569468Y203982D01*
X569798Y204202D01*
X569798Y204202D01*
X569975Y204468D01*
X570196Y204798D01*
X570335Y205500D01*
X570287Y205744D01*
X570196Y206202D01*
X570018Y206468D01*
X570018Y206468D01*
X569798Y206798D01*
X569532Y206975D01*
X569532Y206975D01*
X569202Y207196D01*
X568889Y207258D01*
X568889Y207258D01*
X568798Y207276D01*
X568500Y207335D01*
D02*
G37*
G36*
X387500D02*
X385423Y207225D01*
X384725Y207247D01*
X383000Y207335D01*
X383000Y207335D01*
X382686Y207273D01*
X382298Y207196D01*
X382298Y207196D01*
X382032Y207018D01*
X381702Y206798D01*
X381702Y206798D01*
X381525Y206532D01*
D01*
X381304Y206202D01*
X381304Y206202D01*
X381165Y205500D01*
X381227Y205187D01*
Y205186D01*
X381304Y204798D01*
X381482Y204532D01*
Y204532D01*
X381702Y204202D01*
Y204202D01*
X381968Y204025D01*
X381968Y204025D01*
X382298Y203804D01*
X382298Y203804D01*
X383000Y203665D01*
X383000Y203665D01*
X383281Y203720D01*
X383313Y203726D01*
X383313D01*
X383834Y203812D01*
X385250Y203890D01*
X386666Y203812D01*
X387219Y203721D01*
X387500Y203665D01*
X387500Y203665D01*
X387814Y203727D01*
D01*
X388202Y203804D01*
X388202Y203804D01*
X388468Y203982D01*
X388468Y203982D01*
X388798Y204202D01*
X388798Y204202D01*
X388975Y204468D01*
X389196Y204798D01*
X389335Y205500D01*
X389287Y205744D01*
X389196Y206202D01*
X389018Y206468D01*
X389018Y206468D01*
X388798Y206798D01*
X388532Y206975D01*
X388532Y206975D01*
X388202Y207196D01*
X387889Y207258D01*
X387889Y207258D01*
X387798Y207276D01*
X387500Y207335D01*
D02*
G37*
G36*
X297000D02*
X294923Y207225D01*
X294366Y207242D01*
X292500Y207335D01*
X292186Y207273D01*
X291798Y207196D01*
X291798Y207196D01*
X291532Y207018D01*
X291202Y206798D01*
X291202Y206798D01*
X291025Y206532D01*
D01*
X290804Y206202D01*
X290804Y206202D01*
X290665Y205500D01*
X290727Y205187D01*
Y205186D01*
X290804Y204798D01*
X290982Y204532D01*
Y204532D01*
X291202Y204202D01*
Y204202D01*
X291468Y204025D01*
X291468Y204025D01*
X291798Y203804D01*
X291798Y203804D01*
X292500Y203665D01*
X292500Y203665D01*
X292781Y203720D01*
X292813Y203726D01*
X292813D01*
X293334Y203812D01*
X294750Y203890D01*
X296166Y203812D01*
X296719Y203721D01*
X297000Y203665D01*
X297000Y203665D01*
X297314Y203727D01*
D01*
X297702Y203804D01*
X297702Y203804D01*
X297968Y203982D01*
X298298Y204202D01*
X298298Y204202D01*
X298475Y204468D01*
D01*
X298696Y204798D01*
X298835Y205500D01*
X298773Y205814D01*
Y205814D01*
X298696Y206202D01*
X298518Y206468D01*
X298298Y206798D01*
X298032Y206975D01*
X298032Y206975D01*
X297702Y207196D01*
X297389Y207258D01*
X297389Y207258D01*
X297298Y207276D01*
X297000Y207335D01*
D02*
G37*
G36*
X528500Y204835D02*
X528186Y204773D01*
X528186Y204773D01*
X527798Y204696D01*
X527532Y204518D01*
X527202Y204298D01*
X527025Y204032D01*
X527025Y204032D01*
X526804Y203702D01*
X526665Y203000D01*
X526727Y202686D01*
Y202686D01*
X526804Y202298D01*
X526982Y202032D01*
X527202Y201702D01*
X527798Y201304D01*
X528500Y201165D01*
X528814Y201227D01*
X528814Y201227D01*
X529202Y201304D01*
X529468Y201482D01*
X529798Y201702D01*
X529975Y201968D01*
X530196Y202298D01*
X530335Y203000D01*
X530273Y203314D01*
X530196Y203702D01*
X530043Y203931D01*
X529798Y204298D01*
X529532Y204475D01*
X529532Y204475D01*
X529202Y204696D01*
X528889Y204758D01*
X528500Y204835D01*
D02*
G37*
G36*
X438000D02*
X437686Y204773D01*
X437686Y204773D01*
X437298Y204696D01*
X437032Y204518D01*
X436702Y204298D01*
X436525Y204032D01*
X436525Y204032D01*
X436304Y203702D01*
X436165Y203000D01*
X436227Y202686D01*
Y202686D01*
X436304Y202298D01*
X436482Y202032D01*
X436702Y201702D01*
X437298Y201304D01*
X438000Y201165D01*
X438313Y201227D01*
X438314Y201227D01*
X438702Y201304D01*
X438968Y201482D01*
X439298Y201702D01*
X439475Y201968D01*
X439696Y202298D01*
X439835Y203000D01*
X439773Y203314D01*
X439696Y203702D01*
X439542Y203931D01*
X439298Y204298D01*
X439032Y204475D01*
X439032Y204475D01*
X438702Y204696D01*
X438389Y204758D01*
X438000Y204835D01*
D02*
G37*
G36*
X347500D02*
X347186Y204773D01*
X347186Y204773D01*
X346798Y204696D01*
X346532Y204518D01*
X346202Y204298D01*
X346025Y204032D01*
X346025Y204032D01*
X345804Y203702D01*
X345665Y203000D01*
X345727Y202686D01*
Y202686D01*
X345804Y202298D01*
X345982Y202032D01*
X346202Y201702D01*
X346798Y201304D01*
X347500Y201165D01*
X347814Y201227D01*
X347814Y201227D01*
X348202Y201304D01*
X348468Y201482D01*
X348798Y201702D01*
X348975Y201968D01*
X349196Y202298D01*
X349335Y203000D01*
X349273Y203314D01*
X349196Y203702D01*
X349043Y203931D01*
X348798Y204298D01*
X348532Y204475D01*
X348532Y204475D01*
X348202Y204696D01*
X347889Y204758D01*
X347500Y204835D01*
D02*
G37*
G36*
X534000Y127835D02*
X533999Y127835D01*
X532298Y127522D01*
X530702D01*
X529000Y127835D01*
X527298Y127522D01*
X525702D01*
X524001Y127835D01*
X524000Y127835D01*
X524000Y127835D01*
X523686Y127773D01*
D01*
X523298Y127696D01*
X523298Y127696D01*
X523032Y127518D01*
Y127518D01*
X522702Y127298D01*
X522702Y127298D01*
X522525Y127032D01*
D01*
X522304Y126702D01*
X522165Y126000D01*
X522227Y125687D01*
X522227Y125686D01*
X522304Y125298D01*
X522482Y125032D01*
Y125032D01*
X522702Y124702D01*
Y124702D01*
X522968Y124525D01*
X522968Y124525D01*
X523298Y124304D01*
X523298Y124304D01*
X524000Y124165D01*
X524000Y124165D01*
X524001Y124165D01*
X525702Y124478D01*
X527298D01*
X529000Y124165D01*
X530702Y124478D01*
X532298D01*
X533999Y124165D01*
X534000Y124165D01*
X534000Y124165D01*
X534314Y124227D01*
D01*
X534702Y124304D01*
X534702Y124304D01*
X534968Y124482D01*
Y124482D01*
X535298Y124702D01*
X535298Y124702D01*
X535475Y124968D01*
D01*
X535696Y125298D01*
X535835Y126000D01*
X535773Y126314D01*
X535696Y126702D01*
X535518Y126968D01*
Y126968D01*
X535298Y127298D01*
X535298Y127298D01*
X535032Y127475D01*
X535032Y127475D01*
X534702Y127696D01*
X534702Y127696D01*
X534389Y127758D01*
X534389Y127758D01*
X534000Y127835D01*
X534000Y127835D01*
D02*
G37*
G36*
X431853Y129853D02*
X425147D01*
Y123147D01*
X431853D01*
Y129853D01*
D02*
G37*
G36*
X438500Y129882D02*
X437625Y129766D01*
X436809Y129429D01*
X436109Y128891D01*
X435571Y128191D01*
X435234Y127375D01*
X435118Y126500D01*
X435234Y125625D01*
X435571Y124809D01*
X436109Y124109D01*
X436809Y123571D01*
X437625Y123233D01*
X438500Y123118D01*
X439375Y123233D01*
X440191Y123571D01*
X440891Y124109D01*
X441429Y124809D01*
X441766Y125625D01*
X441882Y126500D01*
X441766Y127375D01*
X441429Y128191D01*
X440891Y128891D01*
X440191Y129429D01*
X439375Y129766D01*
X438500Y129882D01*
D02*
G37*
G36*
X472000Y126335D02*
X471686Y126273D01*
X471686D01*
X471298Y126196D01*
X471032Y126018D01*
X470702Y125798D01*
X470525Y125532D01*
X470525Y125532D01*
X470304Y125202D01*
X470165Y124500D01*
X470227Y124186D01*
X470227Y124186D01*
X470304Y123798D01*
X470482Y123532D01*
X470482Y123532D01*
X470702Y123202D01*
X470780Y123151D01*
X471298Y122804D01*
X472000Y122665D01*
X472313Y122727D01*
X472314D01*
X472702Y122804D01*
X472968Y122982D01*
X473298Y123202D01*
X473429Y123399D01*
X473696Y123798D01*
X473835Y124500D01*
X473773Y124814D01*
X473696Y125202D01*
X473518Y125468D01*
X473518Y125468D01*
X473298Y125798D01*
X473032Y125975D01*
X473032Y125975D01*
X472702Y126196D01*
X472389Y126258D01*
X472000Y126335D01*
D02*
G37*
G36*
X336000Y144335D02*
X335298Y144196D01*
X334702Y143798D01*
X334304Y143202D01*
X334165Y142500D01*
X334304Y141798D01*
X334702Y141202D01*
X335298Y140804D01*
X336000Y140665D01*
X336702Y140804D01*
X337298Y141202D01*
X337696Y141798D01*
X337835Y142500D01*
X337696Y143202D01*
X337298Y143798D01*
X336702Y144196D01*
X336000Y144335D01*
D02*
G37*
G36*
X331500D02*
X330798Y144196D01*
X330202Y143798D01*
X329804Y143202D01*
X329665Y142500D01*
X329804Y141798D01*
X330202Y141202D01*
X330798Y140804D01*
X331500Y140665D01*
X332202Y140804D01*
X332798Y141202D01*
X333196Y141798D01*
X333335Y142500D01*
X333196Y143202D01*
X332798Y143798D01*
X332202Y144196D01*
X331500Y144335D01*
D02*
G37*
G36*
X326500D02*
X325798Y144196D01*
X325202Y143798D01*
X324804Y143202D01*
X324665Y142500D01*
X324804Y141798D01*
X325202Y141202D01*
X325798Y140804D01*
X326500Y140665D01*
X327202Y140804D01*
X327798Y141202D01*
X328196Y141798D01*
X328335Y142500D01*
X328196Y143202D01*
X327798Y143798D01*
X327202Y144196D01*
X326500Y144335D01*
D02*
G37*
G36*
X321500D02*
X320798Y144196D01*
X320202Y143798D01*
X319804Y143202D01*
X319665Y142500D01*
X319804Y141798D01*
X320202Y141202D01*
X320798Y140804D01*
X321500Y140665D01*
X322202Y140804D01*
X322798Y141202D01*
X323196Y141798D01*
X323335Y142500D01*
X323196Y143202D01*
X322798Y143798D01*
X322202Y144196D01*
X321500Y144335D01*
D02*
G37*
%LPD*%
D35*
X526980Y405516D02*
D03*
X530000Y400000D02*
D03*
X523500D02*
D03*
X522000Y387000D02*
D03*
X527000D02*
D03*
X532000D02*
D03*
X522000Y390500D02*
D03*
X527000D02*
D03*
X532000D02*
D03*
X552500Y396500D02*
D03*
X557500D02*
D03*
X562500D02*
D03*
X552500Y400000D02*
D03*
X557500D02*
D03*
X562500D02*
D03*
X552500Y392500D02*
D03*
X557500D02*
D03*
X562500D02*
D03*
X443000Y411000D02*
D03*
Y416000D02*
D03*
Y406000D02*
D03*
Y401000D02*
D03*
Y396000D02*
D03*
X453000Y420500D02*
D03*
X458000D02*
D03*
X448000D02*
D03*
X443000D02*
D03*
X438000D02*
D03*
X615000Y272000D02*
D03*
Y267000D02*
D03*
Y277000D02*
D03*
Y282000D02*
D03*
Y262000D02*
D03*
Y257000D02*
D03*
Y247000D02*
D03*
Y252000D02*
D03*
Y287000D02*
D03*
Y292000D02*
D03*
X257500Y287500D02*
D03*
Y282500D02*
D03*
Y247500D02*
D03*
Y242500D02*
D03*
Y252500D02*
D03*
Y257500D02*
D03*
Y277500D02*
D03*
Y272500D02*
D03*
Y262500D02*
D03*
Y267500D02*
D03*
X350000Y265000D02*
D03*
X345000D02*
D03*
X340000D02*
D03*
X350000Y272500D02*
D03*
X345000D02*
D03*
X340000D02*
D03*
X350000Y269000D02*
D03*
X345000D02*
D03*
X340000D02*
D03*
X531000Y265000D02*
D03*
X526000D02*
D03*
X521000D02*
D03*
X531000Y272500D02*
D03*
X526000D02*
D03*
X521000D02*
D03*
X440000D02*
D03*
X435000D02*
D03*
X430000D02*
D03*
X440000Y265000D02*
D03*
X435000D02*
D03*
X430000D02*
D03*
X440000Y269000D02*
D03*
X435000D02*
D03*
X430000D02*
D03*
X531000D02*
D03*
X526000D02*
D03*
X521000D02*
D03*
X545000Y417500D02*
D03*
X540000D02*
D03*
X535000D02*
D03*
X545000Y412500D02*
D03*
X540000D02*
D03*
X535000D02*
D03*
X520000D02*
D03*
X525000D02*
D03*
X530000D02*
D03*
X520000Y417500D02*
D03*
X525000D02*
D03*
X530000D02*
D03*
X505000Y412500D02*
D03*
X510000D02*
D03*
X515000D02*
D03*
Y417500D02*
D03*
X510000D02*
D03*
X505000D02*
D03*
X557000Y120000D02*
D03*
X524000Y126000D02*
D03*
X529000D02*
D03*
X534000D02*
D03*
X549500Y175500D02*
D03*
X545000Y170500D02*
D03*
X550000D02*
D03*
X372782Y142442D02*
D03*
X382500Y142500D02*
D03*
X336000D02*
D03*
X321500D02*
D03*
X326500D02*
D03*
X331500D02*
D03*
X385000Y394500D02*
D03*
X333000Y393500D02*
D03*
X328000D02*
D03*
X393000Y332500D02*
D03*
X321000Y357500D02*
D03*
Y362500D02*
D03*
X326000D02*
D03*
Y367500D02*
D03*
X321000D02*
D03*
X307500Y330000D02*
D03*
X302500D02*
D03*
X545000Y180500D02*
D03*
X540000Y175500D02*
D03*
X454500Y170500D02*
D03*
X449500Y175500D02*
D03*
X454500Y180000D02*
D03*
X459500Y175500D02*
D03*
X395000Y394500D02*
D03*
X562500Y120000D02*
D03*
X595500Y175500D02*
D03*
X387500Y142500D02*
D03*
X472000Y124500D02*
D03*
X377500Y142500D02*
D03*
X390000Y394500D02*
D03*
X380000D02*
D03*
X343000Y393500D02*
D03*
X338500D02*
D03*
X456500Y362500D02*
D03*
Y357500D02*
D03*
Y367500D02*
D03*
X446500Y362500D02*
D03*
Y357500D02*
D03*
Y367500D02*
D03*
X451500D02*
D03*
Y362500D02*
D03*
X575000Y332500D02*
D03*
X483500D02*
D03*
X568500Y205500D02*
D03*
X478000D02*
D03*
X387500D02*
D03*
X297000D02*
D03*
X292500D02*
D03*
X397500Y332500D02*
D03*
X488000D02*
D03*
X580000D02*
D03*
X564000Y205500D02*
D03*
X473500D02*
D03*
X383000D02*
D03*
X580000Y306500D02*
D03*
X550500Y292000D02*
D03*
X558000Y306000D02*
D03*
X592500Y357500D02*
D03*
Y362500D02*
D03*
X597500Y357500D02*
D03*
X602500D02*
D03*
X597500Y362500D02*
D03*
X602500D02*
D03*
X592500Y367500D02*
D03*
X597500D02*
D03*
X602500D02*
D03*
X614000Y335000D02*
D03*
X537000Y362500D02*
D03*
Y367500D02*
D03*
X542000Y357500D02*
D03*
X537000D02*
D03*
X542000Y362500D02*
D03*
Y367500D02*
D03*
X547000D02*
D03*
Y362500D02*
D03*
Y357500D02*
D03*
X308500Y306500D02*
D03*
X279000Y292000D02*
D03*
X286500Y306000D02*
D03*
X326000Y357500D02*
D03*
X331000D02*
D03*
Y362500D02*
D03*
Y367500D02*
D03*
X342500Y335000D02*
D03*
X265500Y357500D02*
D03*
Y362500D02*
D03*
X270500Y357500D02*
D03*
X265500Y367500D02*
D03*
X270500Y362500D02*
D03*
Y367500D02*
D03*
X275500Y357500D02*
D03*
Y367500D02*
D03*
Y362500D02*
D03*
X489500Y306500D02*
D03*
X460000Y292000D02*
D03*
X467500Y306000D02*
D03*
X502000Y357500D02*
D03*
Y362500D02*
D03*
X507000Y357500D02*
D03*
X512000D02*
D03*
X507000Y362500D02*
D03*
X512000D02*
D03*
X502000Y367500D02*
D03*
X507000D02*
D03*
X512000D02*
D03*
X523500Y335000D02*
D03*
X451500Y357500D02*
D03*
X399000Y306500D02*
D03*
X369500Y292000D02*
D03*
X377000Y306000D02*
D03*
X411500Y357500D02*
D03*
Y362500D02*
D03*
X416500Y357500D02*
D03*
X421500D02*
D03*
X416500Y362500D02*
D03*
X421500D02*
D03*
X411500Y367500D02*
D03*
X416500D02*
D03*
X421500D02*
D03*
X433000Y335000D02*
D03*
X356000Y357500D02*
D03*
Y367500D02*
D03*
Y362500D02*
D03*
X361000Y367500D02*
D03*
Y357500D02*
D03*
X366000D02*
D03*
X361000Y362500D02*
D03*
X366000Y367500D02*
D03*
Y362500D02*
D03*
X472000Y231500D02*
D03*
X501500Y246000D02*
D03*
X494000Y232000D02*
D03*
X459500Y180500D02*
D03*
X449500D02*
D03*
X454500Y175500D02*
D03*
X459500Y170500D02*
D03*
X449500D02*
D03*
X438000Y203000D02*
D03*
X515000Y180500D02*
D03*
X510000D02*
D03*
X515000Y175500D02*
D03*
X510000D02*
D03*
X515000Y170500D02*
D03*
X510000D02*
D03*
X505000Y175500D02*
D03*
Y180500D02*
D03*
Y170500D02*
D03*
X562500Y231500D02*
D03*
X592000Y246000D02*
D03*
X584500Y232000D02*
D03*
X550000Y180500D02*
D03*
X540000D02*
D03*
X545000Y175500D02*
D03*
X540000Y170500D02*
D03*
X528500Y203000D02*
D03*
X605500Y180500D02*
D03*
Y175500D02*
D03*
X600500Y180500D02*
D03*
X595500D02*
D03*
X600500Y170500D02*
D03*
Y175500D02*
D03*
X605500Y170500D02*
D03*
X595500D02*
D03*
X291000Y231500D02*
D03*
X320500Y246000D02*
D03*
X313000Y232000D02*
D03*
X278500Y180500D02*
D03*
Y175500D02*
D03*
X273500Y180500D02*
D03*
X268500D02*
D03*
X273500Y175500D02*
D03*
X268500D02*
D03*
X278500Y170500D02*
D03*
X273500D02*
D03*
X268500D02*
D03*
X257000Y203000D02*
D03*
X334000Y180500D02*
D03*
X329000D02*
D03*
X334000Y175500D02*
D03*
X324000Y180500D02*
D03*
X334000Y170500D02*
D03*
X329000Y175500D02*
D03*
Y170500D02*
D03*
X324000Y175500D02*
D03*
Y170500D02*
D03*
X414500Y180500D02*
D03*
X419500D02*
D03*
Y175500D02*
D03*
X414500D02*
D03*
Y170500D02*
D03*
X419500D02*
D03*
X424500D02*
D03*
Y175500D02*
D03*
Y180500D02*
D03*
X359000D02*
D03*
X364000D02*
D03*
Y175500D02*
D03*
X359000D02*
D03*
Y170500D02*
D03*
X364000D02*
D03*
X369000D02*
D03*
Y175500D02*
D03*
Y180500D02*
D03*
X411000Y246000D02*
D03*
X403500Y232000D02*
D03*
X381500Y231500D02*
D03*
X347500Y203000D02*
D03*
D51*
X438500Y126500D02*
D03*
X532500Y324476D02*
D03*
X607500Y296524D02*
D03*
X261000Y324476D02*
D03*
X336000Y296524D02*
D03*
X442000Y324476D02*
D03*
X517000Y296524D02*
D03*
X351500Y324476D02*
D03*
X426500Y296524D02*
D03*
X519500Y213524D02*
D03*
X444500Y241476D02*
D03*
X610000Y213524D02*
D03*
X535000Y241476D02*
D03*
X338500Y213524D02*
D03*
X263500Y241476D02*
D03*
X429000Y213524D02*
D03*
X354000Y241476D02*
D03*
D52*
X428500Y126500D02*
D03*
D53*
X436390Y402689D02*
D03*
D54*
X454500Y390090D02*
D03*
Y414500D02*
D03*
D55*
X267000Y400000D02*
D03*
X586500D02*
D03*
X604000Y138000D02*
D03*
X285000Y137500D02*
D03*
D56*
X287000Y400000D02*
D03*
X606500D02*
D03*
X584000Y138000D02*
D03*
X265000Y137500D02*
D03*
D57*
X585090Y276000D02*
D03*
X313591D02*
D03*
X494591D02*
D03*
X404090D02*
D03*
X466910Y262000D02*
D03*
X557409D02*
D03*
X285910D02*
D03*
X376410D02*
D03*
D58*
X543910Y276000D02*
D03*
X272410D02*
D03*
X453409D02*
D03*
X362910D02*
D03*
X508090Y262000D02*
D03*
X598591D02*
D03*
X327091D02*
D03*
X417591D02*
D03*
D59*
X532500Y296524D02*
D03*
X607500Y324476D02*
D03*
X261000Y296524D02*
D03*
X336000Y324476D02*
D03*
X442000Y296524D02*
D03*
X517000Y324476D02*
D03*
X351500Y296524D02*
D03*
X426500Y324476D02*
D03*
X519500Y241476D02*
D03*
X444500Y213524D02*
D03*
X610000Y241476D02*
D03*
X535000Y213524D02*
D03*
X338500Y241476D02*
D03*
X263500Y213524D02*
D03*
X429000Y241476D02*
D03*
X354000Y213524D02*
D03*
D60*
X509000Y404000D02*
D03*
X483500Y403500D02*
D03*
M02*
