M48
;Layer_Color=9474304
;FILE_FORMAT=2:5
INCH,TZ
;TYPE=PLATED
T1F00S00C0.01400
T3F00S00C0.03543
T5F00S00C0.04724
T6F00S00C0.05512
%
T01
X321500Y142500
X326500
X331500
X336000
X372782Y142442
X377500Y142500
X382500
X387500
X472000Y124500
X524000Y126000
X529000
X534000
X557000Y120000
X562500
X550000Y170500
X545000
Y175500
X549500
X550000Y180500
X545000
X540000
Y175500
Y170500
X515000
Y175500
Y180500
X510000
Y175500
Y170500
X505000
Y175500
Y180500
X528500Y203000
X564000Y205500
X568500
X562500Y231500
X584500Y232000
X592000Y246000
X615000Y247000
Y252000
Y257000
Y262000
Y267000
Y272000
Y277000
Y282000
Y287000
Y292000
X580000Y306500
X558000Y306000
X550500Y292000
X531000Y272500
Y269000
Y265000
X526000
Y269000
Y272500
X521000
Y269000
Y265000
X501500Y246000
X494000Y232000
X472000Y231500
X473500Y205500
X478000
X489500Y306500
X595500Y180500
Y175500
X600500
X605500
Y180500
X600500
Y170500
X605500
X595500
X459500
X454500
Y175500
Y180000
X459500Y180500
Y175500
X449500
Y180500
Y170500
X424500
X419500
Y175500
Y180500
X414500
Y175500
Y170500
X424500Y175500
Y180500
X438000Y203000
X387500Y205500
X383000
X381500Y231500
X403500Y232000
X411000Y246000
X430000Y265000
Y269000
Y272500
X435000
Y269000
Y265000
X440000
Y269000
Y272500
X460000Y292000
X467500Y306000
X399000Y306500
X377000Y306000
X369500Y292000
X350000Y272500
Y269000
Y265000
X345000
Y269000
Y272500
X340000
Y269000
Y265000
X320500Y246000
X313000Y232000
X324000Y180500
X329000
X334000
Y175500
Y170500
X329000
Y175500
X324000
Y170500
X359000
Y175500
Y180500
X364000
Y175500
Y170500
X369000
Y175500
Y180500
X347500Y203000
X297000Y205500
X292500
X291000Y231500
X257500Y242500
Y247500
Y252500
Y257500
Y262500
Y267500
Y272500
Y277500
Y282500
Y287500
X279000Y292000
X286500Y306000
X308500Y306500
X257000Y203000
X268500Y180500
X273500
X278500
Y175500
X273500
X268500
Y170500
X273500
X278500
X302500Y330000
X307500
X275500Y357500
X270500
X265500
Y362500
Y367500
X270500
Y362500
X275500
Y367500
X321000
Y362500
Y357500
X326000
Y362500
Y367500
X331000
Y362500
Y357500
X356000
Y362500
Y367500
X361000
Y362500
Y357500
X366000
Y362500
Y367500
X380000Y394500
X385000
X390000
X395000
X411500Y367500
Y362500
Y357500
X416500
X421500
Y362500
X416500
Y367500
X421500
X446500
Y362500
Y357500
X451500
X456500
Y362500
Y367500
X451500
Y362500
X443000Y396000
Y401000
Y406000
Y411000
Y416000
Y420500
X448000
X453000
X458000
X438000
X433000Y335000
X397500Y332500
X393000
X342500Y335000
X343000Y393500
X338500
X333000
X328000
X505000Y412500
X510000
X515000
X520000
X525000
X530000
X535000
Y417500
X540000
X545000
Y412500
X540000
X530000Y417500
X525000
X520000
X515000
X510000
X505000
X526980Y405516
X530000Y400000
X523500
X522000Y390500
Y387000
X527000
Y390500
X532000
Y387000
X537000Y367500
Y362500
Y357500
X542000
Y362500
Y367500
X547000
Y362500
Y357500
X512000
X507000
X502000
Y362500
X507000
X512000
Y367500
X507000
X502000
X488000Y332500
X483500
X523500Y335000
X575000Y332500
X580000
X614000Y335000
X602500Y357500
X597500
X592500
Y362500
X597500
X602500
Y367500
X597500
X592500
X562500Y392500
Y396500
Y400000
X557500
Y396500
Y392500
X552500
Y396500
Y400000
T03
X428500Y126500
X438500
X519500Y213524
X535000
Y241476
X519500
X517000Y296524
X532500
X607500
X610000Y241476
Y213524
X444500
X429000
Y241476
X444500
X442000Y296524
X426500
X351500
X336000
X338500Y241476
X354000
Y213524
X338500
X263500
Y241476
X261000Y296524
Y324476
X336000
X351500
X426500
X442000
X517000
X532500
X607500
X509000Y404000
X483500Y403500
T05
X508090Y262000
X494591Y276000
X543910
X557409Y262000
X598591
X585090Y276000
X453409
X466910Y262000
X417591
X404090Y276000
X362910
X376410Y262000
X327091
X313591Y276000
X272410
X285910Y262000
T06
X265000Y137500
X285000
X584000Y138000
X604000
X287000Y400000
X267000
X586500
X606500
M30
