G04*
G04 #@! TF.GenerationSoftware,Altium Limited,Altium Designer,20.0.2 (26)*
G04*
G04 Layer_Color=8421504*
%FSLAX25Y25*%
%MOIN*%
G70*
G01*
G75*
%ADD16R,0.25590X0.23622*%
%ADD17R,0.08661X0.05315*%
%ADD18R,0.03150X0.06299*%
%ADD19R,0.07874X0.11811*%
%ADD20R,0.04567X0.05787*%
%ADD21R,0.05787X0.04567*%
%ADD22R,0.23622X0.25591*%
%ADD23R,0.04724X0.08661*%
%ADD24O,0.07480X0.02362*%
%ADD25C,0.02000*%
D16*
X557500Y396500D02*
D03*
X529000Y135000D02*
D03*
D17*
X526980Y405516D02*
D03*
X527000Y387484D02*
D03*
X559520Y125984D02*
D03*
X559500Y144016D02*
D03*
D18*
X321300Y136065D02*
D03*
X326221D02*
D03*
X331142D02*
D03*
X336064D02*
D03*
X394936Y400435D02*
D03*
X390015D02*
D03*
X385094D02*
D03*
X380172D02*
D03*
X342936D02*
D03*
X338015D02*
D03*
X333094D02*
D03*
X328172D02*
D03*
X372564Y136065D02*
D03*
X377485D02*
D03*
X382406D02*
D03*
X387328D02*
D03*
D19*
X310500Y125000D02*
D03*
X346972D02*
D03*
X405736Y411500D02*
D03*
X369264D02*
D03*
X353736D02*
D03*
X317264D02*
D03*
X361764Y125000D02*
D03*
X398236D02*
D03*
D20*
X487504Y124500D02*
D03*
X480496D02*
D03*
X596004Y324000D02*
D03*
X588996D02*
D03*
X550004Y323500D02*
D03*
X542996D02*
D03*
X324504Y324000D02*
D03*
X317496D02*
D03*
X278504Y323500D02*
D03*
X271496D02*
D03*
X505504Y324000D02*
D03*
X498496D02*
D03*
X459504Y323500D02*
D03*
X452496D02*
D03*
X415004Y324000D02*
D03*
X407996D02*
D03*
X369004Y323500D02*
D03*
X361996D02*
D03*
X455996Y214000D02*
D03*
X463004D02*
D03*
X501996Y214500D02*
D03*
X509004D02*
D03*
X546496Y214000D02*
D03*
X553504D02*
D03*
X592496Y214500D02*
D03*
X599504D02*
D03*
X274996Y214000D02*
D03*
X282004D02*
D03*
X320996Y214500D02*
D03*
X328004D02*
D03*
X411496D02*
D03*
X418504D02*
D03*
X365496Y214000D02*
D03*
X372504D02*
D03*
D21*
X480500Y141000D02*
D03*
Y133992D02*
D03*
X491000Y141000D02*
D03*
Y133992D02*
D03*
X595500Y297504D02*
D03*
Y290496D02*
D03*
X543500Y297004D02*
D03*
Y289996D02*
D03*
X595500Y314004D02*
D03*
Y306996D02*
D03*
X543500D02*
D03*
Y314004D02*
D03*
X324000Y297504D02*
D03*
Y290496D02*
D03*
X272000Y297004D02*
D03*
Y289996D02*
D03*
X324000Y314004D02*
D03*
Y306996D02*
D03*
X272000D02*
D03*
Y314004D02*
D03*
X505000Y297504D02*
D03*
Y290496D02*
D03*
X453000Y297004D02*
D03*
Y289996D02*
D03*
X505000Y314004D02*
D03*
Y306996D02*
D03*
X453000D02*
D03*
Y314004D02*
D03*
X414500Y297504D02*
D03*
Y290496D02*
D03*
X362500Y297004D02*
D03*
Y289996D02*
D03*
X414500Y314004D02*
D03*
Y306996D02*
D03*
X362500D02*
D03*
Y314004D02*
D03*
X456500Y240496D02*
D03*
Y247504D02*
D03*
X508500Y240996D02*
D03*
Y248004D02*
D03*
X456500Y223996D02*
D03*
Y231004D02*
D03*
X508500D02*
D03*
Y223996D02*
D03*
X547000Y240496D02*
D03*
Y247504D02*
D03*
X599000Y240996D02*
D03*
Y248004D02*
D03*
X547000Y223996D02*
D03*
Y231004D02*
D03*
X599000D02*
D03*
Y223996D02*
D03*
X275500Y240496D02*
D03*
Y247504D02*
D03*
X327500Y240996D02*
D03*
Y248004D02*
D03*
X275500Y223996D02*
D03*
Y231004D02*
D03*
X327500D02*
D03*
Y223996D02*
D03*
X418000Y240996D02*
D03*
Y248004D02*
D03*
Y231004D02*
D03*
Y223996D02*
D03*
X366000Y240496D02*
D03*
Y247504D02*
D03*
Y223996D02*
D03*
Y231004D02*
D03*
D22*
X598000Y362500D02*
D03*
X542000D02*
D03*
X326500D02*
D03*
X270500D02*
D03*
X507500D02*
D03*
X451500D02*
D03*
X417000D02*
D03*
X361000D02*
D03*
X454000Y175500D02*
D03*
X510000D02*
D03*
X544500D02*
D03*
X600500D02*
D03*
X273000D02*
D03*
X329000D02*
D03*
X419500D02*
D03*
X363500D02*
D03*
D23*
X588704Y334941D02*
D03*
X607296Y334957D02*
D03*
X532704Y334941D02*
D03*
X551296Y334957D02*
D03*
X317204Y334941D02*
D03*
X335796Y334957D02*
D03*
X261204Y334941D02*
D03*
X279796Y334957D02*
D03*
X498204Y334941D02*
D03*
X516796Y334957D02*
D03*
X442204Y334941D02*
D03*
X460796Y334957D02*
D03*
X407704Y334941D02*
D03*
X426296Y334957D02*
D03*
X351704Y334941D02*
D03*
X370296Y334957D02*
D03*
X463296Y203059D02*
D03*
X444704Y203043D02*
D03*
X519296Y203059D02*
D03*
X500704Y203043D02*
D03*
X553796Y203059D02*
D03*
X535204Y203043D02*
D03*
X609796Y203059D02*
D03*
X591204Y203043D02*
D03*
X282296Y203059D02*
D03*
X263704Y203043D02*
D03*
X338296Y203059D02*
D03*
X319704Y203043D02*
D03*
X428796Y203059D02*
D03*
X410204Y203043D02*
D03*
X372796Y203059D02*
D03*
X354204Y203043D02*
D03*
D24*
X376748Y302000D02*
D03*
Y297000D02*
D03*
Y292000D02*
D03*
Y287000D02*
D03*
X399252Y302000D02*
D03*
Y297000D02*
D03*
Y292000D02*
D03*
Y287000D02*
D03*
X286248Y302000D02*
D03*
Y297000D02*
D03*
Y292000D02*
D03*
Y287000D02*
D03*
X308752Y302000D02*
D03*
Y297000D02*
D03*
Y292000D02*
D03*
Y287000D02*
D03*
X557748Y302000D02*
D03*
Y297000D02*
D03*
Y292000D02*
D03*
Y287000D02*
D03*
X580252Y302000D02*
D03*
Y297000D02*
D03*
Y292000D02*
D03*
Y287000D02*
D03*
X467248Y302000D02*
D03*
Y297000D02*
D03*
Y292000D02*
D03*
Y287000D02*
D03*
X489752Y302000D02*
D03*
Y297000D02*
D03*
Y292000D02*
D03*
Y287000D02*
D03*
X494252Y236000D02*
D03*
Y241000D02*
D03*
Y246000D02*
D03*
Y251000D02*
D03*
X471748Y236000D02*
D03*
Y241000D02*
D03*
Y246000D02*
D03*
Y251000D02*
D03*
X584752Y236000D02*
D03*
Y241000D02*
D03*
Y246000D02*
D03*
Y251000D02*
D03*
X562248Y236000D02*
D03*
Y241000D02*
D03*
Y246000D02*
D03*
Y251000D02*
D03*
X313252Y236000D02*
D03*
Y241000D02*
D03*
Y246000D02*
D03*
Y251000D02*
D03*
X290748Y236000D02*
D03*
Y241000D02*
D03*
Y246000D02*
D03*
Y251000D02*
D03*
X403752Y236000D02*
D03*
Y241000D02*
D03*
Y246000D02*
D03*
Y251000D02*
D03*
X381248Y236000D02*
D03*
Y241000D02*
D03*
Y246000D02*
D03*
Y251000D02*
D03*
D25*
X399252Y282000D02*
D03*
X308752D02*
D03*
X580252D02*
D03*
X489752D02*
D03*
X471748Y256000D02*
D03*
X562248D02*
D03*
X290748D02*
D03*
X381248D02*
D03*
M02*
