G04*
G04 #@! TF.GenerationSoftware,Altium Limited,Altium Designer,20.0.2 (26)*
G04*
G04 Layer_Color=128*
%FSLAX25Y25*%
%MOIN*%
G70*
G01*
G75*
%ADD10C,0.04000*%
%ADD11C,0.01000*%
%ADD12C,0.00600*%
%ADD13C,0.00394*%
%ADD14C,0.00197*%
%ADD15C,0.00800*%
%ADD16C,0.00200*%
D10*
X258500Y425000D02*
G03*
X251500Y418000I0J-7000D01*
G01*
X620500Y418000D02*
G03*
X613500Y425000I-7000J0D01*
G01*
X251500Y119500D02*
G03*
X258500Y112500I7000J0D01*
G01*
X613500D02*
G03*
X620500Y119500I0J7000D01*
G01*
X251500Y119500D02*
Y418000D01*
X258500Y425000D02*
X613500D01*
X620500Y119500D02*
Y418000D01*
X258500Y112500D02*
X613500D01*
D11*
X658000Y118500D02*
X660000Y112500D01*
X662000Y118500D01*
X660000Y425000D02*
X662000Y419000D01*
X658000D02*
X660000Y425000D01*
Y112500D02*
Y246056D01*
Y288244D02*
Y425000D01*
X616500Y112500D02*
X661000D01*
X616500Y425000D02*
X661000D01*
X251500Y97000D02*
X257500Y99000D01*
X251500Y97000D02*
X257500Y95000D01*
X614500D02*
X620500Y97000D01*
X614500Y99000D02*
X620500Y97000D01*
X251500D02*
X413306D01*
X455494D02*
X620500D01*
X251500Y96000D02*
Y116500D01*
X620500Y96000D02*
Y116500D01*
D12*
X657601Y247656D02*
Y251655D01*
X658601D01*
X662599Y247656D01*
X663599D01*
X662599Y253654D02*
X663599Y254654D01*
Y256653D01*
X662599Y257653D01*
X658601D01*
X657601Y256653D01*
Y254654D01*
X658601Y253654D01*
X659600D01*
X660600Y254654D01*
Y257653D01*
X663599Y259652D02*
X662599D01*
Y260652D01*
X663599D01*
Y259652D01*
X658601Y264651D02*
X657601Y265651D01*
Y267650D01*
X658601Y268650D01*
X659600D01*
X660600Y267650D01*
Y266650D01*
Y267650D01*
X661600Y268650D01*
X662599D01*
X663599Y267650D01*
Y265651D01*
X662599Y264651D01*
X658601Y270649D02*
X657601Y271649D01*
Y273648D01*
X658601Y274648D01*
X659600D01*
X660600Y273648D01*
X661600Y274648D01*
X662599D01*
X663599Y273648D01*
Y271649D01*
X662599Y270649D01*
X661600D01*
X660600Y271649D01*
X659600Y270649D01*
X658601D01*
X660600Y271649D02*
Y273648D01*
X663599Y276647D02*
X659600D01*
Y277647D01*
X660600Y278646D01*
X663599D01*
X660600D01*
X659600Y279646D01*
X660600Y280646D01*
X663599D01*
Y282645D02*
X659600D01*
Y283645D01*
X660600Y284644D01*
X663599D01*
X660600D01*
X659600Y285644D01*
X660600Y286644D01*
X663599D01*
X414906Y94401D02*
X415906Y93401D01*
X417905D01*
X418905Y94401D01*
Y98399D01*
X417905Y99399D01*
X415906D01*
X414906Y98399D01*
Y97400D01*
X415906Y96400D01*
X418905D01*
X420904Y98399D02*
X421904Y99399D01*
X423903D01*
X424903Y98399D01*
Y97400D01*
X423903Y96400D01*
X422904D01*
X423903D01*
X424903Y95400D01*
Y94401D01*
X423903Y93401D01*
X421904D01*
X420904Y94401D01*
X426902Y93401D02*
Y94401D01*
X427902D01*
Y93401D01*
X426902D01*
X431901Y99399D02*
X435899D01*
Y98399D01*
X431901Y94401D01*
Y93401D01*
X437899Y98399D02*
X438899Y99399D01*
X440898D01*
X441898Y98399D01*
Y97400D01*
X440898Y96400D01*
X439898D01*
X440898D01*
X441898Y95400D01*
Y94401D01*
X440898Y93401D01*
X438899D01*
X437899Y94401D01*
X443897Y93401D02*
Y97400D01*
X444897D01*
X445896Y96400D01*
Y93401D01*
Y96400D01*
X446896Y97400D01*
X447896Y96400D01*
Y93401D01*
X449895D02*
Y97400D01*
X450895D01*
X451894Y96400D01*
Y93401D01*
Y96400D01*
X452894Y97400D01*
X453894Y96400D01*
Y93401D01*
D13*
X394083Y288437D02*
G03*
X394083Y288437I-1969J0D01*
G01*
X303583D02*
G03*
X303583Y288437I-1969J0D01*
G01*
X575083D02*
G03*
X575083Y288437I-1969J0D01*
G01*
X484583D02*
G03*
X484583Y288437I-1969J0D01*
G01*
X480854Y249563D02*
G03*
X480854Y249563I-1969J0D01*
G01*
X571354D02*
G03*
X571354Y249563I-1969J0D01*
G01*
X299854D02*
G03*
X299854Y249563I-1969J0D01*
G01*
X390354D02*
G03*
X390354Y249563I-1969J0D01*
G01*
X483213Y127256D02*
X484394Y128437D01*
X484000Y126862D02*
X485181Y128043D01*
X482425Y124500D02*
X485575D01*
X483213Y122925D02*
Y126075D01*
Y124500D02*
X484787Y122925D01*
X483213Y124500D02*
X484787Y126075D01*
Y122925D02*
Y126075D01*
X380146Y304303D02*
X395854D01*
X380146Y284697D02*
X395854D01*
X380146D02*
Y304303D01*
X395854Y284697D02*
Y304303D01*
X289646D02*
X305354D01*
X289646Y284697D02*
X305354D01*
X289646D02*
Y304303D01*
X305354Y284697D02*
Y304303D01*
X561146D02*
X576854D01*
X561146Y284697D02*
X576854D01*
X561146D02*
Y304303D01*
X576854Y284697D02*
Y304303D01*
X470646D02*
X486354D01*
X470646Y284697D02*
X486354D01*
X470646D02*
Y304303D01*
X486354Y284697D02*
Y304303D01*
X475146Y233697D02*
X490854D01*
X475146Y253303D02*
X490854D01*
Y233697D02*
Y253303D01*
X475146Y233697D02*
Y253303D01*
X565646Y233697D02*
X581354D01*
X565646Y253303D02*
X581354D01*
Y233697D02*
Y253303D01*
X565646Y233697D02*
Y253303D01*
X294146Y233697D02*
X309854D01*
X294146Y253303D02*
X309854D01*
Y233697D02*
Y253303D01*
X294146Y233697D02*
Y253303D01*
X384646Y233697D02*
X400354D01*
X384646Y253303D02*
X400354D01*
Y233697D02*
Y253303D01*
X384646Y233697D02*
Y253303D01*
X388000Y292531D02*
Y296468D01*
X386032Y294500D02*
X389968D01*
X374614Y304736D02*
X401386D01*
X374614Y284264D02*
X401386D01*
X374614D02*
Y304736D01*
X401386Y284264D02*
Y304736D01*
X297500Y292531D02*
Y296468D01*
X295532Y294500D02*
X299468D01*
X284114Y304736D02*
X310886D01*
X284114Y284264D02*
X310886D01*
X284114D02*
Y304736D01*
X310886Y284264D02*
Y304736D01*
X569000Y292531D02*
Y296468D01*
X567031Y294500D02*
X570968D01*
X555614Y304736D02*
X582386D01*
X555614Y284264D02*
X582386D01*
X555614D02*
Y304736D01*
X582386Y284264D02*
Y304736D01*
X478500Y292531D02*
Y296468D01*
X476532Y294500D02*
X480469D01*
X465114Y304736D02*
X491886D01*
X465114Y284264D02*
X491886D01*
X465114D02*
Y304736D01*
X491886Y284264D02*
Y304736D01*
X483000Y241531D02*
Y245468D01*
X481032Y243500D02*
X484969D01*
X469614Y233264D02*
X496386D01*
X469614Y253736D02*
X496386D01*
Y233264D02*
Y253736D01*
X469614Y233264D02*
Y253736D01*
X573500Y241531D02*
Y245468D01*
X571531Y243500D02*
X575468D01*
X560114Y233264D02*
X586886D01*
X560114Y253736D02*
X586886D01*
Y233264D02*
Y253736D01*
X560114Y233264D02*
Y253736D01*
X302000Y241531D02*
Y245468D01*
X300031Y243500D02*
X303969D01*
X288614Y233264D02*
X315386D01*
X288614Y253736D02*
X315386D01*
Y233264D02*
Y253736D01*
X288614Y233264D02*
Y253736D01*
X392500Y241531D02*
Y245468D01*
X390531Y243500D02*
X394468D01*
X379114Y233264D02*
X405886D01*
X379114Y253736D02*
X405886D01*
Y233264D02*
Y253736D01*
X379114Y233264D02*
Y253736D01*
D14*
X330114Y125000D02*
G03*
X330114Y125000I-1378J0D01*
G01*
X388878Y411500D02*
G03*
X388878Y411500I-1378J0D01*
G01*
X336878D02*
G03*
X336878Y411500I-1378J0D01*
G01*
X381378Y125000D02*
G03*
X381378Y125000I-1378J0D01*
G01*
X326768D02*
X330705D01*
X328736Y123031D02*
Y126969D01*
X385531Y411500D02*
X389469D01*
X387500Y409531D02*
Y413469D01*
X333531Y411500D02*
X337469D01*
X335500Y409531D02*
Y413469D01*
X378031Y125000D02*
X381968D01*
X380000Y123031D02*
Y126969D01*
D15*
X474157Y122531D02*
Y126469D01*
X493843Y122531D02*
Y126469D01*
X491874Y124500D02*
X495811D01*
D16*
X436728Y126500D02*
X440272D01*
X438500Y124728D02*
Y128272D01*
X426728Y126500D02*
X430272D01*
X428500Y124728D02*
Y128272D01*
X430484Y402689D02*
X442295D01*
X436390Y396783D02*
Y408595D01*
X448595Y390090D02*
X460405D01*
X454500Y384185D02*
Y395996D01*
X448595Y414500D02*
X460405D01*
X454500Y408595D02*
Y420405D01*
X264244Y400000D02*
X269756D01*
X267000Y397244D02*
Y402756D01*
X284244Y400000D02*
X289756D01*
X287000Y397244D02*
Y402756D01*
X583744Y400000D02*
X589256D01*
X586500Y397244D02*
Y402756D01*
X603744Y400000D02*
X609256D01*
X606500Y397244D02*
Y402756D01*
X601244Y138000D02*
X606756D01*
X604000Y135244D02*
Y140756D01*
X581244Y138000D02*
X586756D01*
X584000Y135244D02*
Y140756D01*
X282244Y137500D02*
X287756D01*
X285000Y134744D02*
Y140256D01*
X262244Y137500D02*
X267756D01*
X265000Y134744D02*
Y140256D01*
X582728Y276000D02*
X587453D01*
X585090Y273638D02*
Y278362D01*
X541547Y276000D02*
X546272D01*
X543910Y273638D02*
Y278362D01*
X530728Y296524D02*
X534272D01*
X532500Y294752D02*
Y298295D01*
X530728Y324476D02*
X534272D01*
X532500Y322705D02*
Y326248D01*
X605728Y324476D02*
X609272D01*
X607500Y322705D02*
Y326248D01*
X605728Y296524D02*
X609272D01*
X607500Y294752D02*
Y298295D01*
X311228Y276000D02*
X315953D01*
X313591Y273638D02*
Y278362D01*
X270047Y276000D02*
X274772D01*
X272410Y273638D02*
Y278362D01*
X259228Y296524D02*
X262772D01*
X261000Y294752D02*
Y298295D01*
X259228Y324476D02*
X262772D01*
X261000Y322705D02*
Y326248D01*
X334228Y324476D02*
X337772D01*
X336000Y322705D02*
Y326248D01*
X334228Y296524D02*
X337772D01*
X336000Y294752D02*
Y298295D01*
X492228Y276000D02*
X496953D01*
X494591Y273638D02*
Y278362D01*
X451047Y276000D02*
X455772D01*
X453409Y273638D02*
Y278362D01*
X440228Y296524D02*
X443772D01*
X442000Y294752D02*
Y298295D01*
X440228Y324476D02*
X443772D01*
X442000Y322705D02*
Y326248D01*
X515228Y324476D02*
X518772D01*
X517000Y322705D02*
Y326248D01*
X515228Y296524D02*
X518772D01*
X517000Y294752D02*
Y298295D01*
X401728Y276000D02*
X406453D01*
X404090Y273638D02*
Y278362D01*
X360547Y276000D02*
X365272D01*
X362910Y273638D02*
Y278362D01*
X349728Y296524D02*
X353272D01*
X351500Y294752D02*
Y298295D01*
X349728Y324476D02*
X353272D01*
X351500Y322705D02*
Y326248D01*
X424728Y324476D02*
X428272D01*
X426500Y322705D02*
Y326248D01*
X424728Y296524D02*
X428272D01*
X426500Y294752D02*
Y298295D01*
X464547Y262000D02*
X469272D01*
X466910Y259638D02*
Y264362D01*
X505728Y262000D02*
X510453D01*
X508090Y259638D02*
Y264362D01*
X517728Y241476D02*
X521272D01*
X519500Y239705D02*
Y243248D01*
X517728Y213524D02*
X521272D01*
X519500Y211752D02*
Y215295D01*
X442728Y213524D02*
X446272D01*
X444500Y211752D02*
Y215295D01*
X442728Y241476D02*
X446272D01*
X444500Y239705D02*
Y243248D01*
X555047Y262000D02*
X559772D01*
X557409Y259638D02*
Y264362D01*
X596228Y262000D02*
X600953D01*
X598591Y259638D02*
Y264362D01*
X608228Y241476D02*
X611772D01*
X610000Y239705D02*
Y243248D01*
X608228Y213524D02*
X611772D01*
X610000Y211752D02*
Y215295D01*
X533228Y213524D02*
X536772D01*
X535000Y211752D02*
Y215295D01*
X533228Y241476D02*
X536772D01*
X535000Y239705D02*
Y243248D01*
X283547Y262000D02*
X288272D01*
X285910Y259638D02*
Y264362D01*
X324728Y262000D02*
X329453D01*
X327091Y259638D02*
Y264362D01*
X336728Y241476D02*
X340272D01*
X338500Y239705D02*
Y243248D01*
X336728Y213524D02*
X340272D01*
X338500Y211752D02*
Y215295D01*
X261728Y213524D02*
X265272D01*
X263500Y211752D02*
Y215295D01*
X261728Y241476D02*
X265272D01*
X263500Y239705D02*
Y243248D01*
X374047Y262000D02*
X378772D01*
X376410Y259638D02*
Y264362D01*
X415228Y262000D02*
X419953D01*
X417591Y259638D02*
Y264362D01*
X427228Y241476D02*
X430772D01*
X429000Y239705D02*
Y243248D01*
X427228Y213524D02*
X430772D01*
X429000Y211752D02*
Y215295D01*
X352228Y213524D02*
X355772D01*
X354000Y211752D02*
Y215295D01*
X352228Y241476D02*
X355772D01*
X354000Y239705D02*
Y243248D01*
X507228Y404000D02*
X510772D01*
X509000Y402228D02*
Y405772D01*
X481728Y403500D02*
X485272D01*
X483500Y401728D02*
Y405272D01*
X526280Y405516D02*
X527680D01*
X526980Y404816D02*
Y406216D01*
X529300Y400000D02*
X530700D01*
X530000Y399300D02*
Y400700D01*
X522800Y400000D02*
X524200D01*
X523500Y399300D02*
Y400700D01*
X521300Y387000D02*
X522700D01*
X522000Y386300D02*
Y387700D01*
X526300Y387000D02*
X527700D01*
X527000Y386300D02*
Y387700D01*
X531300Y387000D02*
X532700D01*
X532000Y386300D02*
Y387700D01*
X521300Y390500D02*
X522700D01*
X522000Y389800D02*
Y391200D01*
X526300Y390500D02*
X527700D01*
X527000Y389800D02*
Y391200D01*
X531300Y390500D02*
X532700D01*
X532000Y389800D02*
Y391200D01*
X551800Y396500D02*
X553200D01*
X552500Y395800D02*
Y397200D01*
X556800Y396500D02*
X558200D01*
X557500Y395800D02*
Y397200D01*
X561800Y396500D02*
X563200D01*
X562500Y395800D02*
Y397200D01*
X551800Y400000D02*
X553200D01*
X552500Y399300D02*
Y400700D01*
X556800Y400000D02*
X558200D01*
X557500Y399300D02*
Y400700D01*
X561800Y400000D02*
X563200D01*
X562500Y399300D02*
Y400700D01*
X551800Y392500D02*
X553200D01*
X552500Y391800D02*
Y393200D01*
X556800Y392500D02*
X558200D01*
X557500Y391800D02*
Y393200D01*
X561800Y392500D02*
X563200D01*
X562500Y391800D02*
Y393200D01*
X442300Y411000D02*
X443700D01*
X443000Y410300D02*
Y411700D01*
X442300Y416000D02*
X443700D01*
X443000Y415300D02*
Y416700D01*
X442300Y406000D02*
X443700D01*
X443000Y405300D02*
Y406700D01*
X442300Y401000D02*
X443700D01*
X443000Y400300D02*
Y401700D01*
X442300Y396000D02*
X443700D01*
X443000Y395300D02*
Y396700D01*
X452300Y420500D02*
X453700D01*
X453000Y419800D02*
Y421200D01*
X457300Y420500D02*
X458700D01*
X458000Y419800D02*
Y421200D01*
X447300Y420500D02*
X448700D01*
X448000Y419800D02*
Y421200D01*
X442300Y420500D02*
X443700D01*
X443000Y419800D02*
Y421200D01*
X437300Y420500D02*
X438700D01*
X438000Y419800D02*
Y421200D01*
X614300Y272000D02*
X615700D01*
X615000Y271300D02*
Y272700D01*
X614300Y267000D02*
X615700D01*
X615000Y266300D02*
Y267700D01*
X614300Y277000D02*
X615700D01*
X615000Y276300D02*
Y277700D01*
X614300Y282000D02*
X615700D01*
X615000Y281300D02*
Y282700D01*
X614300Y262000D02*
X615700D01*
X615000Y261300D02*
Y262700D01*
X614300Y257000D02*
X615700D01*
X615000Y256300D02*
Y257700D01*
X614300Y247000D02*
X615700D01*
X615000Y246300D02*
Y247700D01*
X614300Y252000D02*
X615700D01*
X615000Y251300D02*
Y252700D01*
X614300Y287000D02*
X615700D01*
X615000Y286300D02*
Y287700D01*
X614300Y292000D02*
X615700D01*
X615000Y291300D02*
Y292700D01*
X256800Y287500D02*
X258200D01*
X257500Y286800D02*
Y288200D01*
X256800Y282500D02*
X258200D01*
X257500Y281800D02*
Y283200D01*
X256800Y247500D02*
X258200D01*
X257500Y246800D02*
Y248200D01*
X256800Y242500D02*
X258200D01*
X257500Y241800D02*
Y243200D01*
X256800Y252500D02*
X258200D01*
X257500Y251800D02*
Y253200D01*
X256800Y257500D02*
X258200D01*
X257500Y256800D02*
Y258200D01*
X256800Y277500D02*
X258200D01*
X257500Y276800D02*
Y278200D01*
X256800Y272500D02*
X258200D01*
X257500Y271800D02*
Y273200D01*
X256800Y262500D02*
X258200D01*
X257500Y261800D02*
Y263200D01*
X256800Y267500D02*
X258200D01*
X257500Y266800D02*
Y268200D01*
X349300Y265000D02*
X350700D01*
X350000Y264300D02*
Y265700D01*
X344300Y265000D02*
X345700D01*
X345000Y264300D02*
Y265700D01*
X339300Y265000D02*
X340700D01*
X340000Y264300D02*
Y265700D01*
X349300Y272500D02*
X350700D01*
X350000Y271800D02*
Y273200D01*
X344300Y272500D02*
X345700D01*
X345000Y271800D02*
Y273200D01*
X339300Y272500D02*
X340700D01*
X340000Y271800D02*
Y273200D01*
X349300Y269000D02*
X350700D01*
X350000Y268300D02*
Y269700D01*
X344300Y269000D02*
X345700D01*
X345000Y268300D02*
Y269700D01*
X339300Y269000D02*
X340700D01*
X340000Y268300D02*
Y269700D01*
X530300Y265000D02*
X531700D01*
X531000Y264300D02*
Y265700D01*
X525300Y265000D02*
X526700D01*
X526000Y264300D02*
Y265700D01*
X520300Y265000D02*
X521700D01*
X521000Y264300D02*
Y265700D01*
X530300Y272500D02*
X531700D01*
X531000Y271800D02*
Y273200D01*
X525300Y272500D02*
X526700D01*
X526000Y271800D02*
Y273200D01*
X520300Y272500D02*
X521700D01*
X521000Y271800D02*
Y273200D01*
X439300Y272500D02*
X440700D01*
X440000Y271800D02*
Y273200D01*
X434300Y272500D02*
X435700D01*
X435000Y271800D02*
Y273200D01*
X429300Y272500D02*
X430700D01*
X430000Y271800D02*
Y273200D01*
X439300Y265000D02*
X440700D01*
X440000Y264300D02*
Y265700D01*
X434300Y265000D02*
X435700D01*
X435000Y264300D02*
Y265700D01*
X429300Y265000D02*
X430700D01*
X430000Y264300D02*
Y265700D01*
X439300Y269000D02*
X440700D01*
X440000Y268300D02*
Y269700D01*
X434300Y269000D02*
X435700D01*
X435000Y268300D02*
Y269700D01*
X429300Y269000D02*
X430700D01*
X430000Y268300D02*
Y269700D01*
X530300Y269000D02*
X531700D01*
X531000Y268300D02*
Y269700D01*
X525300Y269000D02*
X526700D01*
X526000Y268300D02*
Y269700D01*
X520300Y269000D02*
X521700D01*
X521000Y268300D02*
Y269700D01*
X544300Y417500D02*
X545700D01*
X545000Y416800D02*
Y418200D01*
X539300Y417500D02*
X540700D01*
X540000Y416800D02*
Y418200D01*
X534300Y417500D02*
X535700D01*
X535000Y416800D02*
Y418200D01*
X544300Y412500D02*
X545700D01*
X545000Y411800D02*
Y413200D01*
X539300Y412500D02*
X540700D01*
X540000Y411800D02*
Y413200D01*
X534300Y412500D02*
X535700D01*
X535000Y411800D02*
Y413200D01*
X519300Y412500D02*
X520700D01*
X520000Y411800D02*
Y413200D01*
X524300Y412500D02*
X525700D01*
X525000Y411800D02*
Y413200D01*
X529300Y412500D02*
X530700D01*
X530000Y411800D02*
Y413200D01*
X519300Y417500D02*
X520700D01*
X520000Y416800D02*
Y418200D01*
X524300Y417500D02*
X525700D01*
X525000Y416800D02*
Y418200D01*
X529300Y417500D02*
X530700D01*
X530000Y416800D02*
Y418200D01*
X504300Y412500D02*
X505700D01*
X505000Y411800D02*
Y413200D01*
X509300Y412500D02*
X510700D01*
X510000Y411800D02*
Y413200D01*
X514300Y412500D02*
X515700D01*
X515000Y411800D02*
Y413200D01*
X514300Y417500D02*
X515700D01*
X515000Y416800D02*
Y418200D01*
X509300Y417500D02*
X510700D01*
X510000Y416800D02*
Y418200D01*
X504300Y417500D02*
X505700D01*
X505000Y416800D02*
Y418200D01*
X556300Y120000D02*
X557700D01*
X557000Y119300D02*
Y120700D01*
X523300Y126000D02*
X524700D01*
X524000Y125300D02*
Y126700D01*
X528300Y126000D02*
X529700D01*
X529000Y125300D02*
Y126700D01*
X533300Y126000D02*
X534700D01*
X534000Y125300D02*
Y126700D01*
X548800Y175500D02*
X550200D01*
X549500Y174800D02*
Y176200D01*
X544300Y170500D02*
X545700D01*
X545000Y169800D02*
Y171200D01*
X549300Y170500D02*
X550700D01*
X550000Y169800D02*
Y171200D01*
X372082Y142442D02*
X373482D01*
X372782Y141742D02*
Y143142D01*
X381800Y142500D02*
X383200D01*
X382500Y141800D02*
Y143200D01*
X335300Y142500D02*
X336700D01*
X336000Y141800D02*
Y143200D01*
X320800Y142500D02*
X322200D01*
X321500Y141800D02*
Y143200D01*
X325800Y142500D02*
X327200D01*
X326500Y141800D02*
Y143200D01*
X330800Y142500D02*
X332200D01*
X331500Y141800D02*
Y143200D01*
X384300Y394500D02*
X385700D01*
X385000Y393800D02*
Y395200D01*
X332300Y393500D02*
X333700D01*
X333000Y392800D02*
Y394200D01*
X327300Y393500D02*
X328700D01*
X328000Y392800D02*
Y394200D01*
X392300Y332500D02*
X393700D01*
X393000Y331800D02*
Y333200D01*
X320300Y357500D02*
X321700D01*
X321000Y356800D02*
Y358200D01*
X320300Y362500D02*
X321700D01*
X321000Y361800D02*
Y363200D01*
X325300Y362500D02*
X326700D01*
X326000Y361800D02*
Y363200D01*
X325300Y367500D02*
X326700D01*
X326000Y366800D02*
Y368200D01*
X320300Y367500D02*
X321700D01*
X321000Y366800D02*
Y368200D01*
X306800Y330000D02*
X308200D01*
X307500Y329300D02*
Y330700D01*
X301800Y330000D02*
X303200D01*
X302500Y329300D02*
Y330700D01*
X544300Y180500D02*
X545700D01*
X545000Y179800D02*
Y181200D01*
X539300Y175500D02*
X540700D01*
X540000Y174800D02*
Y176200D01*
X453800Y170500D02*
X455200D01*
X454500Y169800D02*
Y171200D01*
X448800Y175500D02*
X450200D01*
X449500Y174800D02*
Y176200D01*
X453800Y180000D02*
X455200D01*
X454500Y179300D02*
Y180700D01*
X458800Y175500D02*
X460200D01*
X459500Y174800D02*
Y176200D01*
X394300Y394500D02*
X395700D01*
X395000Y393800D02*
Y395200D01*
X561800Y120000D02*
X563200D01*
X562500Y119300D02*
Y120700D01*
X594800Y175500D02*
X596200D01*
X595500Y174800D02*
Y176200D01*
X386800Y142500D02*
X388200D01*
X387500Y141800D02*
Y143200D01*
X471300Y124500D02*
X472700D01*
X472000Y123800D02*
Y125200D01*
X376800Y142500D02*
X378200D01*
X377500Y141800D02*
Y143200D01*
X389300Y394500D02*
X390700D01*
X390000Y393800D02*
Y395200D01*
X379300Y394500D02*
X380700D01*
X380000Y393800D02*
Y395200D01*
X342300Y393500D02*
X343700D01*
X343000Y392800D02*
Y394200D01*
X337800Y393500D02*
X339200D01*
X338500Y392800D02*
Y394200D01*
X455800Y362500D02*
X457200D01*
X456500Y361800D02*
Y363200D01*
X455800Y357500D02*
X457200D01*
X456500Y356800D02*
Y358200D01*
X455800Y367500D02*
X457200D01*
X456500Y366800D02*
Y368200D01*
X445800Y362500D02*
X447200D01*
X446500Y361800D02*
Y363200D01*
X445800Y357500D02*
X447200D01*
X446500Y356800D02*
Y358200D01*
X445800Y367500D02*
X447200D01*
X446500Y366800D02*
Y368200D01*
X450800Y367500D02*
X452200D01*
X451500Y366800D02*
Y368200D01*
X450800Y362500D02*
X452200D01*
X451500Y361800D02*
Y363200D01*
X574300Y332500D02*
X575700D01*
X575000Y331800D02*
Y333200D01*
X482800Y332500D02*
X484200D01*
X483500Y331800D02*
Y333200D01*
X567800Y205500D02*
X569200D01*
X568500Y204800D02*
Y206200D01*
X477300Y205500D02*
X478700D01*
X478000Y204800D02*
Y206200D01*
X386800Y205500D02*
X388200D01*
X387500Y204800D02*
Y206200D01*
X296300Y205500D02*
X297700D01*
X297000Y204800D02*
Y206200D01*
X291800Y205500D02*
X293200D01*
X292500Y204800D02*
Y206200D01*
X396800Y332500D02*
X398200D01*
X397500Y331800D02*
Y333200D01*
X487300Y332500D02*
X488700D01*
X488000Y331800D02*
Y333200D01*
X579300Y332500D02*
X580700D01*
X580000Y331800D02*
Y333200D01*
X563300Y205500D02*
X564700D01*
X564000Y204800D02*
Y206200D01*
X472800Y205500D02*
X474200D01*
X473500Y204800D02*
Y206200D01*
X382300Y205500D02*
X383700D01*
X383000Y204800D02*
Y206200D01*
X579300Y306500D02*
X580700D01*
X580000Y305800D02*
Y307200D01*
X549800Y292000D02*
X551200D01*
X550500Y291300D02*
Y292700D01*
X557300Y306000D02*
X558700D01*
X558000Y305300D02*
Y306700D01*
X591800Y357500D02*
X593200D01*
X592500Y356800D02*
Y358200D01*
X591800Y362500D02*
X593200D01*
X592500Y361800D02*
Y363200D01*
X596800Y357500D02*
X598200D01*
X597500Y356800D02*
Y358200D01*
X601800Y357500D02*
X603200D01*
X602500Y356800D02*
Y358200D01*
X596800Y362500D02*
X598200D01*
X597500Y361800D02*
Y363200D01*
X601800Y362500D02*
X603200D01*
X602500Y361800D02*
Y363200D01*
X591800Y367500D02*
X593200D01*
X592500Y366800D02*
Y368200D01*
X596800Y367500D02*
X598200D01*
X597500Y366800D02*
Y368200D01*
X601800Y367500D02*
X603200D01*
X602500Y366800D02*
Y368200D01*
X613300Y335000D02*
X614700D01*
X614000Y334300D02*
Y335700D01*
X536300Y362500D02*
X537700D01*
X537000Y361800D02*
Y363200D01*
X536300Y367500D02*
X537700D01*
X537000Y366800D02*
Y368200D01*
X541300Y357500D02*
X542700D01*
X542000Y356800D02*
Y358200D01*
X536300Y357500D02*
X537700D01*
X537000Y356800D02*
Y358200D01*
X541300Y362500D02*
X542700D01*
X542000Y361800D02*
Y363200D01*
X541300Y367500D02*
X542700D01*
X542000Y366800D02*
Y368200D01*
X546300Y367500D02*
X547700D01*
X547000Y366800D02*
Y368200D01*
X546300Y362500D02*
X547700D01*
X547000Y361800D02*
Y363200D01*
X546300Y357500D02*
X547700D01*
X547000Y356800D02*
Y358200D01*
X307800Y306500D02*
X309200D01*
X308500Y305800D02*
Y307200D01*
X278300Y292000D02*
X279700D01*
X279000Y291300D02*
Y292700D01*
X285800Y306000D02*
X287200D01*
X286500Y305300D02*
Y306700D01*
X325300Y357500D02*
X326700D01*
X326000Y356800D02*
Y358200D01*
X330300Y357500D02*
X331700D01*
X331000Y356800D02*
Y358200D01*
X330300Y362500D02*
X331700D01*
X331000Y361800D02*
Y363200D01*
X330300Y367500D02*
X331700D01*
X331000Y366800D02*
Y368200D01*
X341800Y335000D02*
X343200D01*
X342500Y334300D02*
Y335700D01*
X264800Y357500D02*
X266200D01*
X265500Y356800D02*
Y358200D01*
X264800Y362500D02*
X266200D01*
X265500Y361800D02*
Y363200D01*
X269800Y357500D02*
X271200D01*
X270500Y356800D02*
Y358200D01*
X264800Y367500D02*
X266200D01*
X265500Y366800D02*
Y368200D01*
X269800Y362500D02*
X271200D01*
X270500Y361800D02*
Y363200D01*
X269800Y367500D02*
X271200D01*
X270500Y366800D02*
Y368200D01*
X274800Y357500D02*
X276200D01*
X275500Y356800D02*
Y358200D01*
X274800Y367500D02*
X276200D01*
X275500Y366800D02*
Y368200D01*
X274800Y362500D02*
X276200D01*
X275500Y361800D02*
Y363200D01*
X488800Y306500D02*
X490200D01*
X489500Y305800D02*
Y307200D01*
X459300Y292000D02*
X460700D01*
X460000Y291300D02*
Y292700D01*
X466800Y306000D02*
X468200D01*
X467500Y305300D02*
Y306700D01*
X501300Y357500D02*
X502700D01*
X502000Y356800D02*
Y358200D01*
X501300Y362500D02*
X502700D01*
X502000Y361800D02*
Y363200D01*
X506300Y357500D02*
X507700D01*
X507000Y356800D02*
Y358200D01*
X511300Y357500D02*
X512700D01*
X512000Y356800D02*
Y358200D01*
X506300Y362500D02*
X507700D01*
X507000Y361800D02*
Y363200D01*
X511300Y362500D02*
X512700D01*
X512000Y361800D02*
Y363200D01*
X501300Y367500D02*
X502700D01*
X502000Y366800D02*
Y368200D01*
X506300Y367500D02*
X507700D01*
X507000Y366800D02*
Y368200D01*
X511300Y367500D02*
X512700D01*
X512000Y366800D02*
Y368200D01*
X522800Y335000D02*
X524200D01*
X523500Y334300D02*
Y335700D01*
X450800Y357500D02*
X452200D01*
X451500Y356800D02*
Y358200D01*
X398300Y306500D02*
X399700D01*
X399000Y305800D02*
Y307200D01*
X368800Y292000D02*
X370200D01*
X369500Y291300D02*
Y292700D01*
X376300Y306000D02*
X377700D01*
X377000Y305300D02*
Y306700D01*
X410800Y357500D02*
X412200D01*
X411500Y356800D02*
Y358200D01*
X410800Y362500D02*
X412200D01*
X411500Y361800D02*
Y363200D01*
X415800Y357500D02*
X417200D01*
X416500Y356800D02*
Y358200D01*
X420800Y357500D02*
X422200D01*
X421500Y356800D02*
Y358200D01*
X415800Y362500D02*
X417200D01*
X416500Y361800D02*
Y363200D01*
X420800Y362500D02*
X422200D01*
X421500Y361800D02*
Y363200D01*
X410800Y367500D02*
X412200D01*
X411500Y366800D02*
Y368200D01*
X415800Y367500D02*
X417200D01*
X416500Y366800D02*
Y368200D01*
X420800Y367500D02*
X422200D01*
X421500Y366800D02*
Y368200D01*
X432300Y335000D02*
X433700D01*
X433000Y334300D02*
Y335700D01*
X355300Y357500D02*
X356700D01*
X356000Y356800D02*
Y358200D01*
X355300Y367500D02*
X356700D01*
X356000Y366800D02*
Y368200D01*
X355300Y362500D02*
X356700D01*
X356000Y361800D02*
Y363200D01*
X360300Y367500D02*
X361700D01*
X361000Y366800D02*
Y368200D01*
X360300Y357500D02*
X361700D01*
X361000Y356800D02*
Y358200D01*
X365300Y357500D02*
X366700D01*
X366000Y356800D02*
Y358200D01*
X360300Y362500D02*
X361700D01*
X361000Y361800D02*
Y363200D01*
X365300Y367500D02*
X366700D01*
X366000Y366800D02*
Y368200D01*
X365300Y362500D02*
X366700D01*
X366000Y361800D02*
Y363200D01*
X471300Y231500D02*
X472700D01*
X472000Y230800D02*
Y232200D01*
X500800Y246000D02*
X502200D01*
X501500Y245300D02*
Y246700D01*
X493300Y232000D02*
X494700D01*
X494000Y231300D02*
Y232700D01*
X458800Y180500D02*
X460200D01*
X459500Y179800D02*
Y181200D01*
X448800Y180500D02*
X450200D01*
X449500Y179800D02*
Y181200D01*
X453800Y175500D02*
X455200D01*
X454500Y174800D02*
Y176200D01*
X458800Y170500D02*
X460200D01*
X459500Y169800D02*
Y171200D01*
X448800Y170500D02*
X450200D01*
X449500Y169800D02*
Y171200D01*
X437300Y203000D02*
X438700D01*
X438000Y202300D02*
Y203700D01*
X514300Y180500D02*
X515700D01*
X515000Y179800D02*
Y181200D01*
X509300Y180500D02*
X510700D01*
X510000Y179800D02*
Y181200D01*
X514300Y175500D02*
X515700D01*
X515000Y174800D02*
Y176200D01*
X509300Y175500D02*
X510700D01*
X510000Y174800D02*
Y176200D01*
X514300Y170500D02*
X515700D01*
X515000Y169800D02*
Y171200D01*
X509300Y170500D02*
X510700D01*
X510000Y169800D02*
Y171200D01*
X504300Y175500D02*
X505700D01*
X505000Y174800D02*
Y176200D01*
X504300Y180500D02*
X505700D01*
X505000Y179800D02*
Y181200D01*
X504300Y170500D02*
X505700D01*
X505000Y169800D02*
Y171200D01*
X561800Y231500D02*
X563200D01*
X562500Y230800D02*
Y232200D01*
X591300Y246000D02*
X592700D01*
X592000Y245300D02*
Y246700D01*
X583800Y232000D02*
X585200D01*
X584500Y231300D02*
Y232700D01*
X549300Y180500D02*
X550700D01*
X550000Y179800D02*
Y181200D01*
X539300Y180500D02*
X540700D01*
X540000Y179800D02*
Y181200D01*
X544300Y175500D02*
X545700D01*
X545000Y174800D02*
Y176200D01*
X539300Y170500D02*
X540700D01*
X540000Y169800D02*
Y171200D01*
X527800Y203000D02*
X529200D01*
X528500Y202300D02*
Y203700D01*
X604800Y180500D02*
X606200D01*
X605500Y179800D02*
Y181200D01*
X604800Y175500D02*
X606200D01*
X605500Y174800D02*
Y176200D01*
X599800Y180500D02*
X601200D01*
X600500Y179800D02*
Y181200D01*
X594800Y180500D02*
X596200D01*
X595500Y179800D02*
Y181200D01*
X599800Y170500D02*
X601200D01*
X600500Y169800D02*
Y171200D01*
X599800Y175500D02*
X601200D01*
X600500Y174800D02*
Y176200D01*
X604800Y170500D02*
X606200D01*
X605500Y169800D02*
Y171200D01*
X594800Y170500D02*
X596200D01*
X595500Y169800D02*
Y171200D01*
X290300Y231500D02*
X291700D01*
X291000Y230800D02*
Y232200D01*
X319800Y246000D02*
X321200D01*
X320500Y245300D02*
Y246700D01*
X312300Y232000D02*
X313700D01*
X313000Y231300D02*
Y232700D01*
X277800Y180500D02*
X279200D01*
X278500Y179800D02*
Y181200D01*
X277800Y175500D02*
X279200D01*
X278500Y174800D02*
Y176200D01*
X272800Y180500D02*
X274200D01*
X273500Y179800D02*
Y181200D01*
X267800Y180500D02*
X269200D01*
X268500Y179800D02*
Y181200D01*
X272800Y175500D02*
X274200D01*
X273500Y174800D02*
Y176200D01*
X267800Y175500D02*
X269200D01*
X268500Y174800D02*
Y176200D01*
X277800Y170500D02*
X279200D01*
X278500Y169800D02*
Y171200D01*
X272800Y170500D02*
X274200D01*
X273500Y169800D02*
Y171200D01*
X267800Y170500D02*
X269200D01*
X268500Y169800D02*
Y171200D01*
X256300Y203000D02*
X257700D01*
X257000Y202300D02*
Y203700D01*
X333300Y180500D02*
X334700D01*
X334000Y179800D02*
Y181200D01*
X328300Y180500D02*
X329700D01*
X329000Y179800D02*
Y181200D01*
X333300Y175500D02*
X334700D01*
X334000Y174800D02*
Y176200D01*
X323300Y180500D02*
X324700D01*
X324000Y179800D02*
Y181200D01*
X333300Y170500D02*
X334700D01*
X334000Y169800D02*
Y171200D01*
X328300Y175500D02*
X329700D01*
X329000Y174800D02*
Y176200D01*
X328300Y170500D02*
X329700D01*
X329000Y169800D02*
Y171200D01*
X323300Y175500D02*
X324700D01*
X324000Y174800D02*
Y176200D01*
X323300Y170500D02*
X324700D01*
X324000Y169800D02*
Y171200D01*
X413800Y180500D02*
X415200D01*
X414500Y179800D02*
Y181200D01*
X418800Y180500D02*
X420200D01*
X419500Y179800D02*
Y181200D01*
X418800Y175500D02*
X420200D01*
X419500Y174800D02*
Y176200D01*
X413800Y175500D02*
X415200D01*
X414500Y174800D02*
Y176200D01*
X413800Y170500D02*
X415200D01*
X414500Y169800D02*
Y171200D01*
X418800Y170500D02*
X420200D01*
X419500Y169800D02*
Y171200D01*
X423800Y170500D02*
X425200D01*
X424500Y169800D02*
Y171200D01*
X423800Y175500D02*
X425200D01*
X424500Y174800D02*
Y176200D01*
X423800Y180500D02*
X425200D01*
X424500Y179800D02*
Y181200D01*
X358300Y180500D02*
X359700D01*
X359000Y179800D02*
Y181200D01*
X363300Y180500D02*
X364700D01*
X364000Y179800D02*
Y181200D01*
X363300Y175500D02*
X364700D01*
X364000Y174800D02*
Y176200D01*
X358300Y175500D02*
X359700D01*
X359000Y174800D02*
Y176200D01*
X358300Y170500D02*
X359700D01*
X359000Y169800D02*
Y171200D01*
X363300Y170500D02*
X364700D01*
X364000Y169800D02*
Y171200D01*
X368300Y170500D02*
X369700D01*
X369000Y169800D02*
Y171200D01*
X368300Y175500D02*
X369700D01*
X369000Y174800D02*
Y176200D01*
X368300Y180500D02*
X369700D01*
X369000Y179800D02*
Y181200D01*
X410300Y246000D02*
X411700D01*
X411000Y245300D02*
Y246700D01*
X402800Y232000D02*
X404200D01*
X403500Y231300D02*
Y232700D01*
X380800Y231500D02*
X382200D01*
X381500Y230800D02*
Y232200D01*
X346800Y203000D02*
X348200D01*
X347500Y202300D02*
Y203700D01*
M02*
